STARTFONT 2.1
COMMENT
COMMENT Converted from OpenType font "Catrinity-Regular.otf" by "otf2bdf 3.0".
COMMENT
FONT -FreeType-Catrinity-Medium-R-Normal--33-240-100-100-P-162-ISO10646-1
SIZE 24 100 100
FONTBOUNDINGBOX 76 44 -20 -13
STARTPROPERTIES 19
FOUNDRY "FreeType"
FAMILY_NAME "Catrinity"
WEIGHT_NAME "Medium"
SLANT "R"
SETWIDTH_NAME "Normal"
ADD_STYLE_NAME ""
PIXEL_SIZE 33
POINT_SIZE 240
RESOLUTION_X 100
RESOLUTION_Y 100
SPACING "P"
AVERAGE_WIDTH 162
CHARSET_REGISTRY "ISO10646"
CHARSET_ENCODING "1"
FONT_ASCENT 27
FONT_DESCENT 12
COPYRIGHT "Typeface © Alexander Lange. 2023. All Rights Reserved"
_OTF_FONTFILE "Catrinity-Regular.otf"
_OTF_PSNAME "Catrinity"
ENDPROPERTIES
CHARS 9984
STARTCHAR 0000
ENCODING 0
SWIDTH 0 0
DWIDTH 0 0
BBX 0 0 0 0
BITMAP
ENDCHAR
STARTCHAR 0008
ENCODING 8
SWIDTH 0 0
DWIDTH 0 0
BBX 0 0 0 0
BITMAP
ENDCHAR
STARTCHAR 0009
ENCODING 9
SWIDTH 240 0
DWIDTH 8 0
BBX 0 0 0 0
BITMAP
ENDCHAR
STARTCHAR 000D
ENCODING 13
SWIDTH 240 0
DWIDTH 8 0
BBX 0 0 0 0
BITMAP
ENDCHAR
STARTCHAR 001D
ENCODING 29
SWIDTH 0 0
DWIDTH 0 0
BBX 0 0 0 0
BITMAP
ENDCHAR
STARTCHAR 0020
ENCODING 32
SWIDTH 240 0
DWIDTH 8 0
BBX 0 0 0 0
BITMAP
ENDCHAR
STARTCHAR 0021
ENCODING 33
SWIDTH 150 0
DWIDTH 5 0
BBX 4 21 1 0
BITMAP
60
60
60
60
60
60
60
60
60
60
60
60
60
60
00
00
00
00
E0
F0
E0
ENDCHAR
STARTCHAR 0022
ENCODING 34
SWIDTH 270 0
DWIDTH 9 0
BBX 6 6 2 15
BITMAP
CC
CC
CC
CC
CC
CC
ENDCHAR
STARTCHAR 0023
ENCODING 35
SWIDTH 690 0
DWIDTH 23 0
BBX 20 21 2 0
BITMAP
038380
038380
030380
030300
030300
070300
7FFFF0
7FFFF0
060700
060600
060600
0E0E00
0E0E00
FFFFE0
FFFFE0
0C0C00
1C0C00
1C1C00
1C1C00
181C00
181800
ENDCHAR
STARTCHAR 0024
ENCODING 36
SWIDTH 480 0
DWIDTH 16 0
BBX 13 28 2 -3
BITMAP
0600
0600
0600
0F00
3FC0
3FE0
76E0
6670
E670
E600
6600
7E00
3E00
1F00
07C0
07E0
0670
0630
0638
C638
C638
E670
76F0
3FE0
1FC0
0600
0600
0600
ENDCHAR
STARTCHAR 0025
ENCODING 37
SWIDTH 630 0
DWIDTH 21 0
BBX 18 22 2 0
BITMAP
1C0000
7E0380
FF0700
C38700
C38E00
C39C00
E73800
7F3800
3E7000
00E000
00E000
01C000
038000
038E00
073F00
0E7F80
1C6180
1C61C0
3861C0
707380
707F80
E03F00
ENDCHAR
STARTCHAR 0026
ENCODING 38
SWIDTH 540 0
DWIDTH 18 0
BBX 15 22 2 0
BITMAP
0700
1FC0
3FE0
70E0
6040
E000
E030
6030
7030
3FFE
3FFE
7FFE
F030
E030
C030
C030
C030
C030
E070
70F0
3FFE
1F9E
ENDCHAR
STARTCHAR 0027
ENCODING 39
SWIDTH 150 0
DWIDTH 5 0
BBX 2 6 2 15
BITMAP
C0
C0
C0
C0
C0
C0
ENDCHAR
STARTCHAR 0028
ENCODING 40
SWIDTH 270 0
DWIDTH 9 0
BBX 6 28 2 -7
BITMAP
1C
38
30
70
70
60
E0
E0
C0
C0
C0
C0
C0
C0
C0
C0
C0
C0
C0
E0
E0
60
70
70
30
38
1C
1C
ENDCHAR
STARTCHAR 0029
ENCODING 41
SWIDTH 270 0
DWIDTH 9 0
BBX 7 28 1 -7
BITMAP
70
30
38
18
1C
0C
0C
0E
0E
0E
06
06
06
06
06
06
06
0E
0E
0E
0C
0C
1C
18
38
38
70
E0
ENDCHAR
STARTCHAR 002A
ENCODING 42
SWIDTH 420 0
DWIDTH 14 0
BBX 11 12 2 10
BITMAP
0E00
0C00
0C40
E4C0
F5C0
1F00
1F00
77C0
E4E0
4C40
0C00
0E00
ENDCHAR
STARTCHAR 002B
ENCODING 43
SWIDTH 510 0
DWIDTH 17 0
BBX 14 15 2 3
BITMAP
0300
0300
0300
0300
0300
0300
FFFC
FFFC
0300
0300
0300
0300
0300
0300
0300
ENDCHAR
STARTCHAR 002C
ENCODING 44
SWIDTH 180 0
DWIDTH 6 0
BBX 5 8 1 -6
BITMAP
70
F8
78
08
08
10
30
60
ENDCHAR
STARTCHAR 002D
ENCODING 45
SWIDTH 330 0
DWIDTH 11 0
BBX 8 3 2 6
BITMAP
FF
FF
FF
ENDCHAR
STARTCHAR 002E
ENCODING 46
SWIDTH 180 0
DWIDTH 6 0
BBX 3 3 2 0
BITMAP
E0
E0
E0
ENDCHAR
STARTCHAR 002F
ENCODING 47
SWIDTH 390 0
DWIDTH 13 0
BBX 10 21 2 0
BITMAP
01C0
0180
0380
0380
0300
0700
0700
0600
0E00
0C00
1C00
1C00
1800
3800
3800
3000
7000
7000
6000
E000
C000
ENDCHAR
STARTCHAR 0030
ENCODING 48
SWIDTH 480 0
DWIDTH 16 0
BBX 13 22 2 0
BITMAP
0700
1F80
3FC0
70E0
7060
6070
E030
C030
C030
C038
C038
C038
C038
C038
C030
E030
E070
6070
70E0
39C0
1FC0
0F80
ENDCHAR
STARTCHAR 0031
ENCODING 49
SWIDTH 390 0
DWIDTH 13 0
BBX 10 21 2 0
BITMAP
0C00
1C00
3C00
FC00
FC00
0C00
0C00
0C00
0C00
0C00
0C00
0C00
0C00
0C00
0C00
0C00
0C00
0C00
0C00
FFC0
FFC0
ENDCHAR
STARTCHAR 0032
ENCODING 50
SWIDTH 420 0
DWIDTH 14 0
BBX 11 22 2 0
BITMAP
1E00
3F80
7FC0
E0E0
C0E0
C060
0060
00E0
00C0
01C0
0380
0700
0E00
3C00
3800
7000
E000
E000
C000
C000
FFE0
FFE0
ENDCHAR
STARTCHAR 0033
ENCODING 51
SWIDTH 450 0
DWIDTH 15 0
BBX 12 22 2 0
BITMAP
0E00
3F80
7FC0
E1E0
C0E0
C060
0060
00E0
01E0
07C0
0780
07C0
00E0
0060
0070
0070
0070
4070
E0E0
F1E0
7FC0
3F80
ENDCHAR
STARTCHAR 0034
ENCODING 52
SWIDTH 540 0
DWIDTH 18 0
BBX 15 21 2 0
BITMAP
00F0
01F0
03F0
03F0
0770
0E70
0E70
1C70
3870
7070
7070
E070
FFFE
FFFE
0070
0070
0070
0070
0070
0070
0070
ENDCHAR
STARTCHAR 0035
ENCODING 53
SWIDTH 450 0
DWIDTH 15 0
BBX 12 21 2 0
BITMAP
7FC0
7FC0
6000
6000
6000
E000
FF00
FFC0
F1C0
E0E0
4060
0070
0070
0070
0070
0070
4060
E0E0
F1C0
7FC0
3F00
ENDCHAR
STARTCHAR 0036
ENCODING 54
SWIDTH 480 0
DWIDTH 16 0
BBX 13 22 2 0
BITMAP
0780
1FE0
3FF0
3870
7020
6000
E000
E000
C000
C600
FFC0
FFE0
F0F0
E070
C038
C038
E038
E030
7070
78F0
3FE0
1F80
ENDCHAR
STARTCHAR 0037
ENCODING 55
SWIDTH 510 0
DWIDTH 17 0
BBX 13 21 2 0
BITMAP
FFF8
FFF0
0070
00E0
00C0
01C0
0180
0380
0380
0300
0700
0600
0600
0E00
0E00
0C00
0C00
1C00
1C00
1C00
1C00
ENDCHAR
STARTCHAR 0038
ENCODING 56
SWIDTH 480 0
DWIDTH 16 0
BBX 13 22 2 0
BITMAP
0700
1FC0
3FE0
70E0
6070
E070
E070
6070
70E0
3FE0
3FC0
7FE0
F0F0
E070
C038
C038
C038
C030
E070
70F0
3FE0
1F80
ENDCHAR
STARTCHAR 0039
ENCODING 57
SWIDTH 480 0
DWIDTH 16 0
BBX 13 22 2 0
BITMAP
0700
3FC0
7FE0
F070
E030
C038
C038
C038
C030
E070
78F0
3FE0
1FE0
00E0
00C0
01C0
01C0
0180
0380
0300
0700
0700
ENDCHAR
STARTCHAR 003A
ENCODING 58
SWIDTH 180 0
DWIDTH 6 0
BBX 3 15 2 0
BITMAP
E0
E0
E0
00
00
00
00
00
00
00
00
00
E0
E0
E0
ENDCHAR
STARTCHAR 003B
ENCODING 59
SWIDTH 180 0
DWIDTH 6 0
BBX 5 20 1 -6
BITMAP
70
70
70
00
00
00
00
00
00
00
00
00
70
F8
78
08
08
10
30
60
ENDCHAR
STARTCHAR 003C
ENCODING 60
SWIDTH 510 0
DWIDTH 17 0
BBX 14 13 2 4
BITMAP
000C
007C
03FC
0FE0
7F00
F800
F000
FE00
3F80
07F0
00FC
003C
0004
ENDCHAR
STARTCHAR 003D
ENCODING 61
SWIDTH 510 0
DWIDTH 17 0
BBX 14 8 2 7
BITMAP
FFFC
FFFC
FFFC
0000
0000
0000
FFFC
FFFC
ENDCHAR
STARTCHAR 003E
ENCODING 62
SWIDTH 510 0
DWIDTH 17 0
BBX 14 13 2 4
BITMAP
C000
F800
FF00
1FC0
03F8
007C
003C
01FC
07F0
3F80
FC00
E000
8000
ENDCHAR
STARTCHAR 003F
ENCODING 63
SWIDTH 420 0
DWIDTH 14 0
BBX 11 22 2 0
BITMAP
1E00
3F80
7FC0
E0E0
C0E0
C060
0060
00E0
00E0
01C0
03C0
0380
0700
0600
0E00
0E00
0000
0000
0000
0E00
0E00
0E00
ENDCHAR
STARTCHAR 0040
ENCODING 64
SWIDTH 930 0
DWIDTH 31 0
BBX 27 29 2 -7
BITMAP
0000C000
000FFC00
003FFE00
00F80F00
01E00380
038001C0
070001C0
0E0FDCE0
1C1FFCE0
1838F860
38707860
30E03860
70C03860
70C03060
61C03060
61C030E0
61C070C0
E1C070C0
E1C0E1C0
60E3E180
60FFE380
707EE700
70007E00
38007C00
3C000000
1E000000
0FEF0000
07FF0000
01FC0000
ENDCHAR
STARTCHAR 0041
ENCODING 65
SWIDTH 630 0
DWIDTH 21 0
BBX 18 21 2 0
BITMAP
01C000
01E000
03E000
03F000
037000
073000
073800
063800
0E1800
0C1C00
1C1C00
1FFC00
1FFE00
380600
380700
300700
700300
700380
600380
E00180
C001C0
ENDCHAR
STARTCHAR 0042
ENCODING 66
SWIDTH 480 0
DWIDTH 16 0
BBX 13 21 2 0
BITMAP
FFC0
FFE0
C070
C030
C030
C030
C030
C070
FFE0
FFE0
FFF0
C070
C038
C018
C018
C018
C038
C038
C1F0
FFE0
FF80
ENDCHAR
STARTCHAR 0043
ENCODING 67
SWIDTH 570 0
DWIDTH 19 0
BBX 16 22 2 0
BITMAP
03E0
0FF8
1FFC
3C1E
7807
7007
E000
E000
C000
C000
C000
C000
C000
C000
E000
E000
6002
7007
380E
1E3E
0FFC
07F0
ENDCHAR
STARTCHAR 0044
ENCODING 68
SWIDTH 630 0
DWIDTH 21 0
BBX 18 21 2 0
BITMAP
FFF000
FFFC00
381E00
380F00
380700
380380
380380
380180
380180
3801C0
3801C0
380180
380180
380180
380380
380700
380700
380E00
387C00
FFF800
FFE000
ENDCHAR
STARTCHAR 0045
ENCODING 69
SWIDTH 480 0
DWIDTH 16 0
BBX 13 21 2 0
BITMAP
FFF8
FFF8
C000
C000
C000
C000
C000
C000
C000
FFE0
FFE0
C000
C000
C000
C000
C000
C000
C000
C000
FFF8
FFF8
ENDCHAR
STARTCHAR 0046
ENCODING 70
SWIDTH 480 0
DWIDTH 16 0
BBX 13 21 2 0
BITMAP
FFF8
FFF8
C000
C000
C000
C000
C000
C000
C000
FFE0
FFE0
C000
C000
C000
C000
C000
C000
C000
C000
C000
C000
ENDCHAR
STARTCHAR 0047
ENCODING 71
SWIDTH 570 0
DWIDTH 19 0
BBX 16 22 2 0
BITMAP
03E0
0FF8
1FFC
3C1E
7807
7007
E000
E000
C000
C000
C000
C0FF
C0FF
C003
E003
E003
6003
7007
380E
1E3E
0FFC
07F0
ENDCHAR
STARTCHAR 0048
ENCODING 72
SWIDTH 480 0
DWIDTH 16 0
BBX 13 21 2 0
BITMAP
C018
C018
C018
C018
C018
C018
C018
C018
C018
FFF8
FFF8
C018
C018
C018
C018
C018
C018
C018
C018
C018
C018
ENDCHAR
STARTCHAR 0049
ENCODING 73
SWIDTH 300 0
DWIDTH 10 0
BBX 7 21 2 0
BITMAP
FE
FE
38
38
38
38
38
38
38
38
38
38
38
38
38
38
38
38
38
FE
FE
ENDCHAR
STARTCHAR 004A
ENCODING 74
SWIDTH 360 0
DWIDTH 12 0
BBX 9 21 2 0
BITMAP
0380
0380
0380
0380
0380
0380
0380
0380
0380
0380
0380
0380
0380
0380
0380
0380
0380
C380
E700
7F00
3E00
ENDCHAR
STARTCHAR 004B
ENCODING 75
SWIDTH 540 0
DWIDTH 18 0
BBX 14 21 2 0
BITMAP
C070
C0E0
C0E0
C1C0
C380
C380
C700
CE00
DE00
DC00
FE00
F700
F700
E380
C1C0
C0E0
C0E0
C070
C038
C038
C01C
ENDCHAR
STARTCHAR 004C
ENCODING 76
SWIDTH 480 0
DWIDTH 16 0
BBX 13 21 2 0
BITMAP
C000
C000
C000
C000
C000
C000
C000
C000
C000
C000
C000
C000
C000
C000
C000
C000
C000
C000
C000
FFF8
FFF8
ENDCHAR
STARTCHAR 004D
ENCODING 77
SWIDTH 630 0
DWIDTH 21 0
BBX 18 21 2 0
BITMAP
E001C0
E001C0
E003C0
F003C0
F007C0
F007C0
F807C0
D80FC0
DC0FC0
DC0DC0
CC1DC0
CE1DC0
CE19C0
C639C0
C731C0
C771C0
C371C0
C3E1C0
C1E1C0
C1E1C0
C1C1C0
ENDCHAR
STARTCHAR 004E
ENCODING 78
SWIDTH 600 0
DWIDTH 20 0
BBX 17 21 2 0
BITMAP
E00380
E00380
F00380
F80380
DC0380
DC0380
CE0380
C70380
C70380
C38380
C1C380
C1C380
C0E380
C07380
C03B80
C03B80
C01F80
C00F80
C00F80
C00780
C00380
ENDCHAR
STARTCHAR 004F
ENCODING 79
SWIDTH 630 0
DWIDTH 21 0
BBX 18 22 2 0
BITMAP
03E000
0FF800
1FFC00
3C1E00
780700
700700
E00380
E00380
C00180
C00180
C001C0
C001C0
C00180
C00180
E00180
E00380
600300
700700
380E00
1E3E00
0FFC00
07F000
ENDCHAR
STARTCHAR 0050
ENCODING 80
SWIDTH 480 0
DWIDTH 16 0
BBX 12 21 2 0
BITMAP
FFC0
FFE0
C0F0
C070
C030
C030
C030
C070
C0F0
FFE0
FFC0
FE00
C000
C000
C000
C000
C000
C000
C000
C000
C000
ENDCHAR
STARTCHAR 0051
ENCODING 81
SWIDTH 630 0
DWIDTH 21 0
BBX 20 24 2 -2
BITMAP
03E000
0FF800
1FFC00
3C1E00
780700
700700
E00380
E00380
C00180
C00180
C001C0
C001C0
C00180
C00180
E08180
E3F380
67FB00
723F00
381E00
1E1E00
0FFE00
07FE30
0007F0
0003E0
ENDCHAR
STARTCHAR 0052
ENCODING 82
SWIDTH 510 0
DWIDTH 17 0
BBX 14 21 2 0
BITMAP
FFC0
FFE0
C0F0
C070
C030
C030
C030
C070
C0F0
FFE0
FFC0
FF80
C180
C1C0
C0E0
C0E0
C070
C070
C038
C018
C01C
ENDCHAR
STARTCHAR 0053
ENCODING 83
SWIDTH 480 0
DWIDTH 16 0
BBX 13 22 2 0
BITMAP
0F00
3FC0
7FE0
70E0
6070
E070
E000
6000
7800
3C00
1F00
07C0
01E0
00F0
0030
0038
C038
C038
E070
70F0
3FE0
1F80
ENDCHAR
STARTCHAR 0054
ENCODING 84
SWIDTH 480 0
DWIDTH 16 0
BBX 13 21 2 0
BITMAP
FFF8
FFF8
0700
0700
0700
0700
0700
0700
0700
0700
0700
0700
0700
0700
0700
0700
0700
0700
0700
0700
0700
ENDCHAR
STARTCHAR 0055
ENCODING 85
SWIDTH 570 0
DWIDTH 19 0
BBX 16 21 2 0
BITMAP
C007
C007
C007
C007
C007
C007
C007
C007
C007
C007
C007
C007
C007
C007
C007
E007
E00E
701E
3C3C
1FF8
0FE0
ENDCHAR
STARTCHAR 0056
ENCODING 86
SWIDTH 630 0
DWIDTH 21 0
BBX 18 21 2 0
BITMAP
E001C0
E00180
600380
700300
700700
300700
380600
180E00
1C0E00
1C0C00
0C1C00
0E1C00
0E1800
063800
073000
077000
037000
03E000
01E000
01E000
01C000
ENDCHAR
STARTCHAR 0057
ENCODING 87
SWIDTH 840 0
DWIDTH 28 0
BBX 25 21 2 0
BITMAP
C01C0380
E01C0380
E03C0300
603E0300
603E0700
70360700
70770600
30770600
38630E00
38E30E00
18E38C00
18C39C00
1CC19C00
1DC19800
0DC1D800
0D81F800
0F80F800
0F80F000
0780F000
0700F000
07007000
ENDCHAR
STARTCHAR 0058
ENCODING 88
SWIDTH 630 0
DWIDTH 21 0
BBX 17 21 2 0
BITMAP
E00380
700700
380700
380E00
1C1C00
0E3800
073800
077000
03E000
01E000
01C000
03E000
03F000
077000
0E3800
1C1C00
1C0E00
380E00
700700
700380
E00380
ENDCHAR
STARTCHAR 0059
ENCODING 89
SWIDTH 630 0
DWIDTH 21 0
BBX 17 21 2 0
BITMAP
E00380
700700
380700
380E00
1C1C00
0E3800
073800
077000
03E000
01E000
01C000
01C000
01C000
01C000
01C000
01C000
01C000
01C000
01C000
01C000
01C000
ENDCHAR
STARTCHAR 005A
ENCODING 90
SWIDTH 510 0
DWIDTH 17 0
BBX 14 21 2 0
BITMAP
FFFC
FFFC
001C
0038
0078
0070
00E0
01C0
01C0
0380
0700
0700
0E00
1C00
3800
3800
7000
E000
E000
FFFC
FFFC
ENDCHAR
STARTCHAR 005B
ENCODING 91
SWIDTH 270 0
DWIDTH 9 0
BBX 6 28 2 -7
BITMAP
FC
FC
C0
C0
C0
C0
C0
C0
C0
C0
C0
C0
C0
C0
C0
C0
C0
C0
C0
C0
C0
C0
C0
C0
C0
FC
FC
FC
ENDCHAR
STARTCHAR 005C
ENCODING 92
SWIDTH 390 0
DWIDTH 13 0
BBX 10 21 2 0
BITMAP
E000
E000
6000
7000
7000
3000
3800
1800
1C00
1C00
0C00
0E00
0E00
0600
0700
0700
0300
0380
0180
01C0
01C0
ENDCHAR
STARTCHAR 005D
ENCODING 93
SWIDTH 270 0
DWIDTH 9 0
BBX 6 28 2 -7
BITMAP
FC
FC
0C
0C
0C
0C
0C
0C
0C
0C
0C
0C
0C
0C
0C
0C
0C
0C
0C
0C
0C
0C
0C
0C
0C
FC
FC
FC
ENDCHAR
STARTCHAR 005E
ENCODING 94
SWIDTH 300 0
DWIDTH 10 0
BBX 7 6 2 15
BITMAP
38
78
7C
7C
EC
CE
ENDCHAR
STARTCHAR 005F
ENCODING 95
SWIDTH 480 0
DWIDTH 16 0
BBX 13 2 2 -2
BITMAP
FFF8
FFF8
ENDCHAR
STARTCHAR 0060
ENCODING 96
SWIDTH 240 0
DWIDTH 8 0
BBX 5 4 2 17
BITMAP
E0
30
10
08
ENDCHAR
STARTCHAR 0061
ENCODING 97
SWIDTH 390 0
DWIDTH 13 0
BBX 10 15 2 0
BITMAP
3F00
7F80
33C0
01C0
01C0
01C0
3FC0
7FC0
F3C0
C1C0
C1C0
C1C0
E3C0
7FC0
3FC0
ENDCHAR
STARTCHAR 0062
ENCODING 98
SWIDTH 480 0
DWIDTH 16 0
BBX 13 21 2 0
BITMAP
C000
C000
C000
C000
C000
C000
DF80
FFC0
F8E0
E070
E030
C030
C038
C038
C038
C030
E030
E070
F8E0
FFC0
DF80
ENDCHAR
STARTCHAR 0063
ENCODING 99
SWIDTH 450 0
DWIDTH 15 0
BBX 12 15 2 0
BITMAP
1F80
3FC0
78E0
6070
E060
C000
C000
C000
C000
C000
E020
E070
78E0
3FC0
1F80
ENDCHAR
STARTCHAR 0064
ENCODING 100
SWIDTH 480 0
DWIDTH 16 0
BBX 13 21 2 0
BITMAP
0038
0038
0038
0038
0038
0038
1FB8
3FF8
78F8
6078
E038
C038
C038
C038
C038
C038
E038
E078
78F8
3FF8
1FB8
ENDCHAR
STARTCHAR 0065
ENCODING 101
SWIDTH 480 0
DWIDTH 16 0
BBX 13 15 2 0
BITMAP
1F80
3FC0
78E0
6070
E070
FFF0
FFF8
FFF8
C000
C000
E020
E070
78E0
3FC0
1F80
ENDCHAR
STARTCHAR 0066
ENCODING 102
SWIDTH 300 0
DWIDTH 10 0
BBX 10 22 2 0
BITMAP
0380
0FC0
1F80
1800
1800
1800
1800
1800
FF00
FF00
FF00
1800
1800
1800
1800
1800
1800
1800
1800
1800
1800
1800
ENDCHAR
STARTCHAR 0067
ENCODING 103
SWIDTH 480 0
DWIDTH 16 0
BBX 15 22 2 -7
BITMAP
1FCC
7FFE
F0FC
E070
C038
C038
C038
E070
79F0
7FE0
FF80
E000
F000
7FC0
0FF0
0070
0038
C038
E070
7FF0
3FE0
0F80
ENDCHAR
STARTCHAR 0068
ENCODING 104
SWIDTH 480 0
DWIDTH 16 0
BBX 13 21 2 0
BITMAP
C000
C000
C000
C000
C000
C000
CFC0
FFE0
F8E0
F070
E030
C030
C038
C038
C038
C038
C038
C038
C038
C038
C038
ENDCHAR
STARTCHAR 0069
ENCODING 105
SWIDTH 150 0
DWIDTH 5 0
BBX 4 21 1 0
BITMAP
60
F0
F0
60
00
00
60
60
60
60
60
60
60
60
60
60
60
60
60
60
60
ENDCHAR
STARTCHAR 006A
ENCODING 106
SWIDTH 150 0
DWIDTH 5 0
BBX 8 28 -3 -7
BITMAP
06
0F
0F
06
00
00
06
06
06
06
06
06
06
06
06
06
06
06
06
06
06
06
06
06
0E
7C
FC
70
ENDCHAR
STARTCHAR 006B
ENCODING 107
SWIDTH 420 0
DWIDTH 14 0
BBX 11 21 2 0
BITMAP
C000
C000
C000
C000
C000
C000
C380
C700
C700
CE00
DC00
DC00
F800
FC00
FC00
EE00
C700
C380
C380
C1C0
C0E0
ENDCHAR
STARTCHAR 006C
ENCODING 108
SWIDTH 240 0
DWIDTH 8 0
BBX 5 21 2 0
BITMAP
C0
C0
C0
C0
C0
C0
C0
C0
C0
C0
C0
C0
C0
C0
C0
C0
C0
C0
C0
F8
F8
ENDCHAR
STARTCHAR 006D
ENCODING 109
SWIDTH 600 0
DWIDTH 20 0
BBX 17 15 2 0
BITMAP
DE3E00
FF7F00
F3E700
E1C300
E1C300
C1C380
C18380
C18380
C18380
C18380
C18380
C18380
C18380
C18380
C18380
ENDCHAR
STARTCHAR 006E
ENCODING 110
SWIDTH 480 0
DWIDTH 16 0
BBX 13 15 2 0
BITMAP
CFC0
FFE0
F8E0
F070
E030
C030
C038
C038
C038
C038
C038
C038
C038
C038
C038
ENDCHAR
STARTCHAR 006F
ENCODING 111
SWIDTH 480 0
DWIDTH 16 0
BBX 13 15 2 0
BITMAP
1F80
3FC0
78E0
6070
E030
C030
C038
C038
C038
C030
E030
E070
78E0
3FC0
1F80
ENDCHAR
STARTCHAR 0070
ENCODING 112
SWIDTH 480 0
DWIDTH 16 0
BBX 13 22 2 -7
BITMAP
DF80
FFC0
F8E0
E070
E030
C030
C038
C038
C038
C030
E030
E070
F8E0
FFC0
DF80
C000
C000
C000
C000
C000
C000
4000
ENDCHAR
STARTCHAR 0071
ENCODING 113
SWIDTH 480 0
DWIDTH 16 0
BBX 13 22 2 -7
BITMAP
1FB8
3FF8
78F8
6078
E038
C038
C038
C038
C038
C038
E038
E078
78F8
3FF8
1FB8
0038
0038
0038
0038
0038
0038
0018
ENDCHAR
STARTCHAR 0072
ENCODING 114
SWIDTH 330 0
DWIDTH 11 0
BBX 8 15 2 0
BITMAP
DF
FE
F8
F0
E0
C0
C0
C0
C0
C0
C0
C0
C0
C0
C0
ENDCHAR
STARTCHAR 0073
ENCODING 115
SWIDTH 390 0
DWIDTH 13 0
BBX 9 15 2 0
BITMAP
3E00
7F00
E380
E180
E000
F000
7C00
1F00
0780
0180
C180
C180
E380
7F00
3E00
ENDCHAR
STARTCHAR 0074
ENCODING 116
SWIDTH 330 0
DWIDTH 11 0
BBX 8 19 2 0
BITMAP
08
18
18
18
FF
FF
18
18
18
18
18
18
18
18
18
18
18
1E
1E
ENDCHAR
STARTCHAR 0075
ENCODING 117
SWIDTH 480 0
DWIDTH 16 0
BBX 13 15 2 0
BITMAP
C038
C038
C038
C038
C038
C038
C038
C038
C038
C038
E078
E0F8
71F8
7FF8
1FB8
ENDCHAR
STARTCHAR 0076
ENCODING 118
SWIDTH 480 0
DWIDTH 16 0
BBX 13 15 2 0
BITMAP
C038
E038
6030
6070
7070
3060
38E0
38C0
19C0
1DC0
1D80
0F80
0F80
0700
0700
ENDCHAR
STARTCHAR 0077
ENCODING 119
SWIDTH 630 0
DWIDTH 21 0
BBX 18 15 2 0
BITMAP
C0C0C0
E1E1C0
E1E1C0
61E180
63E380
73F380
737380
333300
373700
3F3F00
3E3E00
1E1E00
1E1E00
1E1E00
1C0C00
ENDCHAR
STARTCHAR 0078
ENCODING 120
SWIDTH 480 0
DWIDTH 16 0
BBX 13 15 2 0
BITMAP
E038
7070
70E0
38E0
1DC0
1F80
0F80
0700
0F80
1F80
1DC0
38E0
70E0
7070
E038
ENDCHAR
STARTCHAR 0079
ENCODING 121
SWIDTH 480 0
DWIDTH 16 0
BBX 13 22 2 -7
BITMAP
C038
E038
6030
6070
7070
3060
38E0
38C0
19C0
1DC0
1D80
0F80
0F80
0700
0700
0700
0600
0E00
0C00
7C00
7800
E000
ENDCHAR
STARTCHAR 007A
ENCODING 122
SWIDTH 390 0
DWIDTH 13 0
BBX 10 15 2 0
BITMAP
FFC0
FFC0
01C0
0380
0700
0700
0E00
1C00
3800
3800
7000
E000
E000
FFC0
FFC0
ENDCHAR
STARTCHAR 007B
ENCODING 123
SWIDTH 270 0
DWIDTH 9 0
BBX 6 29 2 -7
BITMAP
04
1C
3C
38
30
30
30
30
30
30
30
30
70
F0
E0
F0
70
30
30
30
30
30
30
30
30
38
3C
1C
04
ENDCHAR
STARTCHAR 007C
ENCODING 124
SWIDTH 150 0
DWIDTH 5 0
BBX 2 28 2 -7
BITMAP
C0
C0
C0
C0
C0
C0
C0
C0
C0
C0
C0
C0
C0
C0
C0
C0
C0
C0
C0
C0
C0
C0
C0
C0
C0
C0
C0
C0
ENDCHAR
STARTCHAR 007D
ENCODING 125
SWIDTH 270 0
DWIDTH 9 0
BBX 6 29 2 -7
BITMAP
80
E0
F0
70
30
30
30
30
30
30
30
30
38
3C
1C
3C
38
30
30
30
30
30
30
30
30
70
F0
E0
80
ENDCHAR
STARTCHAR 007E
ENCODING 126
SWIDTH 570 0
DWIDTH 19 0
BBX 16 6 2 8
BITMAP
1800
7F00
FF87
E3EF
C1FE
007C
ENDCHAR
STARTCHAR 00A0
ENCODING 160
SWIDTH 240 0
DWIDTH 8 0
BBX 0 0 0 0
BITMAP
ENDCHAR
STARTCHAR 00A1
ENCODING 161
SWIDTH 150 0
DWIDTH 5 0
BBX 4 22 1 -7
BITMAP
E0
F0
E0
00
00
00
00
60
60
60
60
60
60
60
60
60
60
60
60
60
60
60
ENDCHAR
STARTCHAR 00A2
ENCODING 162
SWIDTH 450 0
DWIDTH 15 0
BBX 12 21 2 -3
BITMAP
00E0
00C0
01C0
1FC0
3FC0
7BE0
63F0
E360
C700
C600
CE00
CE00
CC00
FC20
7C70
78E0
3FC0
3F80
3000
7000
6000
ENDCHAR
STARTCHAR 00A3
ENCODING 163
SWIDTH 510 0
DWIDTH 17 0
BBX 13 22 2 0
BITMAP
03C0
0FE0
1FF0
3C38
3818
3010
7000
7000
7000
7000
FF80
FF80
1800
1800
1800
1800
1800
3800
3800
F000
FFF8
FFF8
ENDCHAR
STARTCHAR 00A4
ENCODING 164
SWIDTH 510 0
DWIDTH 17 0
BBX 15 15 1 3
BITMAP
6006
F00E
7FFC
3FF8
1C38
1818
381C
381C
381C
1C38
1FF8
3FFC
73DE
600E
0004
ENDCHAR
STARTCHAR 00A5
ENCODING 165
SWIDTH 630 0
DWIDTH 21 0
BBX 17 21 2 0
BITMAP
E00380
700700
380700
380E00
1C1C00
0E3800
073800
077000
03E000
7FFF00
7FFF00
7FFF00
01C000
01C000
7FFF00
7FFF00
01C000
01C000
01C000
01C000
01C000
ENDCHAR
STARTCHAR 00A6
ENCODING 166
SWIDTH 150 0
DWIDTH 5 0
BBX 2 28 2 -7
BITMAP
C0
C0
C0
C0
C0
C0
C0
C0
C0
C0
00
00
00
00
00
00
00
C0
C0
C0
C0
C0
C0
C0
C0
C0
C0
C0
ENDCHAR
STARTCHAR 00A7
ENCODING 167
SWIDTH 480 0
DWIDTH 16 0
BBX 13 29 2 -7
BITMAP
0F00
3FC0
7FE0
70E0
6070
E070
E000
6000
7800
7C00
FF00
C7C0
C1E0
C070
E030
F038
7838
3E38
0FF0
03F0
00E0
0070
0070
E070
6070
70E0
3FE0
3FC0
0F00
ENDCHAR
STARTCHAR 00A8
ENCODING 168
SWIDTH 360 0
DWIDTH 12 0
BBX 9 4 2 17
BITMAP
C300
E780
E780
C300
ENDCHAR
STARTCHAR 00A9
ENCODING 169
SWIDTH 750 0
DWIDTH 25 0
BBX 22 22 2 0
BITMAP
00F800
07FF00
0FFF80
1E03E0
3800E0
700070
607838
E0FC38
C1DE18
C1881C
C3801C
C3801C
C3801C
C1CC1C
E1FC18
E0FC38
702030
380070
3C01E0
1F07C0
07FF80
03FE00
ENDCHAR
STARTCHAR 00AA
ENCODING 170
SWIDTH 270 0
DWIDTH 9 0
BBX 6 12 2 11
BITMAP
30
78
0C
3C
FC
CC
CC
7C
00
00
FC
FC
ENDCHAR
STARTCHAR 00AB
ENCODING 171
SWIDTH 390 0
DWIDTH 13 0
BBX 10 11 2 2
BITMAP
0440
0880
1100
3300
6600
CC00
6600
2300
1100
0880
0440
ENDCHAR
STARTCHAR 00AC
ENCODING 172
SWIDTH 510 0
DWIDTH 17 0
BBX 14 7 2 5
BITMAP
FFFC
FFFC
000C
000C
000C
000C
000C
ENDCHAR
STARTCHAR 00AD
ENCODING 173
SWIDTH 330 0
DWIDTH 11 0
BBX 8 3 2 6
BITMAP
FF
FF
FF
ENDCHAR
STARTCHAR 00AE
ENCODING 174
SWIDTH 750 0
DWIDTH 25 0
BBX 22 22 2 0
BITMAP
00F800
07FF00
0FFF80
1E03E0
3800E0
700070
61F838
E1FC38
C1FE18
C1CE1C
C1CE1C
C1FC1C
C1F81C
C1DC1C
E1CC18
E1CE38
700030
380070
3C01E0
1F07C0
07FF80
03FE00
ENDCHAR
STARTCHAR 00AF
ENCODING 175
SWIDTH 330 0
DWIDTH 11 0
BBX 8 3 2 17
BITMAP
FF
FF
FF
ENDCHAR
STARTCHAR 00B0
ENCODING 176
SWIDTH 360 0
DWIDTH 12 0
BBX 9 9 2 13
BITMAP
1C00
7E00
FF00
C380
C380
C380
E700
7F00
3E00
ENDCHAR
STARTCHAR 00B1
ENCODING 177
SWIDTH 510 0
DWIDTH 17 0
BBX 14 19 2 1
BITMAP
0300
0300
0300
0300
0300
0300
FFFC
FFFC
FFFC
0300
0300
0300
0300
0300
0300
0000
FFFC
FFFC
FFFC
ENDCHAR
STARTCHAR 00B2
ENCODING 178
SWIDTH 270 0
DWIDTH 9 0
BBX 6 11 2 15
BITMAP
78
F8
8C
0C
18
38
70
E0
C0
80
FC
ENDCHAR
STARTCHAR 00B3
ENCODING 179
SWIDTH 270 0
DWIDTH 9 0
BBX 6 11 2 15
BITMAP
78
FC
CC
0C
1C
18
0C
04
8C
CC
78
ENDCHAR
STARTCHAR 00B4
ENCODING 180
SWIDTH 240 0
DWIDTH 8 0
BBX 5 4 2 17
BITMAP
38
60
40
80
ENDCHAR
STARTCHAR 00B5
ENCODING 181
SWIDTH 480 0
DWIDTH 16 0
BBX 13 22 2 -7
BITMAP
C038
C038
C038
C038
C038
C038
C038
C038
C038
C038
E078
E078
F0F8
FFF8
DFB8
C000
C000
C000
C000
C000
C000
4000
ENDCHAR
STARTCHAR 00B6
ENCODING 182
SWIDTH 480 0
DWIDTH 16 0
BBX 12 28 2 -7
BITMAP
3FF0
7FF0
FF30
FF30
FF30
FF30
FF30
FF30
7F30
3F30
0F30
0330
0330
0330
0330
0330
0330
0330
0330
0330
0330
0330
0330
0330
0330
0330
0330
0330
ENDCHAR
STARTCHAR 00B7
ENCODING 183
SWIDTH 180 0
DWIDTH 6 0
BBX 3 4 2 9
BITMAP
40
E0
E0
E0
ENDCHAR
STARTCHAR 00B8
ENCODING 184
SWIDTH 270 0
DWIDTH 9 0
BBX 6 7 2 -7
BITMAP
20
78
1C
0C
0C
F8
F0
ENDCHAR
STARTCHAR 00B9
ENCODING 185
SWIDTH 270 0
DWIDTH 9 0
BBX 5 11 2 15
BITMAP
20
E0
E0
20
20
20
20
20
20
20
F8
ENDCHAR
STARTCHAR 00BA
ENCODING 186
SWIDTH 330 0
DWIDTH 11 0
BBX 7 12 2 11
BITMAP
38
7C
C6
C6
C6
C6
6E
7C
00
00
FE
FE
ENDCHAR
STARTCHAR 00BB
ENCODING 187
SWIDTH 390 0
DWIDTH 13 0
BBX 10 11 2 2
BITMAP
8800
4400
2200
3300
1980
0CC0
1980
3300
2200
4400
8800
ENDCHAR
STARTCHAR 00BC
ENCODING 188
SWIDTH 480 0
DWIDTH 16 0
BBX 13 27 2 -3
BITMAP
0600
1E00
1E00
0600
0600
0600
0600
0600
0600
1F80
1F80
0000
FFF8
FFF8
0000
0000
0300
0700
0700
0D00
1900
3900
3FC0
3FC0
0100
0100
0100
ENDCHAR
STARTCHAR 00BD
ENCODING 189
SWIDTH 480 0
DWIDTH 16 0
BBX 13 27 2 -3
BITMAP
0600
1E00
1E00
0600
0600
0600
0600
0600
0600
1F80
1F80
0000
FFF8
FFF8
0000
0000
0F00
1F80
1980
0180
0180
0300
0E00
0C00
1800
1F80
1F80
ENDCHAR
STARTCHAR 00BE
ENCODING 190
SWIDTH 480 0
DWIDTH 16 0
BBX 13 27 2 -2
BITMAP
0F00
1980
1980
0180
0300
0380
0180
0080
1980
1F80
0F00
0000
FFF8
FFF8
0000
0000
0300
0700
0700
0D00
1900
3900
3FC0
3FC0
0100
0100
0100
ENDCHAR
STARTCHAR 00BF
ENCODING 191
SWIDTH 420 0
DWIDTH 14 0
BBX 11 22 2 -7
BITMAP
0E00
0E00
0E00
0000
0000
0000
0E00
0C00
1C00
1C00
3800
7000
7000
E000
C000
C000
C060
C0E0
E0C0
7FC0
3F80
1E00
ENDCHAR
STARTCHAR 00C0
ENCODING 192
SWIDTH 630 0
DWIDTH 21 0
BBX 18 28 2 0
BITMAP
070000
018000
018000
004000
000000
000000
000000
01C000
01E000
03E000
03F000
037000
073000
073800
063800
0E1800
0C1C00
1C1C00
1FFC00
1FFE00
380600
380700
300700
700300
700380
600380
E00180
C001C0
ENDCHAR
STARTCHAR 00C1
ENCODING 193
SWIDTH 630 0
DWIDTH 21 0
BBX 18 28 2 0
BITMAP
007000
006000
00C000
008000
010000
000000
000000
01C000
01E000
03E000
03F000
037000
073000
073800
063800
0E1800
0C1C00
1C1C00
1FFC00
1FFE00
380600
380700
300700
700300
700380
600380
E00180
C001C0
ENDCHAR
STARTCHAR 00C2
ENCODING 194
SWIDTH 630 0
DWIDTH 21 0
BBX 18 28 2 0
BITMAP
01E000
03E000
033000
061000
040800
000000
000000
01C000
01E000
03E000
03F000
037000
073000
073800
063800
0E1800
0C1C00
1C1C00
1FFC00
1FFE00
380600
380700
300700
700300
700380
600380
E00180
C001C0
ENDCHAR
STARTCHAR 00C3
ENCODING 195
SWIDTH 630 0
DWIDTH 21 0
BBX 18 28 2 0
BITMAP
040000
0F8400
19EC00
187C00
000000
000000
000000
01C000
01E000
03E000
03F000
037000
073000
073800
063800
0E1800
0C1C00
1C1C00
1FFC00
1FFE00
380600
380700
300700
700300
700380
600380
E00180
C001C0
ENDCHAR
STARTCHAR 00C4
ENCODING 196
SWIDTH 630 0
DWIDTH 21 0
BBX 18 27 2 0
BITMAP
0F3800
0F3800
063800
000000
000000
000000
01C000
01E000
03E000
03F000
037000
073000
073800
063800
0E1800
0C1C00
1C1C00
1FFC00
1FFE00
380600
380700
300700
700300
700380
600380
E00180
C001C0
ENDCHAR
STARTCHAR 00C5
ENCODING 197
SWIDTH 630 0
DWIDTH 21 0
BBX 18 28 2 0
BITMAP
01E000
036000
033000
036000
01E000
000000
000000
01C000
01E000
03E000
03F000
037000
073000
073800
063800
0E1800
0C1C00
1C1C00
1FFC00
1FFE00
380600
380700
300700
700300
700380
600380
E00180
C001C0
ENDCHAR
STARTCHAR 00C6
ENCODING 198
SWIDTH 720 0
DWIDTH 24 0
BBX 21 21 2 0
BITMAP
01FFF8
01FFF8
03B800
03B800
033800
073800
073800
063800
0E3800
0FFFE0
1FFFE0
1C3800
183800
383800
383800
303800
703800
703800
603800
E03FF8
C03FF8
ENDCHAR
STARTCHAR 00C7
ENCODING 199
SWIDTH 570 0
DWIDTH 19 0
BBX 16 29 2 -7
BITMAP
03E0
0FF8
1FFC
3C1E
7807
7007
E000
E000
C000
C000
C000
C000
C000
C000
E000
E000
6002
7007
380E
1E3E
0FFC
07F0
0180
01C0
00E0
0030
0030
03E0
03C0
ENDCHAR
STARTCHAR 00C8
ENCODING 200
SWIDTH 480 0
DWIDTH 16 0
BBX 13 28 2 0
BITMAP
1C00
0E00
0600
0300
0100
0000
0000
FFF8
FFF8
C000
C000
C000
C000
C000
C000
C000
FFE0
FFE0
C000
C000
C000
C000
C000
C000
C000
C000
FFF8
FFF8
ENDCHAR
STARTCHAR 00C9
ENCODING 201
SWIDTH 480 0
DWIDTH 16 0
BBX 13 28 2 0
BITMAP
01C0
0380
0300
0600
0400
0000
0000
FFF8
FFF8
C000
C000
C000
C000
C000
C000
C000
FFE0
FFE0
C000
C000
C000
C000
C000
C000
C000
C000
FFF8
FFF8
ENDCHAR
STARTCHAR 00CA
ENCODING 202
SWIDTH 480 0
DWIDTH 16 0
BBX 13 28 2 0
BITMAP
0700
0F80
0D80
10C0
0040
0000
0000
FFF8
FFF8
C000
C000
C000
C000
C000
C000
C000
FFE0
FFE0
C000
C000
C000
C000
C000
C000
C000
C000
FFF8
FFF8
ENDCHAR
STARTCHAR 00CB
ENCODING 203
SWIDTH 480 0
DWIDTH 16 0
BBX 13 27 2 0
BITMAP
38E0
39E0
38E0
0000
0000
0000
FFF8
FFF8
C000
C000
C000
C000
C000
C000
C000
FFE0
FFE0
C000
C000
C000
C000
C000
C000
C000
C000
FFF8
FFF8
ENDCHAR
STARTCHAR 00CC
ENCODING 204
SWIDTH 300 0
DWIDTH 10 0
BBX 8 28 1 0
BITMAP
70
30
18
08
04
00
00
FF
FF
18
18
18
18
18
18
18
18
18
18
18
18
18
18
18
18
18
FF
FF
ENDCHAR
STARTCHAR 00CD
ENCODING 205
SWIDTH 300 0
DWIDTH 10 0
BBX 8 28 1 0
BITMAP
0E
0C
18
10
20
00
00
FF
FF
18
18
18
18
18
18
18
18
18
18
18
18
18
18
18
18
18
FF
FF
ENDCHAR
STARTCHAR 00CE
ENCODING 206
SWIDTH 300 0
DWIDTH 10 0
BBX 8 28 1 0
BITMAP
3C
3C
66
42
81
00
00
FF
FF
18
18
18
18
18
18
18
18
18
18
18
18
18
18
18
18
18
FF
FF
ENDCHAR
STARTCHAR 00CF
ENCODING 207
SWIDTH 300 0
DWIDTH 10 0
BBX 10 27 0 0
BITMAP
7380
F3C0
7380
0000
0000
0000
7F80
7F80
0C00
0C00
0C00
0C00
0C00
0C00
0C00
0C00
0C00
0C00
0C00
0C00
0C00
0C00
0C00
0C00
0C00
7F80
7F80
ENDCHAR
STARTCHAR 00D0
ENCODING 208
SWIDTH 630 0
DWIDTH 21 0
BBX 18 21 2 0
BITMAP
FFF000
FFFC00
381E00
380700
380300
380380
380180
380180
380180
FF80C0
FF80C0
380180
380180
380180
380180
380300
380700
380E00
387C00
FFF800
FFE000
ENDCHAR
STARTCHAR 00D1
ENCODING 209
SWIDTH 600 0
DWIDTH 20 0
BBX 17 27 2 1
BITMAP
1F0C00
1BD800
30F800
000000
000000
000000
E00380
E00380
F00380
F80380
DC0380
DC0380
CE0380
C70380
C70380
C38380
C1C380
C1C380
C0E380
C07380
C03B80
C03B80
C01F80
C00F80
C00F80
C00780
C00380
ENDCHAR
STARTCHAR 00D2
ENCODING 210
SWIDTH 630 0
DWIDTH 21 0
BBX 18 28 2 0
BITMAP
070000
038000
018000
00C000
004000
000000
03E000
0FF800
1FFC00
3C1E00
780700
700700
E00380
E00380
C00180
C00180
C001C0
C001C0
C00180
C00180
E00180
E00380
600300
700700
380E00
1E3E00
0FFC00
07F000
ENDCHAR
STARTCHAR 00D3
ENCODING 211
SWIDTH 630 0
DWIDTH 21 0
BBX 18 28 2 0
BITMAP
007000
00E000
00C000
018000
010000
000000
03E000
0FF800
1FFC00
3C1E00
780700
700700
E00380
E00380
C00180
C00180
C001C0
C001C0
C00180
C00180
E00180
E00380
600300
700700
380E00
1E3E00
0FFC00
07F000
ENDCHAR
STARTCHAR 00D4
ENCODING 212
SWIDTH 630 0
DWIDTH 21 0
BBX 18 28 2 0
BITMAP
01C000
03E000
032000
061000
040000
000000
03E000
0FF800
1FFC00
3C1E00
780700
700700
E00380
E00380
C00180
C00180
C001C0
C001C0
C00180
C00180
E00180
E00380
600300
700700
380E00
1E3E00
0FFC00
07F000
ENDCHAR
STARTCHAR 00D5
ENCODING 213
SWIDTH 630 0
DWIDTH 21 0
BBX 18 28 2 0
BITMAP
040000
0F8400
19EC00
107800
000000
000000
03E000
0FF800
1FFC00
3C1E00
780700
700700
E00380
E00380
C00180
C00180
C001C0
C001C0
C00180
C00180
E00180
E00380
600300
700700
380E00
1E3E00
0FFC00
07F000
ENDCHAR
STARTCHAR 00D6
ENCODING 214
SWIDTH 630 0
DWIDTH 21 0
BBX 18 27 2 0
BITMAP
0E3800
0F3800
0E3800
000000
000000
03E000
0FF800
1FFC00
3C1E00
780700
700700
E00380
E00380
C00180
C00180
C001C0
C001C0
C00180
C00180
E00180
E00380
600300
700700
380E00
1E3E00
0FFC00
07F000
ENDCHAR
STARTCHAR 00D7
ENCODING 215
SWIDTH 510 0
DWIDTH 17 0
BBX 12 12 3 5
BITMAP
4020
E070
F0E0
79C0
3F80
1F00
0F00
1F80
3BC0
71E0
E0F0
4060
ENDCHAR
STARTCHAR 00D8
ENCODING 216
SWIDTH 630 0
DWIDTH 21 0
BBX 18 24 2 -1
BITMAP
000100
03C1C0
0FFB80
1FFF00
3C1F00
780F00
701F00
E03B80
E03B80
C07180
C0E180
C0E1C0
C1C1C0
C38180
C38180
E70180
EE0380
7C0300
7C0700
380E00
7E3E00
7FFC00
E7F000
C00000
ENDCHAR
STARTCHAR 00D9
ENCODING 217
SWIDTH 570 0
DWIDTH 19 0
BBX 16 28 2 0
BITMAP
0E00
0300
0300
0080
0000
0000
0000
C007
C007
C007
C007
C007
C007
C007
C007
C007
C007
C007
C007
C007
C007
C007
E007
E00E
701E
3C3C
1FF8
0FE0
ENDCHAR
STARTCHAR 00DA
ENCODING 218
SWIDTH 570 0
DWIDTH 19 0
BBX 16 28 2 0
BITMAP
00E0
00C0
0180
0100
0200
0000
0000
C007
C007
C007
C007
C007
C007
C007
C007
C007
C007
C007
C007
C007
C007
C007
E007
E00E
701E
3C3C
1FF8
0FE0
ENDCHAR
STARTCHAR 00DB
ENCODING 219
SWIDTH 570 0
DWIDTH 19 0
BBX 16 28 2 0
BITMAP
03C0
07C0
0660
0C20
0810
0000
0000
C007
C007
C007
C007
C007
C007
C007
C007
C007
C007
C007
C007
C007
C007
C007
E007
E00E
701E
3C3C
1FF8
0FE0
ENDCHAR
STARTCHAR 00DC
ENCODING 220
SWIDTH 570 0
DWIDTH 19 0
BBX 16 27 2 0
BITMAP
1E70
1E70
0C70
0000
0000
0000
C007
C007
C007
C007
C007
C007
C007
C007
C007
C007
C007
C007
C007
C007
C007
E007
E00E
701E
3C3C
1FF8
0FE0
ENDCHAR
STARTCHAR 00DD
ENCODING 221
SWIDTH 630 0
DWIDTH 21 0
BBX 17 28 2 0
BITMAP
007000
00E000
00C000
018000
010000
000000
000000
E00380
700700
380700
380E00
1C1C00
0E3800
073800
077000
03E000
01E000
01C000
01C000
01C000
01C000
01C000
01C000
01C000
01C000
01C000
01C000
01C000
ENDCHAR
STARTCHAR 00DE
ENCODING 222
SWIDTH 480 0
DWIDTH 16 0
BBX 12 21 2 0
BITMAP
C000
C000
C000
C000
C000
FFC0
FFE0
C0F0
C070
C030
C030
C030
C070
FFE0
FFE0
FF80
C000
C000
C000
C000
C000
ENDCHAR
STARTCHAR 00DF
ENCODING 223
SWIDTH 480 0
DWIDTH 16 0
BBX 13 29 2 -7
BITMAP
0E00
3F80
7FC0
E0E0
C0E0
C060
C060
C0E0
C0E0
C3C0
C3C0
C3E0
C0F0
C070
C038
C038
C038
C030
C070
C8F0
CFE0
DF80
C000
C000
C000
C000
C000
C000
4000
ENDCHAR
STARTCHAR 00E0
ENCODING 224
SWIDTH 390 0
DWIDTH 13 0
BBX 10 21 2 0
BITMAP
7800
1800
0C00
0400
0000
0000
3F00
7F80
33C0
01C0
01C0
01C0
3FC0
7FC0
F3C0
C1C0
C1C0
C1C0
E3C0
7FC0
3FC0
ENDCHAR
STARTCHAR 00E1
ENCODING 225
SWIDTH 390 0
DWIDTH 13 0
BBX 10 21 2 0
BITMAP
0700
0E00
0C00
1800
0000
0000
3F00
7F80
33C0
01C0
01C0
01C0
3FC0
7FC0
F3C0
C1C0
C1C0
C1C0
E3C0
7FC0
3FC0
ENDCHAR
STARTCHAR 00E2
ENCODING 226
SWIDTH 390 0
DWIDTH 13 0
BBX 10 21 2 0
BITMAP
1E00
3600
2300
4100
0000
0000
3F00
7F80
33C0
01C0
01C0
01C0
3FC0
7FC0
F3C0
C1C0
C1C0
C1C0
E3C0
7FC0
3FC0
ENDCHAR
STARTCHAR 00E3
ENCODING 227
SWIDTH 390 0
DWIDTH 13 0
BBX 11 21 2 0
BITMAP
7060
FC60
8FC0
83C0
0000
0000
3F00
7F80
33C0
01C0
01C0
01C0
3FC0
7FC0
F3C0
C1C0
C1C0
C1C0
E3C0
7FC0
3FC0
ENDCHAR
STARTCHAR 00E4
ENCODING 228
SWIDTH 390 0
DWIDTH 13 0
BBX 10 21 2 0
BITMAP
6300
F380
F380
6100
0000
0000
3F00
7F80
33C0
01C0
01C0
01C0
3FC0
7FC0
F3C0
C1C0
C1C0
C1C0
E3C0
7FC0
3FC0
ENDCHAR
STARTCHAR 00E5
ENCODING 229
SWIDTH 390 0
DWIDTH 13 0
BBX 10 22 2 0
BITMAP
0E00
1F00
3300
3300
1F00
0C00
0000
3F00
7F80
33C0
01C0
01C0
01C0
3FC0
7FC0
F3C0
C1C0
C1C0
C1C0
E3C0
7FC0
3FC0
ENDCHAR
STARTCHAR 00E6
ENCODING 230
SWIDTH 720 0
DWIDTH 24 0
BBX 20 15 2 0
BITMAP
3F1F80
7FBFC0
33F9E0
01E070
01E070
01FFF0
3FFFF0
7FFFF0
F3C000
C1C000
C1E040
C1E070
E3F0E0
7FBFC0
3F1F80
ENDCHAR
STARTCHAR 00E7
ENCODING 231
SWIDTH 450 0
DWIDTH 15 0
BBX 12 22 2 -7
BITMAP
1F80
3FC0
78E0
6070
E060
C000
C000
C000
C000
C000
E020
E070
78E0
3FC0
1F80
0600
0700
0380
00C0
0080
1F80
0E00
ENDCHAR
STARTCHAR 00E8
ENCODING 232
SWIDTH 480 0
DWIDTH 16 0
BBX 13 21 2 0
BITMAP
1C00
0E00
0600
0300
0000
0000
1F80
3FC0
78E0
6070
E070
FFF0
FFF8
FFF8
C000
C000
E020
E070
78E0
3FC0
1F80
ENDCHAR
STARTCHAR 00E9
ENCODING 233
SWIDTH 480 0
DWIDTH 16 0
BBX 13 21 2 0
BITMAP
0380
0300
0600
0400
0000
0000
1F80
3FC0
78E0
6070
E070
FFF0
FFF8
FFF8
C000
C000
E020
E070
78E0
3FC0
1F80
ENDCHAR
STARTCHAR 00EA
ENCODING 234
SWIDTH 480 0
DWIDTH 16 0
BBX 13 21 2 0
BITMAP
0F00
0D80
1880
3040
0000
0000
1F80
3FC0
78E0
6070
E070
FFF0
FFF8
FFF8
C000
C000
E020
E070
78E0
3FC0
1F80
ENDCHAR
STARTCHAR 00EB
ENCODING 235
SWIDTH 480 0
DWIDTH 16 0
BBX 13 21 2 0
BITMAP
30C0
39E0
39E0
10C0
0000
0000
1F80
3FC0
78E0
6070
E070
FFF0
FFF8
FFF8
C000
C000
E020
E070
78E0
3FC0
1F80
ENDCHAR
STARTCHAR 00EC
ENCODING 236
SWIDTH 150 0
DWIDTH 5 0
BBX 4 21 0 0
BITMAP
E0
60
30
10
00
00
30
30
30
30
30
30
30
30
30
30
30
30
30
30
30
ENDCHAR
STARTCHAR 00ED
ENCODING 237
SWIDTH 150 0
DWIDTH 5 0
BBX 5 21 1 0
BITMAP
38
70
60
C0
00
00
60
60
60
60
60
60
60
60
60
60
60
60
60
60
60
ENDCHAR
STARTCHAR 00EE
ENCODING 238
SWIDTH 150 0
DWIDTH 5 0
BBX 8 21 -1 0
BITMAP
3C
6C
46
83
00
00
18
18
18
18
18
18
18
18
18
18
18
18
18
18
18
ENDCHAR
STARTCHAR 00EF
ENCODING 239
SWIDTH 150 0
DWIDTH 5 0
BBX 9 21 -2 0
BITMAP
6180
F380
F380
6100
0000
0000
0C00
0C00
0C00
0C00
0C00
0C00
0C00
0C00
0C00
0C00
0C00
0C00
0C00
0C00
0C00
ENDCHAR
STARTCHAR 00F0
ENCODING 240
SWIDTH 480 0
DWIDTH 16 0
BBX 14 22 2 0
BITMAP
0F08
1FD8
0FFC
01F0
03F0
03B0
0038
1FB8
3FD8
78F8
6078
E038
C038
C038
C038
C038
C038
E030
E070
78E0
3FC0
1F80
ENDCHAR
STARTCHAR 00F1
ENCODING 241
SWIDTH 480 0
DWIDTH 16 0
BBX 13 21 2 0
BITMAP
3830
7E30
47E0
C1C0
0000
0000
CFC0
FFE0
F8E0
F070
E030
C030
C038
C038
C038
C038
C038
C038
C038
C038
C038
ENDCHAR
STARTCHAR 00F2
ENCODING 242
SWIDTH 480 0
DWIDTH 16 0
BBX 13 21 2 0
BITMAP
1C00
0E00
0600
0300
0000
0000
1F80
3FC0
78E0
6070
E030
C030
C038
C038
C038
C030
E030
E070
78E0
3FC0
1F80
ENDCHAR
STARTCHAR 00F3
ENCODING 243
SWIDTH 480 0
DWIDTH 16 0
BBX 13 21 2 0
BITMAP
0380
0300
0600
0400
0000
0000
1F80
3FC0
78E0
6070
E030
C030
C038
C038
C038
C030
E030
E070
78E0
3FC0
1F80
ENDCHAR
STARTCHAR 00F4
ENCODING 244
SWIDTH 480 0
DWIDTH 16 0
BBX 13 21 2 0
BITMAP
0F00
0D80
1880
3040
0000
0000
1F80
3FC0
78E0
6070
E030
C030
C038
C038
C038
C030
E030
E070
78E0
3FC0
1F80
ENDCHAR
STARTCHAR 00F5
ENCODING 245
SWIDTH 480 0
DWIDTH 16 0
BBX 13 21 2 0
BITMAP
3830
7E30
47E0
C1C0
0000
0000
1F80
3FC0
78E0
6070
E030
C030
C038
C038
C038
C030
E030
E070
78E0
3FC0
1F80
ENDCHAR
STARTCHAR 00F6
ENCODING 246
SWIDTH 480 0
DWIDTH 16 0
BBX 13 21 2 0
BITMAP
30C0
39E0
39E0
10C0
0000
0000
1F80
3FC0
78E0
6070
E030
C030
C038
C038
C038
C030
E030
E070
78E0
3FC0
1F80
ENDCHAR
STARTCHAR 00F7
ENCODING 247
SWIDTH 510 0
DWIDTH 17 0
BBX 14 13 2 4
BITMAP
0380
0780
0300
0000
0000
FFFC
FFFC
0000
0000
0300
0780
0780
0300
ENDCHAR
STARTCHAR 00F8
ENCODING 248
SWIDTH 480 0
DWIDTH 16 0
BBX 14 19 1 -2
BITMAP
0008
001C
0FDC
1FF8
3C70
30F8
70F8
61D8
639C
639C
671C
6E18
7E18
3C38
3C70
7FE0
7FC0
E000
4000
ENDCHAR
STARTCHAR 00F9
ENCODING 249
SWIDTH 480 0
DWIDTH 16 0
BBX 13 21 2 0
BITMAP
1C00
0E00
0600
0300
0000
0000
C038
C038
C038
C038
C038
C038
C038
C038
C038
C038
E078
E0F8
71F8
7FF8
1FB8
ENDCHAR
STARTCHAR 00FA
ENCODING 250
SWIDTH 480 0
DWIDTH 16 0
BBX 13 21 2 0
BITMAP
0380
0300
0600
0400
0000
0000
C038
C038
C038
C038
C038
C038
C038
C038
C038
C038
E078
E0F8
71F8
7FF8
1FB8
ENDCHAR
STARTCHAR 00FB
ENCODING 251
SWIDTH 480 0
DWIDTH 16 0
BBX 13 21 2 0
BITMAP
0F00
0D80
1880
3040
0000
0000
C038
C038
C038
C038
C038
C038
C038
C038
C038
C038
E078
E0F8
71F8
7FF8
1FB8
ENDCHAR
STARTCHAR 00FC
ENCODING 252
SWIDTH 480 0
DWIDTH 16 0
BBX 13 21 2 0
BITMAP
30C0
39E0
39E0
10C0
0000
0000
C038
C038
C038
C038
C038
C038
C038
C038
C038
C038
E078
E0F8
71F8
7FF8
1FB8
ENDCHAR
STARTCHAR 00FD
ENCODING 253
SWIDTH 480 0
DWIDTH 16 0
BBX 13 28 2 -7
BITMAP
03C0
0300
0600
0400
0000
0000
C038
E038
6030
6070
7070
3060
38E0
38C0
19C0
1DC0
1D80
0F80
0F80
0700
0700
0700
0600
0E00
0C00
7C00
7800
E000
ENDCHAR
STARTCHAR 00FE
ENCODING 254
SWIDTH 480 0
DWIDTH 16 0
BBX 13 28 2 -7
BITMAP
C000
C000
C000
C000
C000
C000
DF80
FFC0
F8E0
E070
E030
C030
C038
C038
C038
C030
E030
E070
F8E0
FFC0
DF80
C000
C000
C000
C000
C000
C000
4000
ENDCHAR
STARTCHAR 00FF
ENCODING 255
SWIDTH 480 0
DWIDTH 16 0
BBX 13 28 2 -7
BITMAP
18C0
3CE0
3CE0
18C0
0000
0000
C038
E038
6030
6070
7070
3060
38E0
38C0
19C0
1DC0
1D80
0F80
0F80
0700
0700
0700
0600
0E00
0C00
7C00
7800
E000
ENDCHAR
STARTCHAR 0100
ENCODING 256
SWIDTH 630 0
DWIDTH 21 0
BBX 18 26 2 0
BITMAP
07F800
07F800
000000
000000
000000
01C000
01E000
03E000
03F000
037000
073000
073800
063800
0E1800
0C1C00
1C1C00
1FFC00
1FFE00
380600
380700
300700
700300
700380
600380
E00180
C001C0
ENDCHAR
STARTCHAR 0101
ENCODING 257
SWIDTH 390 0
DWIDTH 13 0
BBX 10 20 2 0
BITMAP
7F80
7F80
7F80
0000
0000
3F00
7F80
33C0
01C0
01C0
01C0
3FC0
7FC0
F3C0
C1C0
C1C0
C1C0
E3C0
7FC0
3FC0
ENDCHAR
STARTCHAR 0102
ENCODING 258
SWIDTH 630 0
DWIDTH 21 0
BBX 18 28 2 0
BITMAP
0C1800
0E1800
077800
03F000
00C000
000000
000000
01C000
01E000
03E000
03F000
037000
073000
073800
063800
0E1800
0C1C00
1C1C00
1FFC00
1FFE00
380600
380700
300700
700300
700380
600380
E00180
C001C0
ENDCHAR
STARTCHAR 0103
ENCODING 259
SWIDTH 390 0
DWIDTH 13 0
BBX 10 21 2 0
BITMAP
C180
6180
7F00
1E00
0000
0000
3F00
7F80
33C0
01C0
01C0
01C0
3FC0
7FC0
F3C0
C1C0
C1C0
C1C0
E3C0
7FC0
3FC0
ENDCHAR
STARTCHAR 0104
ENCODING 260
SWIDTH 630 0
DWIDTH 21 0
BBX 21 27 2 -6
BITMAP
01C000
01E000
03E000
03F000
037000
073000
073800
063800
0E1800
0C1C00
1C1C00
1FFC00
1FFE00
380600
380700
300700
700300
700380
600380
E00180
C001C0
000300
000300
000300
000380
0001F8
0000F0
ENDCHAR
STARTCHAR 0105
ENCODING 261
SWIDTH 390 0
DWIDTH 13 0
BBX 13 21 2 -6
BITMAP
3F00
7F80
33C0
01C0
01C0
01C0
3FC0
7FC0
F3C0
C1C0
C1C0
C1C0
E3C0
7FC0
3FC0
0100
0100
0180
01C0
01F8
0070
ENDCHAR
STARTCHAR 0106
ENCODING 262
SWIDTH 570 0
DWIDTH 19 0
BBX 16 28 2 0
BITMAP
00E0
00C0
0180
0100
0200
0000
03E0
0FF8
1FFC
3C1E
7807
7007
E000
E000
C000
C000
C000
C000
C000
C000
E000
E000
6002
7007
380E
1E3E
0FFC
07F0
ENDCHAR
STARTCHAR 0107
ENCODING 263
SWIDTH 450 0
DWIDTH 15 0
BBX 12 21 2 0
BITMAP
0380
0700
0600
0C00
0000
0000
1F80
3FC0
78E0
6070
E060
C000
C000
C000
C000
C000
E020
E070
78E0
3FC0
1F80
ENDCHAR
STARTCHAR 0108
ENCODING 264
SWIDTH 570 0
DWIDTH 19 0
BBX 16 28 2 0
BITMAP
03C0
07C0
0660
0C20
0810
0000
03E0
0FF8
1FFC
3C1E
7807
7007
E000
E000
C000
C000
C000
C000
C000
C000
E000
E000
6002
7007
380E
1E3E
0FFC
07F0
ENDCHAR
STARTCHAR 0109
ENCODING 265
SWIDTH 450 0
DWIDTH 15 0
BBX 12 21 2 0
BITMAP
0F00
1B00
1180
2080
0000
0000
1F80
3FC0
78E0
6070
E060
C000
C000
C000
C000
C000
E020
E070
78E0
3FC0
1F80
ENDCHAR
STARTCHAR 010A
ENCODING 266
SWIDTH 570 0
DWIDTH 19 0
BBX 16 27 2 0
BITMAP
0380
03C0
0380
0000
0000
03E0
0FF8
1FFC
3C1E
7807
7007
E000
E000
C000
C000
C000
C000
C000
C000
E000
E000
6002
7007
380E
1E3E
0FFC
07F0
ENDCHAR
STARTCHAR 010B
ENCODING 267
SWIDTH 450 0
DWIDTH 15 0
BBX 12 21 2 0
BITMAP
0600
0E00
0E00
0600
0000
0000
1F80
3FC0
78E0
6070
E060
C000
C000
C000
C000
C000
E020
E070
78E0
3FC0
1F80
ENDCHAR
STARTCHAR 010C
ENCODING 268
SWIDTH 570 0
DWIDTH 19 0
BBX 16 28 2 0
BITMAP
0810
0420
0660
03C0
03C0
0000
03E0
0FF8
1FFC
3C1E
7807
7007
E000
E000
C000
C000
C000
C000
C000
C000
E000
E000
6002
7007
380E
1E3E
0FFC
07F0
ENDCHAR
STARTCHAR 010D
ENCODING 269
SWIDTH 450 0
DWIDTH 15 0
BBX 12 21 2 0
BITMAP
2080
1180
1B00
0F00
0000
0000
1F80
3FC0
78E0
6070
E060
C000
C000
C000
C000
C000
E020
E070
78E0
3FC0
1F80
ENDCHAR
STARTCHAR 010E
ENCODING 270
SWIDTH 630 0
DWIDTH 21 0
BBX 18 28 2 0
BITMAP
041000
063000
036000
03E000
01C000
000000
000000
FFF000
FFFC00
381E00
380F00
380700
380380
380380
380180
380180
3801C0
3801C0
380180
380180
380180
380380
380700
380700
380E00
387C00
FFF800
FFE000
ENDCHAR
STARTCHAR 010F
ENCODING 271
SWIDTH 630 0
DWIDTH 21 0
BBX 18 22 2 0
BITMAP
000180
003BC0
003BC0
0039C0
003840
003840
003880
1FB900
3FFE00
78F800
607800
E03800
C03800
C03800
C03800
C03800
C03800
E03800
E07800
78F800
3FF800
1FB800
ENDCHAR
STARTCHAR 0110
ENCODING 272
SWIDTH 630 0
DWIDTH 21 0
BBX 18 21 2 0
BITMAP
FFF000
FFFC00
381E00
380700
380300
380380
380180
380180
380180
FF80C0
FF80C0
380180
380180
380180
380180
380300
380700
380E00
387C00
FFF800
FFE000
ENDCHAR
STARTCHAR 0111
ENCODING 273
SWIDTH 480 0
DWIDTH 16 0
BBX 15 21 2 0
BITMAP
0038
0038
01FE
01FE
0038
0038
1FB8
3FF8
78F8
6078
E038
C038
C038
C038
C038
C038
E038
E078
78F8
3FF8
1FB8
ENDCHAR
STARTCHAR 0112
ENCODING 274
SWIDTH 480 0
DWIDTH 16 0
BBX 13 26 2 0
BITMAP
3FE0
3FE0
0000
0000
0000
FFF8
FFF8
C000
C000
C000
C000
C000
C000
C000
FFE0
FFE0
C000
C000
C000
C000
C000
C000
C000
C000
FFF8
FFF8
ENDCHAR
STARTCHAR 0113
ENCODING 275
SWIDTH 480 0
DWIDTH 16 0
BBX 13 20 2 0
BITMAP
3FC0
3FC0
3FC0
0000
0000
1F80
3FC0
78E0
6070
E070
FFF0
FFF8
FFF8
C000
C000
E020
E070
78E0
3FC0
1F80
ENDCHAR
STARTCHAR 0114
ENCODING 276
SWIDTH 480 0
DWIDTH 16 0
BBX 13 28 2 0
BITMAP
3060
3060
1DC0
1F80
0200
0000
0000
FFF8
FFF8
C000
C000
C000
C000
C000
C000
C000
FFE0
FFE0
C000
C000
C000
C000
C000
C000
C000
C000
FFF8
FFF8
ENDCHAR
STARTCHAR 0115
ENCODING 277
SWIDTH 480 0
DWIDTH 16 0
BBX 13 21 2 0
BITMAP
3060
30C0
1FC0
0F00
0000
0000
1F80
3FC0
78E0
6070
E070
FFF0
FFF8
FFF8
C000
C000
E020
E070
78E0
3FC0
1F80
ENDCHAR
STARTCHAR 0116
ENCODING 278
SWIDTH 480 0
DWIDTH 16 0
BBX 13 27 2 0
BITMAP
0700
0700
0700
0000
0000
0000
FFF8
FFF8
C000
C000
C000
C000
C000
C000
C000
FFE0
FFE0
C000
C000
C000
C000
C000
C000
C000
C000
FFF8
FFF8
ENDCHAR
STARTCHAR 0117
ENCODING 279
SWIDTH 480 0
DWIDTH 16 0
BBX 13 21 2 0
BITMAP
0600
0F00
0F00
0600
0000
0000
1F80
3FC0
78E0
6070
E070
FFF0
FFF8
FFF8
C000
C000
E020
E070
78E0
3FC0
1F80
ENDCHAR
STARTCHAR 0118
ENCODING 280
SWIDTH 480 0
DWIDTH 16 0
BBX 15 27 2 -6
BITMAP
FFF8
FFF8
C000
C000
C000
C000
C000
C000
C000
FFE0
FFE0
C000
C000
C000
C000
C000
C000
C000
C000
FFF8
FFF8
0080
00C0
00C0
00E0
007E
0038
ENDCHAR
STARTCHAR 0119
ENCODING 281
SWIDTH 480 0
DWIDTH 16 0
BBX 13 21 2 -6
BITMAP
1F80
3FC0
78E0
6070
E070
FFF0
FFF8
FFF8
C000
C000
E020
E070
78E0
3FC0
1F80
0200
0600
0600
0700
03F0
01E0
ENDCHAR
STARTCHAR 011A
ENCODING 282
SWIDTH 480 0
DWIDTH 16 0
BBX 13 28 2 0
BITMAP
1040
18C0
0D80
0F80
0700
0000
0000
FFF8
FFF8
C000
C000
C000
C000
C000
C000
C000
FFE0
FFE0
C000
C000
C000
C000
C000
C000
C000
C000
FFF8
FFF8
ENDCHAR
STARTCHAR 011B
ENCODING 283
SWIDTH 480 0
DWIDTH 16 0
BBX 13 21 2 0
BITMAP
1040
1980
0F80
0F00
0000
0000
1F80
3FC0
78E0
6070
E070
FFF0
FFF8
FFF8
C000
C000
E020
E070
78E0
3FC0
1F80
ENDCHAR
STARTCHAR 011C
ENCODING 284
SWIDTH 570 0
DWIDTH 19 0
BBX 16 28 2 0
BITMAP
03C0
07C0
0660
0C20
0810
0000
03E0
0FF8
1FFC
3C1E
7807
7007
E000
E000
C000
C000
C000
C0FF
C0FF
C003
E003
E003
6003
7007
380E
1E3E
0FFC
07F0
ENDCHAR
STARTCHAR 011D
ENCODING 285
SWIDTH 480 0
DWIDTH 16 0
BBX 15 28 2 -7
BITMAP
0F00
1F80
1880
3040
0000
0000
1FCC
7FFE
F0FC
E070
C038
C038
C038
E070
79F0
7FE0
FF80
E000
F000
7FC0
0FF0
0070
0038
C038
E070
7FF0
3FE0
0F80
ENDCHAR
STARTCHAR 011E
ENCODING 286
SWIDTH 570 0
DWIDTH 19 0
BBX 16 28 2 0
BITMAP
1830
0C30
0E70
07E0
0000
0000
03E0
0FF8
1FFC
3C1E
7807
7007
E000
E000
C000
C000
C000
C0FF
C0FF
C003
E003
E003
6003
7007
380E
1E3E
0FFC
07F0
ENDCHAR
STARTCHAR 011F
ENCODING 287
SWIDTH 480 0
DWIDTH 16 0
BBX 15 28 2 -7
BITMAP
30E0
30C0
1FC0
0F00
0000
0000
1FCC
7FFE
F0FC
E070
C038
C038
C038
E070
79F0
7FE0
FF80
E000
F000
7FC0
0FF0
0070
0038
C038
E070
7FF0
3FE0
0F80
ENDCHAR
STARTCHAR 0120
ENCODING 288
SWIDTH 570 0
DWIDTH 19 0
BBX 16 27 2 0
BITMAP
0380
03C0
0380
0000
0000
03E0
0FF8
1FFC
3C1E
7807
7007
E000
E000
C000
C000
C000
C0FF
C0FF
C003
E003
E003
6003
7007
380E
1E3E
0FFC
07F0
ENDCHAR
STARTCHAR 0121
ENCODING 289
SWIDTH 480 0
DWIDTH 16 0
BBX 15 28 2 -7
BITMAP
0600
0F00
0F00
0600
0000
0000
1FCC
7FFE
F0FC
E070
C038
C038
C038
E070
79F0
7FE0
FF80
E000
F000
7FC0
0FF0
0070
0038
C038
E070
7FF0
3FE0
0F80
ENDCHAR
STARTCHAR 0122
ENCODING 290
SWIDTH 570 0
DWIDTH 19 0
BBX 16 29 2 -7
BITMAP
03E0
0FF8
1FFC
3C1E
7807
7007
E000
E000
C000
C000
C000
C0FF
C0FF
C003
E003
E003
6003
7007
380E
1E3E
0FFC
07F0
0180
01C0
00E0
0030
0030
03E0
03C0
ENDCHAR
STARTCHAR 0123
ENCODING 291
SWIDTH 480 0
DWIDTH 16 0
BBX 15 30 2 -7
BITMAP
0F80
1C80
1800
1800
0F00
0300
0600
0000
1FCC
7FFE
F0FC
E070
C038
C038
C038
E070
79F0
7FE0
FF80
E000
F000
7FC0
0FF0
0070
0038
C038
E070
7FF0
3FE0
0F80
ENDCHAR
STARTCHAR 0124
ENCODING 292
SWIDTH 480 0
DWIDTH 16 0
BBX 13 28 2 0
BITMAP
0700
0F80
0D80
10C0
0040
0000
0000
C018
C018
C018
C018
C018
C018
C018
C018
C018
FFF8
FFF8
C018
C018
C018
C018
C018
C018
C018
C018
C018
C018
ENDCHAR
STARTCHAR 0125
ENCODING 293
SWIDTH 480 0
DWIDTH 16 0
BBX 13 28 2 0
BITMAP
0F00
0F00
1980
1080
2040
0000
0000
C000
C000
C000
C000
C000
C000
CFC0
FFE0
F8E0
F070
E030
C030
C038
C038
C038
C038
C038
C038
C038
C038
C038
ENDCHAR
STARTCHAR 0126
ENCODING 294
SWIDTH 630 0
DWIDTH 21 0
BBX 18 21 2 0
BITMAP
380700
380700
380700
FFFFC0
FFFFC0
380700
380700
380700
380700
3FFF00
3FFF00
380700
380700
380700
380700
380700
380700
380700
380700
380700
380700
ENDCHAR
STARTCHAR 0127
ENCODING 295
SWIDTH 540 0
DWIDTH 18 0
BBX 15 21 2 0
BITMAP
3800
3800
FFF8
FFF8
3800
3800
3BF0
3FF8
3E3C
3C1C
380E
380E
3806
3806
3806
3806
3806
3806
3806
3806
3806
ENDCHAR
STARTCHAR 0128
ENCODING 296
SWIDTH 300 0
DWIDTH 10 0
BBX 11 28 0 0
BITMAP
2000
F860
DEE0
87C0
0000
0000
0000
3F80
3F80
0E00
0E00
0E00
0E00
0E00
0E00
0E00
0E00
0E00
0E00
0E00
0E00
0E00
0E00
0E00
0E00
0E00
3F80
3F80
ENDCHAR
STARTCHAR 0129
ENCODING 297
SWIDTH 150 0
DWIDTH 5 0
BBX 12 21 -3 0
BITMAP
7830
7E20
C7E0
C1C0
0000
0000
0600
0600
0600
0600
0600
0600
0600
0600
0600
0600
0600
0600
0600
0600
0600
ENDCHAR
STARTCHAR 012A
ENCODING 298
SWIDTH 300 0
DWIDTH 10 0
BBX 8 26 1 0
BITMAP
FF
FF
00
00
00
7F
7F
1C
1C
1C
1C
1C
1C
1C
1C
1C
1C
1C
1C
1C
1C
1C
1C
1C
7F
7F
ENDCHAR
STARTCHAR 012B
ENCODING 299
SWIDTH 150 0
DWIDTH 5 0
BBX 8 20 -1 0
BITMAP
FF
FF
FF
00
00
18
18
18
18
18
18
18
18
18
18
18
18
18
18
18
ENDCHAR
STARTCHAR 012C
ENCODING 300
SWIDTH 300 0
DWIDTH 10 0
BBX 9 28 1 0
BITMAP
C180
C380
F700
7E00
1800
0000
0000
7F00
7F00
1C00
1C00
1C00
1C00
1C00
1C00
1C00
1C00
1C00
1C00
1C00
1C00
1C00
1C00
1C00
1C00
1C00
7F00
7F00
ENDCHAR
STARTCHAR 012D
ENCODING 301
SWIDTH 150 0
DWIDTH 5 0
BBX 9 21 -2 0
BITMAP
C180
6180
7F00
1E00
0000
0000
0C00
0C00
0C00
0C00
0C00
0C00
0C00
0C00
0C00
0C00
0C00
0C00
0C00
0C00
0C00
ENDCHAR
STARTCHAR 012E
ENCODING 302
SWIDTH 300 0
DWIDTH 10 0
BBX 9 27 2 -6
BITMAP
FE00
FE00
3800
3800
3800
3800
3800
3800
3800
3800
3800
3800
3800
3800
3800
3800
3800
3800
3800
FE00
FE00
1000
3000
3000
3800
1F80
0F00
ENDCHAR
STARTCHAR 012F
ENCODING 303
SWIDTH 150 0
DWIDTH 5 0
BBX 7 27 1 -6
BITMAP
60
F0
F0
60
00
00
60
60
60
60
60
60
60
60
60
60
60
60
60
60
60
40
40
60
70
7E
3C
ENDCHAR
STARTCHAR 0130
ENCODING 304
SWIDTH 300 0
DWIDTH 10 0
BBX 7 27 2 0
BITMAP
38
38
38
00
00
00
FE
FE
38
38
38
38
38
38
38
38
38
38
38
38
38
38
38
38
38
FE
FE
ENDCHAR
STARTCHAR 0131
ENCODING 305
SWIDTH 150 0
DWIDTH 5 0
BBX 2 15 2 0
BITMAP
C0
C0
C0
C0
C0
C0
C0
C0
C0
C0
C0
C0
C0
C0
C0
ENDCHAR
STARTCHAR 0132
ENCODING 306
SWIDTH 630 0
DWIDTH 21 0
BBX 18 21 2 0
BITMAP
FE01C0
FE01C0
3801C0
3801C0
3801C0
3801C0
3801C0
3801C0
3801C0
3801C0
3801C0
3801C0
3801C0
3801C0
3801C0
3801C0
3801C0
38E180
387380
FE7F80
FE3F00
ENDCHAR
STARTCHAR 0133
ENCODING 307
SWIDTH 330 0
DWIDTH 11 0
BBX 9 28 1 -7
BITMAP
6180
F380
F380
6100
0000
0000
6380
6380
6380
6380
6380
6380
6380
6380
6380
6380
6380
6380
6380
6380
6380
0380
0380
0380
0380
3F00
7E00
3C00
ENDCHAR
STARTCHAR 0134
ENCODING 308
SWIDTH 360 0
DWIDTH 12 0
BBX 11 28 2 0
BITMAP
0380
07C0
04C0
0860
0020
0000
0000
0380
0380
0380
0380
0380
0380
0380
0380
0380
0380
0380
0380
0380
0380
0380
0380
0380
C380
E700
7F00
3E00
ENDCHAR
STARTCHAR 0135
ENCODING 309
SWIDTH 150 0
DWIDTH 5 0
BBX 9 28 -3 -7
BITMAP
0F00
1B00
1180
2080
0000
0000
0600
0600
0600
0600
0600
0600
0600
0600
0600
0600
0600
0600
0600
0600
0600
0600
0600
0600
0E00
7C00
FC00
7000
ENDCHAR
STARTCHAR 0136
ENCODING 310
SWIDTH 540 0
DWIDTH 18 0
BBX 14 28 2 -7
BITMAP
C070
C0E0
C0E0
C1C0
C380
C380
C700
CE00
DE00
DC00
FE00
F700
F700
E380
C1C0
C0E0
C0E0
C070
C038
C038
C01C
0600
0700
0380
0080
0180
1F80
0E00
ENDCHAR
STARTCHAR 0137
ENCODING 311
SWIDTH 420 0
DWIDTH 14 0
BBX 11 28 2 -7
BITMAP
C000
C000
C000
C000
C000
C000
C380
C700
C700
CE00
DC00
DC00
F800
FC00
FC00
EE00
C700
C380
C380
C1C0
C0E0
0800
1E00
0700
0300
0300
3E00
3C00
ENDCHAR
STARTCHAR 0138
ENCODING 312
SWIDTH 420 0
DWIDTH 14 0
BBX 11 15 2 0
BITMAP
C380
C700
C700
CE00
DC00
DC00
F800
FC00
FC00
EE00
C700
C380
C380
C1C0
C0E0
ENDCHAR
STARTCHAR 0139
ENCODING 313
SWIDTH 480 0
DWIDTH 16 0
BBX 13 28 2 0
BITMAP
01C0
0380
0300
0600
0400
0000
0000
C000
C000
C000
C000
C000
C000
C000
C000
C000
C000
C000
C000
C000
C000
C000
C000
C000
C000
C000
FFF8
FFF8
ENDCHAR
STARTCHAR 013A
ENCODING 314
SWIDTH 240 0
DWIDTH 8 0
BBX 5 28 2 0
BITMAP
38
70
60
C0
80
00
00
C0
C0
C0
C0
C0
C0
C0
C0
C0
C0
C0
C0
C0
C0
C0
C0
C0
C0
C0
F8
F8
ENDCHAR
STARTCHAR 013B
ENCODING 315
SWIDTH 480 0
DWIDTH 16 0
BBX 13 28 2 -7
BITMAP
C000
C000
C000
C000
C000
C000
C000
C000
C000
C000
C000
C000
C000
C000
C000
C000
C000
C000
C000
FFF8
FFF8
0200
0780
01C0
00C0
00C0
0F80
0F00
ENDCHAR
STARTCHAR 013C
ENCODING 316
SWIDTH 240 0
DWIDTH 8 0
BBX 6 28 1 -7
BITMAP
60
60
60
60
60
60
60
60
60
60
60
60
60
60
60
60
60
60
60
7C
7C
30
38
1C
04
0C
FC
F0
ENDCHAR
STARTCHAR 013D
ENCODING 317
SWIDTH 480 0
DWIDTH 16 0
BBX 13 22 2 0
BITMAP
0600
CF00
CF80
C780
C180
C100
C100
C200
CC00
C000
C000
C000
C000
C000
C000
C000
C000
C000
C000
C000
FFF8
FFF8
ENDCHAR
STARTCHAR 013E
ENCODING 318
SWIDTH 240 0
DWIDTH 8 0
BBX 8 22 2 0
BITMAP
0C
CE
CF
CF
C1
C3
C2
C4
D8
C0
C0
C0
C0
C0
C0
C0
C0
C0
C0
C0
F8
F8
ENDCHAR
STARTCHAR 013F
ENCODING 319
SWIDTH 480 0
DWIDTH 16 0
BBX 13 21 2 0
BITMAP
C000
C000
C000
C000
C000
C000
C000
C000
C100
C380
C780
C300
C000
C000
C000
C000
C000
C000
C000
FFF8
FFF8
ENDCHAR
STARTCHAR 0140
ENCODING 320
SWIDTH 330 0
DWIDTH 11 0
BBX 8 21 2 0
BITMAP
C0
C0
C0
C0
C0
C0
C0
C0
C0
C7
C7
C7
C0
C0
C0
C0
C0
C0
C0
F8
F8
ENDCHAR
STARTCHAR 0141
ENCODING 321
SWIDTH 600 0
DWIDTH 20 0
BBX 17 21 2 0
BITMAP
180000
180000
180000
180000
180000
180000
180000
188000
1F8000
1F8000
FE0000
F80000
D80000
180000
180000
180000
180000
180000
180000
1FFF80
1FFF80
ENDCHAR
STARTCHAR 0142
ENCODING 322
SWIDTH 360 0
DWIDTH 12 0
BBX 9 21 2 0
BITMAP
1800
1800
1800
1800
1800
1800
1800
1880
1F80
1F80
FE00
F800
D800
1800
1800
1800
1800
1800
1800
1F00
0F00
ENDCHAR
STARTCHAR 0143
ENCODING 323
SWIDTH 600 0
DWIDTH 20 0
BBX 17 28 2 0
BITMAP
00E000
00C000
018000
010000
020000
000000
000000
E00380
E00380
F00380
F80380
DC0380
DC0380
CE0380
C70380
C70380
C38380
C1C380
C1C380
C0E380
C07380
C03B80
C03B80
C01F80
C00F80
C00F80
C00780
C00380
ENDCHAR
STARTCHAR 0144
ENCODING 324
SWIDTH 480 0
DWIDTH 16 0
BBX 13 21 2 0
BITMAP
0380
0300
0600
0400
0000
0000
CFC0
FFE0
F8E0
F070
E030
C030
C038
C038
C038
C038
C038
C038
C038
C038
C038
ENDCHAR
STARTCHAR 0145
ENCODING 325
SWIDTH 600 0
DWIDTH 20 0
BBX 17 28 2 -7
BITMAP
E00380
E00380
F00380
F80380
DC0380
DC0380
CE0380
C70380
C70380
C38380
C1C380
C1C380
C0E380
C07380
C03B80
C03B80
C01F80
C00F80
C00F80
C00780
C00380
018000
03C000
00E000
002000
006000
07E000
038000
ENDCHAR
STARTCHAR 0146
ENCODING 326
SWIDTH 480 0
DWIDTH 16 0
BBX 13 22 2 -7
BITMAP
CFC0
FFE0
F8E0
F070
E030
C030
C038
C038
C038
C038
C038
C038
C038
C038
C038
0600
0700
0B80
00C0
0080
1F80
0E00
ENDCHAR
STARTCHAR 0147
ENCODING 327
SWIDTH 600 0
DWIDTH 20 0
BBX 17 28 2 0
BITMAP
081000
042000
066000
03C000
03C000
000000
000000
E00380
E00380
F00380
F80380
DC0380
DC0380
CE0380
C70380
C70380
C38380
C1C380
C1C380
C0E380
C07380
C03B80
C03B80
C01F80
C00F80
C00F80
C00780
C00380
ENDCHAR
STARTCHAR 0148
ENCODING 328
SWIDTH 480 0
DWIDTH 16 0
BBX 13 21 2 0
BITMAP
1040
1980
0F80
0F00
0000
0000
CFC0
FFE0
F8E0
F070
E030
C030
C038
C038
C038
C038
C038
C038
C038
C038
C038
ENDCHAR
STARTCHAR 0149
ENCODING 329
SWIDTH 570 0
DWIDTH 19 0
BBX 17 22 1 0
BITMAP
600000
700000
780000
780000
080000
180000
100000
2CFC00
8FFE00
0FCF00
0F0700
0E0300
0E0380
0C0380
0C0380
0C0380
0C0380
0C0380
0C0380
0C0380
0C0380
0C0380
ENDCHAR
STARTCHAR 014A
ENCODING 330
SWIDTH 540 0
DWIDTH 18 0
BBX 15 22 2 0
BITMAP
03C0
CFF0
DFF8
F83C
F01C
F00E
E00E
E00E
C006
C006
C006
C006
C006
C006
C006
C006
C006
C006
C00E
C00E
C0FC
C0F8
ENDCHAR
STARTCHAR 014B
ENCODING 331
SWIDTH 480 0
DWIDTH 16 0
BBX 13 22 2 -7
BITMAP
CFC0
FFE0
F8E0
F070
E030
C030
C038
C038
C038
C038
C038
C038
C038
C038
C038
0038
0038
0038
0030
03F0
07E0
03C0
ENDCHAR
STARTCHAR 014C
ENCODING 332
SWIDTH 630 0
DWIDTH 21 0
BBX 18 26 2 0
BITMAP
0FF800
0FF800
000000
000000
03E000
0FF800
1FFC00
3C1E00
780700
700700
E00380
E00380
C00180
C00180
C001C0
C001C0
C00180
C00180
E00180
E00380
600300
700700
380E00
1E3E00
0FFC00
07F000
ENDCHAR
STARTCHAR 014D
ENCODING 333
SWIDTH 480 0
DWIDTH 16 0
BBX 13 20 2 0
BITMAP
3FC0
3FC0
3FC0
0000
0000
1F80
3FC0
78E0
6070
E030
C030
C038
C038
C038
C030
E030
E070
78E0
3FC0
1F80
ENDCHAR
STARTCHAR 014E
ENCODING 334
SWIDTH 630 0
DWIDTH 21 0
BBX 18 28 2 0
BITMAP
0C1800
0C1800
077000
03E000
008000
000000
03E000
0FF800
1FFC00
3C1E00
780700
700700
E00380
E00380
C00180
C00180
C001C0
C001C0
C00180
C00180
E00180
E00380
600300
700700
380E00
1E3E00
0FFC00
07F000
ENDCHAR
STARTCHAR 014F
ENCODING 335
SWIDTH 480 0
DWIDTH 16 0
BBX 13 21 2 0
BITMAP
3060
30C0
1FC0
0F00
0000
0000
1F80
3FC0
78E0
6070
E030
C030
C038
C038
C038
C030
E030
E070
78E0
3FC0
1F80
ENDCHAR
STARTCHAR 0150
ENCODING 336
SWIDTH 630 0
DWIDTH 21 0
BBX 18 28 2 0
BITMAP
01CE00
018C00
031800
021000
042000
000000
03E000
0FF800
1FFC00
3C1E00
780700
700700
E00380
E00380
C00180
C00180
C001C0
C001C0
C00180
C00180
E00180
E00380
600300
700700
380E00
1E3E00
0FFC00
07F000
ENDCHAR
STARTCHAR 0151
ENCODING 337
SWIDTH 480 0
DWIDTH 16 0
BBX 13 21 2 0
BITMAP
0F78
0C60
18C0
1080
0000
0000
1F80
3FC0
78E0
6070
E030
C030
C038
C038
C038
C030
E030
E070
78E0
3FC0
1F80
ENDCHAR
STARTCHAR 0152
ENCODING 338
SWIDTH 960 0
DWIDTH 32 0
BBX 29 22 2 0
BITMAP
03E00000
0FF9FFF8
1FFDFFF8
3C1FC000
7807C000
7007C000
E003C000
E003C000
C001C000
C001C000
C001FFE0
C001FFE0
C001C000
C001C000
E001C000
E003C000
6003C000
7007C000
380FC000
1E3FC000
0FFDFFF8
07F1FFF8
ENDCHAR
STARTCHAR 0153
ENCODING 339
SWIDTH 780 0
DWIDTH 26 0
BBX 23 15 2 0
BITMAP
1F83F0
3FC7F8
78EE3C
607C1C
E0380E
C03FFE
C03FFE
C03FFE
C03800
C03800
E03808
E07C1C
78EE3C
3FC7F8
1F83F0
ENDCHAR
STARTCHAR 0154
ENCODING 340
SWIDTH 510 0
DWIDTH 17 0
BBX 14 28 2 0
BITMAP
0180
0300
0600
0400
0800
0000
0000
FFC0
FFE0
C0F0
C070
C030
C030
C030
C070
C0F0
FFE0
FFC0
FF80
C180
C1C0
C0E0
C0E0
C070
C070
C038
C018
C01C
ENDCHAR
STARTCHAR 0155
ENCODING 341
SWIDTH 330 0
DWIDTH 11 0
BBX 8 21 2 0
BITMAP
0E
18
10
20
00
00
DF
FE
F8
F0
E0
C0
C0
C0
C0
C0
C0
C0
C0
C0
C0
ENDCHAR
STARTCHAR 0156
ENCODING 342
SWIDTH 480 0
DWIDTH 16 0
BBX 14 28 2 -7
BITMAP
FFC0
FFE0
C0F0
C070
C030
C030
C030
C070
C0F0
FFE0
FFC0
FF80
C180
C1C0
C0E0
C0E0
C070
C070
C038
C018
C01C
0600
0700
0B80
00C0
0080
1F80
0E00
ENDCHAR
STARTCHAR 0157
ENCODING 343
SWIDTH 330 0
DWIDTH 11 0
BBX 10 22 0 -7
BITMAP
37C0
3F80
3E00
3C00
3800
3000
3000
3000
3000
3000
3000
3000
3000
3000
3000
3000
7800
1C00
0400
0C00
FC00
F000
ENDCHAR
STARTCHAR 0158
ENCODING 344
SWIDTH 510 0
DWIDTH 17 0
BBX 14 28 2 0
BITMAP
2040
1080
1980
0F00
0F00
0000
0000
FFC0
FFE0
C0F0
C070
C030
C030
C030
C070
C0F0
FFE0
FFC0
FF80
C180
C1C0
C0E0
C0E0
C070
C070
C038
C018
C01C
ENDCHAR
STARTCHAR 0159
ENCODING 345
SWIDTH 330 0
DWIDTH 11 0
BBX 8 21 2 0
BITMAP
82
46
6C
3C
00
00
DF
FE
F8
F0
E0
C0
C0
C0
C0
C0
C0
C0
C0
C0
C0
ENDCHAR
STARTCHAR 015A
ENCODING 346
SWIDTH 480 0
DWIDTH 16 0
BBX 13 28 2 0
BITMAP
0180
0300
0600
0400
0800
0000
0F00
3FC0
7FE0
70E0
6070
E070
E000
6000
7800
3C00
1F00
07C0
01E0
00F0
0030
0038
C038
C038
E070
70F0
3FE0
1F80
ENDCHAR
STARTCHAR 015B
ENCODING 347
SWIDTH 390 0
DWIDTH 13 0
BBX 9 21 2 0
BITMAP
0700
0C00
0800
1000
0000
0000
3E00
7F00
E380
E180
E000
F000
7C00
1F00
0780
0180
C180
C180
E380
7F00
3E00
ENDCHAR
STARTCHAR 015C
ENCODING 348
SWIDTH 480 0
DWIDTH 16 0
BBX 13 28 2 0
BITMAP
0F00
0F80
1980
10C0
2040
0000
0F00
3FC0
7FE0
70E0
6070
E070
E000
6000
7800
3C00
1F00
07C0
01E0
00F0
0030
0038
C038
C038
E070
70F0
3FE0
1F80
ENDCHAR
STARTCHAR 015D
ENCODING 349
SWIDTH 390 0
DWIDTH 13 0
BBX 9 21 2 0
BITMAP
3E00
3600
6300
4100
0000
0000
3E00
7F00
E380
E180
E000
F000
7C00
1F00
0780
0180
C180
C180
E380
7F00
3E00
ENDCHAR
STARTCHAR 015E
ENCODING 350
SWIDTH 480 0
DWIDTH 16 0
BBX 13 29 2 -7
BITMAP
0F00
3FC0
7FE0
70E0
6070
E070
E000
6000
7800
3C00
1F00
07C0
01E0
00F0
0030
0038
C038
C038
E070
70F0
3FE0
1F80
0600
0700
0380
0080
0180
1F80
0E00
ENDCHAR
STARTCHAR 015F
ENCODING 351
SWIDTH 390 0
DWIDTH 13 0
BBX 9 22 2 -7
BITMAP
3E00
7F00
F780
E380
E000
F000
7C00
1F00
0780
0180
C180
C180
E380
7F00
3E00
1800
1C00
0E00
0300
0300
3E00
3C00
ENDCHAR
STARTCHAR 0160
ENCODING 352
SWIDTH 480 0
DWIDTH 16 0
BBX 13 28 2 0
BITMAP
2040
1080
1980
0F00
0F00
0000
0F00
3FC0
7FE0
70E0
6070
E070
E000
6000
7800
3C00
1F00
07C0
01E0
00F0
0030
0038
C038
C038
E070
70F0
3FE0
1F80
ENDCHAR
STARTCHAR 0161
ENCODING 353
SWIDTH 390 0
DWIDTH 13 0
BBX 9 21 2 0
BITMAP
4100
6300
3600
3E00
0000
0000
3E00
7F00
E380
E180
E000
F000
7C00
1F00
0780
0180
C180
C180
E380
7F00
3E00
ENDCHAR
STARTCHAR 0162
ENCODING 354
SWIDTH 480 0
DWIDTH 16 0
BBX 13 28 2 -7
BITMAP
FFF8
FFF8
0700
0700
0700
0700
0700
0700
0700
0700
0700
0700
0700
0700
0700
0700
0700
0700
0700
0700
0700
0600
0780
03C0
00C0
00C0
0F80
0F00
ENDCHAR
STARTCHAR 0163
ENCODING 355
SWIDTH 330 0
DWIDTH 11 0
BBX 8 25 2 -7
BITMAP
18
18
18
FF
FF
18
18
18
18
18
18
18
18
18
18
18
1E
1E
18
1C
0E
03
03
3E
3C
ENDCHAR
STARTCHAR 0164
ENCODING 356
SWIDTH 480 0
DWIDTH 16 0
BBX 13 28 2 0
BITMAP
1040
18C0
0D80
0F80
0700
0000
0000
FFF8
FFF8
0700
0700
0700
0700
0700
0700
0700
0700
0700
0700
0700
0700
0700
0700
0700
0700
0700
0700
0700
ENDCHAR
STARTCHAR 0165
ENCODING 357
SWIDTH 480 0
DWIDTH 16 0
BBX 13 22 2 0
BITMAP
0060
0070
00F8
0878
1808
1818
1810
FF20
FFC0
1800
1800
1800
1800
1800
1800
1800
1800
1800
1800
1800
1E00
1E00
ENDCHAR
STARTCHAR 0166
ENCODING 358
SWIDTH 480 0
DWIDTH 16 0
BBX 13 21 2 0
BITMAP
FFF8
FFF8
0700
0700
0700
0700
0700
0700
0700
7FF0
7FF0
0700
0700
0700
0700
0700
0700
0700
0700
0700
0700
ENDCHAR
STARTCHAR 0167
ENCODING 359
SWIDTH 330 0
DWIDTH 11 0
BBX 8 18 2 0
BITMAP
18
18
18
FF
FF
18
18
18
18
FF
FF
FF
18
18
18
18
1E
1E
ENDCHAR
STARTCHAR 0168
ENCODING 360
SWIDTH 570 0
DWIDTH 19 0
BBX 16 28 2 0
BITMAP
0800
1F08
33D8
30F8
0000
0000
0000
C007
C007
C007
C007
C007
C007
C007
C007
C007
C007
C007
C007
C007
C007
C007
E007
E00E
701E
3C3C
1FF8
0FE0
ENDCHAR
STARTCHAR 0169
ENCODING 361
SWIDTH 480 0
DWIDTH 16 0
BBX 13 21 2 0
BITMAP
3830
7E30
47E0
C1C0
0000
0000
C038
C038
C038
C038
C038
C038
C038
C038
C038
C038
E078
E0F8
71F8
7FF8
1FB8
ENDCHAR
STARTCHAR 016A
ENCODING 362
SWIDTH 570 0
DWIDTH 19 0
BBX 16 26 2 0
BITMAP
0FF0
0FF0
0000
0000
0000
C007
C007
C007
C007
C007
C007
C007
C007
C007
C007
C007
C007
C007
C007
C007
E007
E00E
701E
3C3C
1FF8
0FE0
ENDCHAR
STARTCHAR 016B
ENCODING 363
SWIDTH 480 0
DWIDTH 16 0
BBX 13 20 2 0
BITMAP
3FC0
3FC0
3FC0
0000
0000
C038
C038
C038
C038
C038
C038
C038
C038
C038
C038
E078
E0F8
71F8
7FF8
1FB8
ENDCHAR
STARTCHAR 016C
ENCODING 364
SWIDTH 570 0
DWIDTH 19 0
BBX 16 28 2 0
BITMAP
1830
1C30
0EF0
07E0
0180
0000
0000
C007
C007
C007
C007
C007
C007
C007
C007
C007
C007
C007
C007
C007
C007
C007
E007
E00E
701E
3C3C
1FF8
0FE0
ENDCHAR
STARTCHAR 016D
ENCODING 365
SWIDTH 480 0
DWIDTH 16 0
BBX 13 21 2 0
BITMAP
3060
30C0
1FC0
0F00
0000
0000
C038
C038
C038
C038
C038
C038
C038
C038
C038
C038
E078
E0F8
71F8
7FF8
1FB8
ENDCHAR
STARTCHAR 016E
ENCODING 366
SWIDTH 570 0
DWIDTH 19 0
BBX 16 28 2 0
BITMAP
03C0
06C0
0660
06C0
03C0
0000
0000
C007
C007
C007
C007
C007
C007
C007
C007
C007
C007
C007
C007
C007
C007
C007
E007
E00E
701E
3C3C
1FF8
0FE0
ENDCHAR
STARTCHAR 016F
ENCODING 367
SWIDTH 480 0
DWIDTH 16 0
BBX 13 22 2 0
BITMAP
0700
0F80
1980
1980
0F80
0600
0000
C038
C038
C038
C038
C038
C038
C038
C038
C038
C038
E078
E0F8
71F8
7FF8
1FB8
ENDCHAR
STARTCHAR 0170
ENCODING 368
SWIDTH 570 0
DWIDTH 19 0
BBX 16 28 2 0
BITMAP
039C
0318
0630
0420
0840
0000
0000
C007
C007
C007
C007
C007
C007
C007
C007
C007
C007
C007
C007
C007
C007
C007
E007
E00E
701E
3C3C
1FF8
0FE0
ENDCHAR
STARTCHAR 0171
ENCODING 369
SWIDTH 480 0
DWIDTH 16 0
BBX 13 21 2 0
BITMAP
0F78
0C60
18C0
1080
0000
0000
C038
C038
C038
C038
C038
C038
C038
C038
C038
C038
E078
E0F8
71F8
7FF8
1FB8
ENDCHAR
STARTCHAR 0172
ENCODING 370
SWIDTH 570 0
DWIDTH 19 0
BBX 16 27 2 -6
BITMAP
C007
C007
C007
C007
C007
C007
C007
C007
C007
C007
C007
C007
C007
C007
C007
E007
E00E
701E
3C3C
1FF8
0FE0
0100
0100
0180
01C0
01FC
0070
ENDCHAR
STARTCHAR 0173
ENCODING 371
SWIDTH 480 0
DWIDTH 16 0
BBX 16 21 2 -6
BITMAP
C038
C038
C038
C038
C038
C038
C038
C038
C038
C038
E078
E0F8
71F8
7FF8
1FB8
0040
0060
0060
0070
003F
001E
ENDCHAR
STARTCHAR 0174
ENCODING 372
SWIDTH 840 0
DWIDTH 28 0
BBX 25 28 2 0
BITMAP
001C0000
003E0000
00260000
00430000
00810000
00000000
00000000
C01C0380
E01C0380
E03C0300
603E0300
603E0700
70360700
70770600
30770600
38630E00
38E30E00
18E38C00
18C39C00
1CC19C00
1DC19800
0DC1D800
0D81F800
0F80F800
0F80F000
0780F000
0700F000
07007000
ENDCHAR
STARTCHAR 0175
ENCODING 373
SWIDTH 630 0
DWIDTH 21 0
BBX 18 21 2 0
BITMAP
01E000
037000
023000
041800
000000
000000
C0C0C0
E1E1C0
E1E1C0
61E180
63E380
73F380
737380
333300
373700
3F3F00
3E3E00
1E1E00
1E1E00
1E1E00
1C0C00
ENDCHAR
STARTCHAR 0176
ENCODING 374
SWIDTH 630 0
DWIDTH 21 0
BBX 17 28 2 0
BITMAP
01C000
03E000
033000
061000
040800
000000
000000
E00380
700700
380700
380E00
1C1C00
0E3800
073800
077000
03E000
01E000
01C000
01C000
01C000
01C000
01C000
01C000
01C000
01C000
01C000
01C000
01C000
ENDCHAR
STARTCHAR 0177
ENCODING 375
SWIDTH 480 0
DWIDTH 16 0
BBX 13 28 2 -7
BITMAP
0F00
0D80
18C0
1040
0000
0000
C038
E038
6030
6070
7070
3060
38E0
38C0
19C0
1DC0
1D80
0F80
0F80
0700
0700
0700
0600
0E00
0C00
7C00
7800
E000
ENDCHAR
STARTCHAR 0178
ENCODING 376
SWIDTH 630 0
DWIDTH 21 0
BBX 17 27 2 0
BITMAP
0E3800
0F3800
0E3800
000000
000000
000000
E00380
700700
380700
380E00
1C1C00
0E3800
073800
077000
03E000
01E000
01C000
01C000
01C000
01C000
01C000
01C000
01C000
01C000
01C000
01C000
01C000
ENDCHAR
STARTCHAR 0179
ENCODING 377
SWIDTH 510 0
DWIDTH 17 0
BBX 14 28 2 0
BITMAP
01C0
0180
0300
0200
0400
0000
0000
FFFC
FFFC
001C
0038
0078
0070
00E0
01C0
01C0
0380
0700
0700
0E00
1C00
3800
3800
7000
E000
E000
FFFC
FFFC
ENDCHAR
STARTCHAR 017A
ENCODING 378
SWIDTH 390 0
DWIDTH 13 0
BBX 10 21 2 0
BITMAP
0700
0C00
0800
1000
0000
0000
FFC0
FFC0
01C0
0380
0700
0700
0E00
1C00
3800
3800
7000
E000
E000
FFC0
FFC0
ENDCHAR
STARTCHAR 017B
ENCODING 379
SWIDTH 510 0
DWIDTH 17 0
BBX 14 27 2 0
BITMAP
0700
0780
0300
0000
0000
0000
FFFC
FFFC
001C
0038
0078
0070
00E0
01C0
01C0
0380
0700
0700
0E00
1C00
3800
3800
7000
E000
E000
FFFC
FFFC
ENDCHAR
STARTCHAR 017C
ENCODING 380
SWIDTH 390 0
DWIDTH 13 0
BBX 10 21 2 0
BITMAP
0C00
1C00
1C00
0C00
0000
0000
FFC0
FFC0
01C0
0380
0700
0700
0E00
1C00
3800
3800
7000
E000
E000
FFC0
FFC0
ENDCHAR
STARTCHAR 017D
ENCODING 381
SWIDTH 510 0
DWIDTH 17 0
BBX 14 28 2 0
BITMAP
1020
0840
0CC0
0780
0780
0000
0000
FFFC
FFFC
001C
0038
0078
0070
00E0
01C0
01C0
0380
0700
0700
0E00
1C00
3800
3800
7000
E000
E000
FFFC
FFFC
ENDCHAR
STARTCHAR 017E
ENCODING 382
SWIDTH 390 0
DWIDTH 13 0
BBX 10 21 2 0
BITMAP
4100
2300
3600
1E00
0000
0000
FFC0
FFC0
01C0
0380
0700
0700
0E00
1C00
3800
3800
7000
E000
E000
FFC0
FFC0
ENDCHAR
STARTCHAR 017F
ENCODING 383
SWIDTH 150 0
DWIDTH 5 0
BBX 7 29 2 -7
BITMAP
1C
7E
FC
C0
C0
C0
C0
C0
C0
C0
C0
C0
C0
C0
C0
C0
C0
C0
C0
C0
C0
C0
C0
C0
C0
C0
C0
C0
40
ENDCHAR
STARTCHAR 0180
ENCODING 384
SWIDTH 480 0
DWIDTH 16 0
BBX 16 21 -1 0
BITMAP
1800
1800
FF00
FF00
1800
1800
1BF0
1FF8
1F1C
1C0E
1C06
1806
1807
1807
1807
1806
1C06
1C0E
1F1C
1FF8
1BF0
ENDCHAR
STARTCHAR 0181
ENCODING 385
SWIDTH 690 0
DWIDTH 23 0
BBX 20 21 2 0
BITMAP
7FFF80
FFFFC0
E381C0
C380E0
C380E0
E38060
8380E0
0381E0
03FFC0
03FF80
03FFC0
0380E0
038060
038070
038070
038070
038070
0380E0
0383E0
03FFC0
03FF00
ENDCHAR
STARTCHAR 0182
ENCODING 386
SWIDTH 480 0
DWIDTH 16 0
BBX 13 21 2 0
BITMAP
FFE0
FFE0
C000
C000
C000
C000
C000
C000
FF00
FFE0
FFF0
C070
C038
C018
C018
C018
C038
C038
C1F0
FFE0
FF80
ENDCHAR
STARTCHAR 0183
ENCODING 387
SWIDTH 480 0
DWIDTH 16 0
BBX 13 21 2 0
BITMAP
FFE0
FFE0
C000
C000
C000
C000
DF80
FFC0
F8E0
E070
E030
C030
C038
C038
C038
C030
E030
E070
F8E0
FFC0
DF80
ENDCHAR
STARTCHAR 0184
ENCODING 388
SWIDTH 660 0
DWIDTH 22 0
BBX 19 21 2 0
BITMAP
0F0000
1F0000
3F0000
7F0000
F70000
E70000
470000
070000
07FC00
07FF00
07FF80
0701C0
0700E0
0700E0
070060
070060
0700E0
0701C0
0707C0
07FF80
07FE00
ENDCHAR
STARTCHAR 0185
ENCODING 389
SWIDTH 510 0
DWIDTH 17 0
BBX 14 15 2 0
BITMAP
1C00
3C00
7C00
FC00
EC00
4C00
0FF0
0FF8
0C38
0C18
0C1C
0C18
0C78
0FF0
0FE0
ENDCHAR
STARTCHAR 0186
ENCODING 390
SWIDTH 570 0
DWIDTH 19 0
BBX 16 22 2 0
BITMAP
0780
1FE0
3FF8
703C
E01C
C00E
0006
0007
0007
0003
0003
0003
0003
0007
0007
0006
400E
E00E
F01C
7878
3FF0
0FE0
ENDCHAR
STARTCHAR 0187
ENCODING 391
SWIDTH 570 0
DWIDTH 19 0
BBX 21 27 2 0
BITMAP
0000F0
0001F8
0003D0
000300
000300
03C300
0FFB00
1FFF00
3C1F00
780700
700700
E00000
E00000
C00000
C00000
C00000
C00000
C00000
C00000
E00000
E00000
600200
700700
380E00
1E3E00
0FFC00
07F000
ENDCHAR
STARTCHAR 0188
ENCODING 392
SWIDTH 450 0
DWIDTH 15 0
BBX 17 21 2 0
BITMAP
001F80
003F00
003800
007000
007000
007000
1FF000
3FF000
78F000
607000
E06000
C00000
C00000
C00000
C00000
C00000
E02000
E07000
78E000
3FC000
1F8000
ENDCHAR
STARTCHAR 0189
ENCODING 393
SWIDTH 630 0
DWIDTH 21 0
BBX 18 21 2 0
BITMAP
FFF000
FFFC00
381E00
380700
380300
380380
380180
380180
380180
FF80C0
FF80C0
380180
380180
380180
380180
380300
380700
380E00
387C00
FFF800
FFE000
ENDCHAR
STARTCHAR 018A
ENCODING 394
SWIDTH 750 0
DWIDTH 25 0
BBX 22 21 2 0
BITMAP
7FFF00
FFFFC0
E381E0
C380F0
C38070
E38038
838038
038018
038018
03801C
03801C
03801C
038018
038018
038038
038030
038070
0380E0
0387C0
0FFF80
0FFE00
ENDCHAR
STARTCHAR 018B
ENCODING 395
SWIDTH 480 0
DWIDTH 16 0
BBX 13 21 2 0
BITMAP
3FF8
3FF8
0018
0018
0018
0018
0018
0018
07F8
3FF8
7FF8
F018
E018
C018
C018
C018
E018
E018
7C18
3FF8
1FF8
ENDCHAR
STARTCHAR 018C
ENCODING 396
SWIDTH 480 0
DWIDTH 16 0
BBX 13 21 2 0
BITMAP
7FF8
7FF8
0038
0038
0038
0038
1FB8
3FF8
78F8
6078
E038
C038
C038
C038
C038
C038
E038
E078
78F8
3FF8
1FB8
ENDCHAR
STARTCHAR 018D
ENCODING 397
SWIDTH 480 0
DWIDTH 16 0
BBX 13 22 2 -7
BITMAP
1F80
3FC0
78E0
6070
E030
C030
C038
C038
C038
E030
E030
7070
3CE0
1FC0
0F80
0700
0380
0180
E380
7F00
7F00
0C00
ENDCHAR
STARTCHAR 018E
ENCODING 398
SWIDTH 480 0
DWIDTH 16 0
BBX 13 21 2 0
BITMAP
FFF8
FFF8
0018
0018
0018
0018
0018
0018
0018
3FF8
3FF8
0018
0018
0018
0018
0018
0018
0018
0018
FFF8
FFF8
ENDCHAR
STARTCHAR 018F
ENCODING 399
SWIDTH 630 0
DWIDTH 21 0
BBX 18 22 2 0
BITMAP
03E000
0FF800
1FFC00
3C1E00
180700
000700
000380
000380
000180
000180
FFFFC0
FFFFC0
C00180
C00180
E00180
E00380
600300
700700
380E00
1E3E00
0FFC00
07F000
ENDCHAR
STARTCHAR 0190
ENCODING 400
SWIDTH 480 0
DWIDTH 16 0
BBX 14 22 1 0
BITMAP
0780
1FE0
3FF0
7038
6018
601C
6000
6000
7000
3F80
1F80
3F80
7000
E000
E000
C000
C00C
E00C
E01C
7878
3FF0
1FE0
ENDCHAR
STARTCHAR 0191
ENCODING 401
SWIDTH 480 0
DWIDTH 16 0
BBX 18 28 -3 -7
BITMAP
07FFC0
07FFC0
060000
060000
060000
060000
060000
060000
060000
07FF00
07FF00
060000
060000
060000
060000
060000
060000
060000
060000
060000
060000
060000
060000
060000
0E0000
7C0000
FC0000
700000
ENDCHAR
STARTCHAR 0192
ENCODING 402
SWIDTH 300 0
DWIDTH 10 0
BBX 12 29 0 -7
BITMAP
00E0
03F0
07E0
0600
0600
0600
0600
0600
3FC0
3FC0
3FC0
0600
0600
0600
0600
0600
0600
0600
0600
0600
0600
0600
0600
0600
0600
0E00
7C00
FC00
7000
ENDCHAR
STARTCHAR 0193
ENCODING 403
SWIDTH 570 0
DWIDTH 19 0
BBX 21 27 2 0
BITMAP
0000F0
0001F8
0003D0
000300
000300
03C300
0FFB00
1FFF00
3C1F00
780700
700700
E00000
E00000
C00000
C00000
C00000
C0FF00
C0FF00
C00300
E00300
E00300
600300
700700
380E00
1E3E00
0FFC00
07F000
ENDCHAR
STARTCHAR 0194
ENCODING 404
SWIDTH 630 0
DWIDTH 21 0
BBX 18 28 2 -7
BITMAP
E001C0
E00180
600380
700300
700700
300700
380600
180E00
1C0E00
1C0C00
0C1C00
0E1C00
0E1800
063800
073000
077000
037000
03E000
01E000
01E000
01C000
01E000
03E000
03E000
037000
03F000
03E000
01C000
ENDCHAR
STARTCHAR 0195
ENCODING 405
SWIDTH 690 0
DWIDTH 23 0
BBX 20 21 2 0
BITMAP
C00000
C00000
C00000
C00000
C00000
C00000
CFC030
FFE030
F8E030
F07030
E03030
C03030
C03830
C03830
C03830
C03830
C03830
C03870
C01CF0
C01FE0
C00FC0
ENDCHAR
STARTCHAR 0196
ENCODING 406
SWIDTH 360 0
DWIDTH 12 0
BBX 9 21 2 0
BITMAP
C000
C000
C000
C000
C000
C000
C000
C000
C000
C000
C000
C000
C000
C000
C000
C000
C000
C380
E700
7F00
3E00
ENDCHAR
STARTCHAR 0197
ENCODING 407
SWIDTH 300 0
DWIDTH 10 0
BBX 7 21 2 0
BITMAP
FE
FE
38
38
38
38
38
38
38
FE
FE
38
38
38
38
38
38
38
38
FE
FE
ENDCHAR
STARTCHAR 0198
ENCODING 408
SWIDTH 540 0
DWIDTH 18 0
BBX 14 27 2 0
BITMAP
3C00
7E00
FC00
C000
C000
C000
C070
C0E0
C0E0
C1C0
C380
C380
C700
CE00
DE00
DC00
FE00
F700
F700
E380
C1C0
C0E0
C0E0
C070
C038
C038
C01C
ENDCHAR
STARTCHAR 0199
ENCODING 409
SWIDTH 420 0
DWIDTH 14 0
BBX 11 27 2 0
BITMAP
3C00
7E00
FC00
C000
C000
C000
C000
C000
C000
C000
C000
C000
C380
C700
C700
CE00
DC00
DC00
F800
FC00
FC00
EE00
C700
C380
C380
C1C0
C0E0
ENDCHAR
STARTCHAR 019A
ENCODING 410
SWIDTH 300 0
DWIDTH 10 0
BBX 7 21 2 0
BITMAP
38
38
38
38
38
38
38
38
38
FE
FE
38
38
38
38
38
38
38
38
3E
1E
ENDCHAR
STARTCHAR 019B
ENCODING 411
SWIDTH 480 0
DWIDTH 16 0
BBX 13 22 2 0
BITMAP
E000
7800
7CC0
0FC0
3F80
FE00
7600
0700
0700
0F80
0F80
1D80
1DC0
19C0
38C0
38E0
3060
7060
7070
6030
E038
C038
ENDCHAR
STARTCHAR 019C
ENCODING 412
SWIDTH 600 0
DWIDTH 20 0
BBX 17 21 2 0
BITMAP
C18380
C18380
C18380
C18380
C18380
C18380
C18380
C18380
C18380
C18380
C18380
C18380
C18380
C18380
C18380
C18380
C3C380
C3C780
E7CF80
7EFF80
3C7F80
ENDCHAR
STARTCHAR 019D
ENCODING 413
SWIDTH 600 0
DWIDTH 20 0
BBX 22 28 -3 -7
BITMAP
07001C
07001C
07801C
07C01C
06E01C
06E01C
06701C
06381C
06381C
061C1C
060E1C
060E1C
06071C
06039C
0601DC
0601DC
0600FC
06007C
06007C
06003C
06001C
060000
060000
060000
0E0000
7C0000
FC0000
700000
ENDCHAR
STARTCHAR 019E
ENCODING 414
SWIDTH 480 0
DWIDTH 16 0
BBX 13 22 2 -7
BITMAP
CFC0
FFE0
F8E0
F070
E030
C030
C038
C038
C038
C038
C038
C038
C038
C038
C038
0038
0038
0038
0038
0038
0038
0018
ENDCHAR
STARTCHAR 019F
ENCODING 415
SWIDTH 630 0
DWIDTH 21 0
BBX 18 22 2 0
BITMAP
03E000
0FF800
1FFC00
3C1E00
780700
700700
E00380
E00380
C00180
C00180
FFFFC0
FFFFC0
C00180
C00180
E00180
E00380
600300
700700
380E00
1E3E00
0FFC00
07F000
ENDCHAR
STARTCHAR 01A0
ENCODING 416
SWIDTH 690 0
DWIDTH 23 0
BBX 22 22 2 0
BITMAP
03E030
0FF878
1FFC78
3C1E3C
78070C
700708
E00398
E003B0
C001C0
C00180
C001C0
C001C0
C00180
C00180
E00180
E00380
600300
700700
380E00
1E3E00
0FFC00
07F000
ENDCHAR
STARTCHAR 01A1
ENCODING 417
SWIDTH 510 0
DWIDTH 17 0
BBX 16 18 2 1
BITMAP
000E
001F
000F
1F81
3FC3
78E2
6074
E038
C030
C038
C038
C038
C030
E030
E070
78E0
3FC0
1F80
ENDCHAR
STARTCHAR 01A2
ENCODING 418
SWIDTH 690 0
DWIDTH 23 0
BBX 20 29 2 -7
BITMAP
03E000
0FFFF0
1FFFF0
3C1E30
780630
700630
E00630
E00630
C00630
C00630
C00630
C00630
C00630
C00630
E00630
E00630
600630
700630
380E30
1E3E30
0FF830
07F030
000030
000030
000030
000030
000030
000030
000030
ENDCHAR
STARTCHAR 01A3
ENCODING 419
SWIDTH 540 0
DWIDTH 18 0
BBX 15 22 2 -7
BITMAP
1FFE
3FFE
78C6
60C6
E0C6
C0C6
C0C6
C0C6
C0C6
C0C6
E0C6
E0C6
78C6
3FC6
1F86
0006
0006
0006
0006
0006
0006
0002
ENDCHAR
STARTCHAR 01A4
ENCODING 420
SWIDTH 660 0
DWIDTH 22 0
BBX 19 21 2 0
BITMAP
7FFF00
FFFF80
E381C0
C380E0
C380E0
E38060
8380E0
0380E0
0381C0
03FFC0
03FF00
03FC00
038000
038000
038000
038000
038000
038000
038000
038000
038000
ENDCHAR
STARTCHAR 01A5
ENCODING 421
SWIDTH 480 0
DWIDTH 16 0
BBX 13 29 2 -7
BITMAP
1C00
7E00
FC00
C000
C000
C000
C000
DF80
FFC0
F8E0
E070
E030
C030
C038
C038
C038
C030
E030
E070
F8E0
FFC0
DF80
C000
C000
C000
C000
C000
C000
4000
ENDCHAR
STARTCHAR 01A6
ENCODING 422
SWIDTH 480 0
DWIDTH 16 0
BBX 13 26 2 -5
BITMAP
C000
C000
C000
C000
FE00
FFC0
FFE0
C070
C030
C030
C030
C030
C070
FFE0
FFC0
FF80
C1C0
C0C0
C0E0
C060
C070
0070
0030
0030
0038
0038
ENDCHAR
STARTCHAR 01A7
ENCODING 423
SWIDTH 480 0
DWIDTH 16 0
BBX 13 22 2 0
BITMAP
0700
1FC0
3FE0
70E0
6070
E070
0070
0070
00E0
03C0
0F80
3F00
7800
F000
E000
C000
C038
C030
E070
70F0
7FE0
1F80
ENDCHAR
STARTCHAR 01A8
ENCODING 424
SWIDTH 390 0
DWIDTH 13 0
BBX 9 15 2 0
BITMAP
3E00
7F00
F780
E380
0380
0780
1F00
7C00
F000
C000
C180
C180
E380
7F00
3E00
ENDCHAR
STARTCHAR 01A9
ENCODING 425
SWIDTH 480 0
DWIDTH 16 0
BBX 13 21 2 0
BITMAP
FFF8
FFF8
E000
7000
7000
3800
1C00
1C00
0E00
0700
0700
0700
0E00
1C00
3800
3800
7000
E000
E000
FFF8
FFF8
ENDCHAR
STARTCHAR 01AA
ENCODING 426
SWIDTH 360 0
DWIDTH 12 0
BBX 14 29 2 -7
BITMAP
1C00
7E00
FF00
C380
C380
C380
E780
7F80
3F80
0380
0380
0380
0380
0380
0380
0380
0380
0380
0380
0380
0380
0380
0380
0380
0380
0380
01F8
00FC
0078
ENDCHAR
STARTCHAR 01AB
ENCODING 427
SWIDTH 330 0
DWIDTH 11 0
BBX 8 26 2 -7
BITMAP
08
18
18
18
FF
FF
18
18
18
18
18
18
18
18
18
18
18
1E
1E
06
06
06
06
7E
FC
78
ENDCHAR
STARTCHAR 01AC
ENCODING 428
SWIDTH 570 0
DWIDTH 19 0
BBX 16 21 2 0
BITMAP
7FFF
FFFF
E0C0
C0C0
C0C0
E0C0
80C0
00C0
00C0
00C0
00C0
00C0
00C0
00C0
00C0
00C0
00C0
00C0
00C0
00C0
00C0
ENDCHAR
STARTCHAR 01AD
ENCODING 429
SWIDTH 330 0
DWIDTH 11 0
BBX 10 22 2 0
BITMAP
0380
0FC0
1F80
1800
1800
1800
1800
FF00
FF00
1800
1800
1800
1800
1800
1800
1800
1800
1800
1800
1800
1E00
1E00
ENDCHAR
STARTCHAR 01AE
ENCODING 430
SWIDTH 480 0
DWIDTH 16 0
BBX 13 28 2 -7
BITMAP
FFF8
FFF8
0700
0700
0700
0700
0700
0700
0700
0700
0700
0700
0700
0700
0700
0700
0700
0700
0700
0700
0700
0700
0700
0700
0700
03F0
01F8
00F0
ENDCHAR
STARTCHAR 01AF
ENCODING 431
SWIDTH 660 0
DWIDTH 22 0
BBX 21 22 2 0
BITMAP
000060
C007F0
C007F8
C00778
C00718
C00710
C00710
C00760
C00780
C00700
C00700
C00700
C00700
C00700
C00700
C00700
E00700
E00E00
701E00
3C3C00
1FF800
0FE000
ENDCHAR
STARTCHAR 01B0
ENCODING 432
SWIDTH 570 0
DWIDTH 19 0
BBX 17 19 2 0
BITMAP
000200
000700
000780
000780
C03880
C03880
C03900
C03B00
C03C00
C03800
C03800
C03800
C03800
C03800
E07800
E0F800
71F800
7FF800
1FB800
ENDCHAR
STARTCHAR 01B1
ENCODING 433
SWIDTH 630 0
DWIDTH 21 0
BBX 18 21 2 0
BITMAP
FE3FC0
FE3FC0
3C1E00
780700
700700
E00380
E00380
C00180
C00180
C001C0
C001C0
C00180
C00180
E00180
E00380
600380
700700
380E00
1E3E00
0FFC00
07F000
ENDCHAR
STARTCHAR 01B2
ENCODING 434
SWIDTH 570 0
DWIDTH 19 0
BBX 16 22 2 0
BITMAP
0038
E03E
E01E
6007
7003
7007
3007
3806
180E
1C0E
1C0C
0C1C
0E1C
0E18
0638
0730
0770
0370
03E0
01E0
01E0
01C0
ENDCHAR
STARTCHAR 01B3
ENCODING 435
SWIDTH 630 0
DWIDTH 21 0
BBX 22 22 2 0
BITMAP
0000E0
E003F0
7007F8
38071C
380E00
1C1C00
0E3800
073800
077000
03E000
01E000
01C000
01C000
01C000
01C000
01C000
01C000
01C000
01C000
01C000
01C000
01C000
ENDCHAR
STARTCHAR 01B4
ENCODING 436
SWIDTH 630 0
DWIDTH 21 0
BBX 17 22 2 -7
BITMAP
C01F00
E03F80
603980
607000
706000
30E000
38E000
38C000
19C000
1DC000
1D8000
0F8000
0F8000
070000
070000
060000
0E0000
0E0000
0C0000
7C0000
780000
E00000
ENDCHAR
STARTCHAR 01B5
ENCODING 437
SWIDTH 510 0
DWIDTH 17 0
BBX 14 21 2 0
BITMAP
FFFC
FFFC
001C
0038
0070
0070
00E0
01C0
01C0
7FF8
7FF8
0700
0E00
1C00
3800
3800
7000
E000
E000
FFFC
FFFC
ENDCHAR
STARTCHAR 01B6
ENCODING 438
SWIDTH 390 0
DWIDTH 13 0
BBX 10 15 2 0
BITMAP
FFC0
FFC0
01C0
0380
0700
0700
7F80
7F80
7F80
3800
7000
E000
E000
FFC0
FFC0
ENDCHAR
STARTCHAR 01B7
ENCODING 439
SWIDTH 510 0
DWIDTH 17 0
BBX 14 21 2 0
BITMAP
FFFC
FFFC
001C
0038
0078
0070
00E0
01C0
01E0
03F0
0038
001C
001C
000C
000C
C00C
E01C
E038
7878
3FF0
1FE0
ENDCHAR
STARTCHAR 01B8
ENCODING 440
SWIDTH 510 0
DWIDTH 17 0
BBX 14 21 2 0
BITMAP
FFFC
FFFC
E000
7000
7000
3800
1C00
0E00
1E00
3F00
7000
E000
C000
C000
C000
C00C
E01C
E03C
7878
3FF0
1FE0
ENDCHAR
STARTCHAR 01B9
ENCODING 441
SWIDTH 420 0
DWIDTH 14 0
BBX 11 22 2 -7
BITMAP
FFE0
FFE0
E000
E000
7000
3800
3800
1C00
3E00
7E00
7000
E000
C000
C000
C000
C000
C000
E000
70C0
7FE0
3FC0
0F00
ENDCHAR
STARTCHAR 01BA
ENCODING 442
SWIDTH 390 0
DWIDTH 13 0
BBX 10 22 2 -7
BITMAP
FFC0
FFC0
01C0
0380
0700
0700
0E00
1F00
3F80
0380
0180
0380
0F00
3E00
7800
E000
C000
C1C0
E180
FF80
7F00
1E00
ENDCHAR
STARTCHAR 01BB
ENCODING 443
SWIDTH 420 0
DWIDTH 14 0
BBX 11 22 2 0
BITMAP
1E00
3F80
7FC0
E0E0
C0E0
C060
0060
00E0
00E0
01C0
FFE0
FFE0
0E00
3C00
3800
7000
E000
E000
C000
C000
FFE0
FFE0
ENDCHAR
STARTCHAR 01BC
ENCODING 444
SWIDTH 450 0
DWIDTH 15 0
BBX 12 21 2 0
BITMAP
FFE0
FFE0
6000
6000
6000
E000
FF00
FFC0
F1C0
E0E0
4060
0070
0070
0070
0070
0070
4060
E0E0
F1C0
7FC0
3F00
ENDCHAR
STARTCHAR 01BD
ENCODING 445
SWIDTH 390 0
DWIDTH 13 0
BBX 9 15 2 0
BITMAP
FF80
FF80
7000
6000
7E00
7F00
F780
6380
0180
0180
C180
E180
6380
7F00
3E00
ENDCHAR
STARTCHAR 01BE
ENCODING 446
SWIDTH 450 0
DWIDTH 15 0
BBX 12 19 2 0
BITMAP
0800
1800
1800
1800
FF00
FF00
1800
1800
1800
1E00
0F80
07E0
00E0
0070
3870
3870
1CE0
1FE0
0FC0
ENDCHAR
STARTCHAR 01BF
ENCODING 447
SWIDTH 420 0
DWIDTH 14 0
BBX 11 22 2 -7
BITMAP
FF00
FFC0
F1C0
E0E0
C0E0
C060
C0E0
C0E0
C1C0
C3C0
C780
CF00
DE00
F800
F000
E000
E000
C000
C000
C000
C000
4000
ENDCHAR
STARTCHAR 01C0
ENCODING 448
SWIDTH 150 0
DWIDTH 5 0
BBX 2 28 2 -7
BITMAP
C0
C0
C0
C0
C0
C0
C0
C0
C0
C0
C0
C0
C0
C0
C0
C0
C0
C0
C0
C0
C0
C0
C0
C0
C0
C0
C0
40
ENDCHAR
STARTCHAR 01C1
ENCODING 449
SWIDTH 300 0
DWIDTH 10 0
BBX 7 28 2 -7
BITMAP
CE
CE
CE
CE
CE
CE
CE
CE
CE
CE
CE
CE
CE
CE
CE
CE
CE
CE
CE
CE
CE
CE
CE
CE
CE
CE
CE
42
ENDCHAR
STARTCHAR 01C2
ENCODING 450
SWIDTH 420 0
DWIDTH 14 0
BBX 11 21 2 0
BITMAP
0E00
0E00
0E00
0E00
0E00
0E00
FFE0
FFE0
FFE0
0E00
0E00
0E00
FFE0
FFE0
0E00
0E00
0E00
0E00
0E00
0E00
0E00
ENDCHAR
STARTCHAR 01C3
ENCODING 451
SWIDTH 150 0
DWIDTH 5 0
BBX 4 21 1 0
BITMAP
60
60
60
60
60
60
60
60
60
60
60
60
60
60
00
00
00
00
E0
F0
E0
ENDCHAR
STARTCHAR 01C4
ENCODING 452
SWIDTH 1170 0
DWIDTH 39 0
BBX 35 28 2 0
BITMAP
0000008100
0000004200
0000006600
0000003C00
0000003C00
0000000000
0000000000
FFF007FFE0
FFFC07FFE0
381E0000E0
380F0001C0
38070001C0
3803800380
3803800700
3801800700
3801800E00
3801C01C00
3801C03800
3801803800
3801807000
380180E000
380380E000
380701C000
3807038000
380E038000
387C070000
FFF807FFE0
FFE007FFE0
ENDCHAR
STARTCHAR 01C5
ENCODING 453
SWIDTH 1020 0
DWIDTH 34 0
BBX 31 21 2 0
BITMAP
FFF00208
FFFC0118
381E01B0
380F00F0
38070000
38038000
380387FE
380187FE
3801800E
3801C01C
3801C038
38018038
38018070
380180E0
380380E0
380701C0
38070380
380E0380
387C0700
FFF807FE
FFE007FE
ENDCHAR
STARTCHAR 01C6
ENCODING 454
SWIDTH 870 0
DWIDTH 29 0
BBX 26 21 2 0
BITMAP
00386180
00383300
00383F00
00381E00
00380000
00380000
1FB8FFC0
3FF8FFC0
78F801C0
60780380
E0380380
C0380700
C0380E00
C0381C00
C0381C00
C0383800
E0387000
E0787000
78F8E000
3FF8FFC0
1FB8FFC0
ENDCHAR
STARTCHAR 01C7
ENCODING 455
SWIDTH 870 0
DWIDTH 29 0
BBX 26 21 2 0
BITMAP
C00001C0
C00001C0
C00001C0
C00001C0
C00001C0
C00001C0
C00001C0
C00001C0
C00001C0
C00001C0
C00001C0
C00001C0
C00001C0
C00001C0
C00001C0
C00001C0
C00001C0
C00061C0
C0007380
FFF87F80
FFF83F00
ENDCHAR
STARTCHAR 01C8
ENCODING 456
SWIDTH 690 0
DWIDTH 23 0
BBX 20 28 2 -7
BITMAP
C00060
C000F0
C000F0
C00060
C00000
C00000
C00060
C00060
C00060
C00060
C00060
C00060
C00060
C00060
C00060
C00060
C00060
C00060
C00060
FFF860
FFF860
000060
000060
000060
0000E0
0007E0
000FC0
000780
ENDCHAR
STARTCHAR 01C9
ENCODING 457
SWIDTH 420 0
DWIDTH 14 0
BBX 11 28 2 -7
BITMAP
C0C0
C1E0
C1E0
C0C0
C000
C000
C0C0
C0C0
C0C0
C0C0
C0C0
C0C0
C0C0
C0C0
C0C0
C0C0
C0C0
C0C0
C0C0
F8C0
F8C0
00C0
00C0
00C0
01C0
0FC0
1F80
0E00
ENDCHAR
STARTCHAR 01CA
ENCODING 458
SWIDTH 960 0
DWIDTH 32 0
BBX 29 21 2 0
BITMAP
E0038018
E0038018
F0038018
F8038018
DC038018
DC038018
CE038018
C7038018
C7038018
C3838018
C1C38018
C1C38018
C0E38018
C0738018
C03B8018
C03B8018
C01F8018
C00F8C38
C00F8E38
C00787F0
C00383E0
ENDCHAR
STARTCHAR 01CB
ENCODING 459
SWIDTH 780 0
DWIDTH 26 0
BBX 23 28 2 -7
BITMAP
E0038C
E0038E
F0038E
F80384
DC0380
DC0380
CE038E
C7038E
C7038E
C3838E
C1C38E
C1C38E
C0E38E
C0738E
C03B8E
C03B8E
C01F8E
C00F8E
C00F8E
C0078E
C0038E
00000E
00000E
00000E
00000E
0000FC
0001F8
0000F0
ENDCHAR
STARTCHAR 01CC
ENCODING 460
SWIDTH 660 0
DWIDTH 22 0
BBX 19 28 2 -7
BITMAP
0000C0
0000E0
0000E0
0000C0
000000
000000
CFC0E0
FFE0E0
F8E0E0
F070E0
E030E0
C030E0
C038E0
C038E0
C038E0
C038E0
C038E0
C038E0
C038E0
C038E0
C038E0
0000E0
0000E0
0000E0
0000C0
000FC0
001F80
000F00
ENDCHAR
STARTCHAR 01CD
ENCODING 461
SWIDTH 630 0
DWIDTH 21 0
BBX 18 28 2 0
BITMAP
040800
061000
033000
03E000
01E000
000000
000000
01C000
01E000
03E000
03F000
037000
073000
073800
063800
0E1800
0C1C00
1C1C00
1FFC00
1FFE00
380600
380700
300700
700300
700380
600380
E00180
C001C0
ENDCHAR
STARTCHAR 01CE
ENCODING 462
SWIDTH 390 0
DWIDTH 13 0
BBX 10 21 2 0
BITMAP
4100
2300
3600
1E00
0000
0000
3F00
7F80
33C0
01C0
01C0
01C0
3FC0
7FC0
F3C0
C1C0
C1C0
C1C0
E3C0
7FC0
3FC0
ENDCHAR
STARTCHAR 01CF
ENCODING 463
SWIDTH 300 0
DWIDTH 10 0
BBX 8 28 1 0
BITMAP
81
43
66
3E
1C
00
00
7F
7F
1C
1C
1C
1C
1C
1C
1C
1C
1C
1C
1C
1C
1C
1C
1C
1C
1C
7F
7F
ENDCHAR
STARTCHAR 01D0
ENCODING 464
SWIDTH 150 0
DWIDTH 5 0
BBX 7 21 -1 0
BITMAP
82
46
7C
3C
00
00
18
18
18
18
18
18
18
18
18
18
18
18
18
18
18
ENDCHAR
STARTCHAR 01D1
ENCODING 465
SWIDTH 630 0
DWIDTH 21 0
BBX 18 28 2 0
BITMAP
041000
063000
036000
03E000
01C000
000000
03E000
0FF800
1FFC00
3C1E00
780700
700700
E00380
E00380
C00180
C00180
C001C0
C001C0
C00180
C00180
E00180
E00380
600300
700700
380E00
1E3E00
0FFC00
07F000
ENDCHAR
STARTCHAR 01D2
ENCODING 466
SWIDTH 480 0
DWIDTH 16 0
BBX 13 21 2 0
BITMAP
1040
1980
0F80
0F00
0000
0000
1F80
3FC0
78E0
6070
E030
C030
C038
C038
C038
C030
E030
E070
78E0
3FC0
1F80
ENDCHAR
STARTCHAR 01D3
ENCODING 467
SWIDTH 570 0
DWIDTH 19 0
BBX 16 28 2 0
BITMAP
0810
0C20
0660
07C0
03C0
0000
0000
C007
C007
C007
C007
C007
C007
C007
C007
C007
C007
C007
C007
C007
C007
C007
E007
E00E
701E
3C3C
1FF8
0FE0
ENDCHAR
STARTCHAR 01D4
ENCODING 468
SWIDTH 480 0
DWIDTH 16 0
BBX 13 21 2 0
BITMAP
1040
1980
0F80
0F00
0000
0000
C038
C038
C038
C038
C038
C038
C038
C038
C038
C038
E078
E0F8
71F8
7FF8
1FB8
ENDCHAR
STARTCHAR 01D5
ENCODING 469
SWIDTH 570 0
DWIDTH 19 0
BBX 16 28 2 0
BITMAP
0FF0
0FF0
0000
0C70
1E70
1E70
0000
C007
C007
C007
C007
C007
C007
C007
C007
C007
C007
C007
C007
C007
C007
C007
E007
E00E
701E
3C3C
1FF8
0FE0
ENDCHAR
STARTCHAR 01D6
ENCODING 470
SWIDTH 480 0
DWIDTH 16 0
BBX 13 25 2 0
BITMAP
3FC0
3FC0
0000
0000
30C0
39E0
39E0
10C0
0000
0000
C038
C038
C038
C038
C038
C038
C038
C038
C038
C038
E078
E0F8
71F8
7FF8
1FB8
ENDCHAR
STARTCHAR 01D7
ENCODING 471
SWIDTH 570 0
DWIDTH 19 0
BBX 16 28 2 0
BITMAP
0060
00C0
0080
0760
0E60
0660
0000
C007
C007
C007
C007
C007
C007
C007
C007
C007
C007
C007
C007
C007
C007
C007
E007
E00E
701E
3C3C
1FF8
0FE0
ENDCHAR
STARTCHAR 01D8
ENCODING 472
SWIDTH 480 0
DWIDTH 16 0
BBX 13 27 2 0
BITMAP
01C0
0380
0200
0400
0800
0000
30C0
39E0
39E0
10C0
0000
0000
C038
C038
C038
C038
C038
C038
C038
C038
C038
C038
E078
E0F8
71F8
7FF8
1FB8
ENDCHAR
STARTCHAR 01D9
ENCODING 473
SWIDTH 570 0
DWIDTH 19 0
BBX 16 28 2 0
BITMAP
0420
0640
03C0
07C0
0E60
0E60
0000
C007
C007
C007
C007
C007
C007
C007
C007
C007
C007
C007
C007
C007
C007
C007
E007
E00E
701E
3C3C
1FF8
0FE0
ENDCHAR
STARTCHAR 01DA
ENCODING 474
SWIDTH 480 0
DWIDTH 16 0
BBX 13 27 2 0
BITMAP
2040
10C0
1980
0F00
0F00
0000
30C0
39E0
39E0
10C0
0000
0000
C038
C038
C038
C038
C038
C038
C038
C038
C038
C038
E078
E0F8
71F8
7FF8
1FB8
ENDCHAR
STARTCHAR 01DB
ENCODING 475
SWIDTH 570 0
DWIDTH 19 0
BBX 16 28 2 0
BITMAP
0E00
0600
0300
0F60
0E60
0660
0000
C007
C007
C007
C007
C007
C007
C007
C007
C007
C007
C007
C007
C007
C007
C007
E007
E00E
701E
3C3C
1FF8
0FE0
ENDCHAR
STARTCHAR 01DC
ENCODING 476
SWIDTH 480 0
DWIDTH 16 0
BBX 13 27 2 0
BITMAP
1C00
0C00
0600
0200
0100
0000
30C0
39E0
39E0
10C0
0000
0000
C038
C038
C038
C038
C038
C038
C038
C038
C038
C038
E078
E0F8
71F8
7FF8
1FB8
ENDCHAR
STARTCHAR 01DD
ENCODING 477
SWIDTH 480 0
DWIDTH 16 0
BBX 13 15 2 0
BITMAP
1F80
3FC0
78E0
6070
2070
0030
0038
FFF8
FFF8
FFF0
E030
E070
78E0
3FC0
1F80
ENDCHAR
STARTCHAR 01DE
ENCODING 478
SWIDTH 630 0
DWIDTH 21 0
BBX 18 28 2 0
BITMAP
07F800
07F800
000000
063800
0F3800
0F3800
000000
01C000
01E000
03E000
03F000
037000
073000
073800
063800
0E1800
0C1C00
1C1C00
1FFC00
1FFE00
380600
380700
300700
700300
700380
600380
E00180
C001C0
ENDCHAR
STARTCHAR 01DF
ENCODING 479
SWIDTH 390 0
DWIDTH 13 0
BBX 10 25 2 0
BITMAP
7F80
7F80
0000
0000
6300
F380
F380
6100
0000
0000
3F00
7F80
33C0
01C0
01C0
01C0
3FC0
7FC0
F3C0
C1C0
C1C0
C1C0
E3C0
7FC0
3FC0
ENDCHAR
STARTCHAR 01E0
ENCODING 480
SWIDTH 630 0
DWIDTH 21 0
BBX 18 28 2 0
BITMAP
07F800
07F800
00C000
01C000
01C000
00C000
000000
01C000
01E000
03E000
03F000
037000
073000
073800
063800
0E1800
0C1C00
1C1C00
1FFC00
1FFE00
380600
380700
300700
700300
700380
600380
E00180
C001C0
ENDCHAR
STARTCHAR 01E1
ENCODING 481
SWIDTH 390 0
DWIDTH 13 0
BBX 10 25 2 0
BITMAP
7F80
7F80
0000
0000
0C00
1C00
1C00
0C00
0000
0000
3F00
7F80
33C0
01C0
01C0
01C0
3FC0
7FC0
F3C0
C1C0
C1C0
C1C0
E3C0
7FC0
3FC0
ENDCHAR
STARTCHAR 01E2
ENCODING 482
SWIDTH 720 0
DWIDTH 24 0
BBX 21 26 2 0
BITMAP
007FC0
007FC0
000000
000000
000000
01FFF8
01FFF8
03B800
03B800
033800
073800
073800
063800
0E3800
0FFFE0
1FFFE0
1C3800
183800
383800
383800
303800
703800
703800
603800
E03FF8
C03FF8
ENDCHAR
STARTCHAR 01E3
ENCODING 483
SWIDTH 720 0
DWIDTH 24 0
BBX 20 20 2 0
BITMAP
03FC00
03FC00
03FC00
000000
000000
3F1F80
7FBFC0
33F9E0
01E070
01E070
01FFF0
3FFFF0
7FFFF0
F3C000
C1C000
C1E040
C1E070
E3F0E0
7FBFC0
3F1F80
ENDCHAR
STARTCHAR 01E4
ENCODING 484
SWIDTH 660 0
DWIDTH 22 0
BBX 19 22 2 0
BITMAP
03E000
0FF800
1FFC00
3C1E00
780700
700700
E00000
E00000
C00000
C00000
C00000
C0FF00
C0FF00
C00300
E00300
E01FE0
601FE0
700700
380E00
1E3E00
0FFC00
07F000
ENDCHAR
STARTCHAR 01E5
ENCODING 485
SWIDTH 480 0
DWIDTH 16 0
BBX 17 22 0 -7
BITMAP
07F300
1FFF80
3C3F00
381C00
300E00
300E00
300E00
381C00
1E7C00
1FF800
3FE000
380000
3C0000
1FF000
03FC00
001C00
FFFF80
FFFF80
381C00
1FFC00
0FF800
03E000
ENDCHAR
STARTCHAR 01E6
ENCODING 486
SWIDTH 570 0
DWIDTH 19 0
BBX 16 28 2 0
BITMAP
0810
0420
0660
03C0
03C0
0000
03E0
0FF8
1FFC
3C1E
7807
7007
E000
E000
C000
C000
C000
C0FF
C0FF
C003
E003
E003
6003
7007
380E
1E3E
0FFC
07F0
ENDCHAR
STARTCHAR 01E7
ENCODING 487
SWIDTH 480 0
DWIDTH 16 0
BBX 15 28 2 -7
BITMAP
30C0
1980
1F80
0F00
0000
0000
1FCC
7FFE
F0FC
E070
C038
C038
C038
E070
79F0
7FE0
FF80
E000
F000
7FC0
0FF0
0070
0038
C038
E070
7FF0
3FE0
0F80
ENDCHAR
STARTCHAR 01E8
ENCODING 488
SWIDTH 540 0
DWIDTH 18 0
BBX 14 28 2 0
BITMAP
1020
0840
0CC0
0780
0780
0000
0000
C070
C0E0
C0E0
C1C0
C380
C380
C700
CE00
DE00
DC00
FE00
F700
F700
E380
C1C0
C0E0
C0E0
C070
C038
C038
C01C
ENDCHAR
STARTCHAR 01E9
ENCODING 489
SWIDTH 420 0
DWIDTH 14 0
BBX 11 28 2 0
BITMAP
4080
2180
3300
1F00
1E00
0000
0000
C000
C000
C000
C000
C000
C000
C380
C700
C700
CE00
DC00
DC00
F800
FC00
FC00
EE00
C700
C380
C380
C1C0
C0E0
ENDCHAR
STARTCHAR 01EA
ENCODING 490
SWIDTH 630 0
DWIDTH 21 0
BBX 18 28 2 -6
BITMAP
03E000
0FF800
1FFC00
3C1E00
780700
700700
E00380
E00380
C00180
C00180
C001C0
C001C0
C00180
C00180
E00180
E00380
600300
700700
380E00
1E3E00
0FFC00
07F000
008000
018000
01C000
00C000
00FC00
007800
ENDCHAR
STARTCHAR 01EB
ENCODING 491
SWIDTH 480 0
DWIDTH 16 0
BBX 13 21 2 -6
BITMAP
1F80
3FC0
78E0
6070
E030
C030
C038
C038
C038
C030
E030
E070
78E0
3FC0
1F80
0600
0600
0600
0700
03F0
01E0
ENDCHAR
STARTCHAR 01EC
ENCODING 492
SWIDTH 630 0
DWIDTH 21 0
BBX 18 32 2 -6
BITMAP
0FF800
0FF800
000000
000000
03E000
0FF800
1FFC00
3C1E00
780700
700700
E00380
E00380
C00180
C00180
C001C0
C001C0
C00180
C00180
E00180
E00380
600300
700700
380E00
1E3E00
0FFC00
07F000
008000
018000
01C000
00C000
00FC00
007800
ENDCHAR
STARTCHAR 01ED
ENCODING 493
SWIDTH 480 0
DWIDTH 16 0
BBX 13 26 2 -6
BITMAP
3FC0
3FC0
3FC0
0000
0000
1F80
3FC0
78E0
6070
E030
C030
C038
C038
C038
C030
E030
E070
78E0
3FC0
1F80
0600
0600
0600
0700
03F0
01E0
ENDCHAR
STARTCHAR 01EE
ENCODING 494
SWIDTH 510 0
DWIDTH 17 0
BBX 14 28 2 0
BITMAP
1020
0840
0CC0
0780
0780
0000
0000
FFFC
FFFC
001C
0038
0078
0070
00E0
01C0
01E0
03F0
0038
001C
001C
000C
000C
C00C
E01C
E038
7878
3FF0
1FE0
ENDCHAR
STARTCHAR 01EF
ENCODING 495
SWIDTH 420 0
DWIDTH 14 0
BBX 11 28 2 -7
BITMAP
2080
3100
1B00
1E00
0000
0000
FFE0
FFE0
00E0
01C0
01C0
0380
0700
0F00
0F00
0F80
01C0
00C0
00E0
00E0
0060
00E0
00E0
00C0
41C0
FF80
7F00
1E00
ENDCHAR
STARTCHAR 01F0
ENCODING 496
SWIDTH 150 0
DWIDTH 5 0
BBX 9 28 -3 -7
BITMAP
2080
1180
1B00
0F00
0000
0000
0600
0600
0600
0600
0600
0600
0600
0600
0600
0600
0600
0600
0600
0600
0600
0600
0600
0600
0E00
7C00
FC00
7000
ENDCHAR
STARTCHAR 01F1
ENCODING 497
SWIDTH 1170 0
DWIDTH 39 0
BBX 35 21 2 0
BITMAP
FFF007FFE0
FFFC07FFE0
381E0000E0
380F0001C0
38070001C0
3803800380
3803800700
3801800700
3801800E00
3801C01C00
3801C03800
3801803800
3801807000
380180E000
380380E000
380701C000
3807038000
380E038000
387C070000
FFF807FFE0
FFE007FFE0
ENDCHAR
STARTCHAR 01F2
ENCODING 498
SWIDTH 1020 0
DWIDTH 34 0
BBX 31 21 2 0
BITMAP
FFF00000
FFFC0000
381E0000
380F0000
38070000
38038000
380387FE
380187FE
3801800E
3801C01C
3801C038
38018038
38018070
380180E0
380380E0
380701C0
38070380
380E0380
387C0700
FFF807FE
FFE007FE
ENDCHAR
STARTCHAR 01F3
ENCODING 499
SWIDTH 870 0
DWIDTH 29 0
BBX 26 21 2 0
BITMAP
00380000
00380000
00380000
00380000
00380000
00380000
1FB8FFC0
3FF8FFC0
78F801C0
60780380
E0380380
C0380700
C0380E00
C0381C00
C0381C00
C0383800
E0387000
E0787000
78F8E000
3FF8FFC0
1FB8FFC0
ENDCHAR
STARTCHAR 01F4
ENCODING 500
SWIDTH 570 0
DWIDTH 19 0
BBX 16 28 2 0
BITMAP
00E0
00C0
0180
0100
0200
0000
03E0
0FF8
1FFC
3C1E
7807
7007
E000
E000
C000
C000
C000
C0FF
C0FF
C003
E003
E003
6003
7007
380E
1E3E
0FFC
07F0
ENDCHAR
STARTCHAR 01F5
ENCODING 501
SWIDTH 480 0
DWIDTH 16 0
BBX 15 28 2 -7
BITMAP
0380
0300
0600
0400
0000
0000
1FCC
7FFE
F0FC
E070
C038
C038
C038
E070
79F0
7FE0
FF80
E000
F000
7FC0
0FF0
0070
0038
C038
E070
7FF0
3FE0
0F80
ENDCHAR
STARTCHAR 01F6
ENCODING 502
SWIDTH 810 0
DWIDTH 27 0
BBX 24 21 2 0
BITMAP
C01800
C01800
C01800
C01800
C01800
C01800
C01807
C01807
C01807
FFF807
FFF807
C01807
C01807
C01807
C01807
C01807
C01C07
C01C0E
C00F1E
C007FC
C003F8
ENDCHAR
STARTCHAR 01F7
ENCODING 503
SWIDTH 420 0
DWIDTH 14 0
BBX 11 29 2 -7
BITMAP
1E00
FF80
FFC0
E0E0
C0E0
C060
C060
C0E0
C0C0
C1C0
C380
C700
CE00
FC00
F800
F000
E000
E000
C000
C000
C000
C000
C000
C000
C000
C000
C000
C000
C000
ENDCHAR
STARTCHAR 01F8
ENCODING 504
SWIDTH 600 0
DWIDTH 20 0
BBX 17 28 2 0
BITMAP
070000
030000
018000
008000
004000
000000
000000
E00380
E00380
F00380
F80380
DC0380
DC0380
CE0380
C70380
C70380
C38380
C1C380
C1C380
C0E380
C07380
C03B80
C03B80
C01F80
C00F80
C00F80
C00780
C00380
ENDCHAR
STARTCHAR 01F9
ENCODING 505
SWIDTH 480 0
DWIDTH 16 0
BBX 13 21 2 0
BITMAP
1C00
0E00
0600
0300
0000
0000
CFC0
FFE0
F8E0
F070
E030
C030
C038
C038
C038
C038
C038
C038
C038
C038
C038
ENDCHAR
STARTCHAR 01FA
ENCODING 506
SWIDTH 630 0
DWIDTH 21 0
BBX 18 28 2 0
BITMAP
006000
00C000
008000
010000
01C000
03E000
033000
033000
01E000
03E000
03F000
037000
073000
073800
063800
0E1800
0C1C00
1C1C00
1FFC00
1FFE00
380600
380700
300700
700300
700380
600380
E00180
C001C0
ENDCHAR
STARTCHAR 01FB
ENCODING 507
SWIDTH 390 0
DWIDTH 13 0
BBX 10 27 2 0
BITMAP
0380
0700
0600
0C00
0000
0E00
1F00
3300
3300
1F00
0C00
0000
3F00
7F80
33C0
01C0
01C0
01C0
3FC0
7FC0
F3C0
C1C0
C1C0
C1C0
E3C0
7FC0
3FC0
ENDCHAR
STARTCHAR 01FC
ENCODING 508
SWIDTH 720 0
DWIDTH 24 0
BBX 21 28 2 0
BITMAP
000E00
000C00
001800
001000
002000
000000
000000
01FFF8
01FFF8
03B800
03B800
033800
073800
073800
063800
0E3800
0FFFE0
1FFFE0
1C3800
183800
383800
383800
303800
703800
703800
603800
E03FF8
C03FF8
ENDCHAR
STARTCHAR 01FD
ENCODING 509
SWIDTH 720 0
DWIDTH 24 0
BBX 20 21 2 0
BITMAP
003800
003000
006000
004000
000000
000000
3F1F80
7FBFC0
33F9E0
01E070
01E070
01FFF0
3FFFF0
7FFFF0
F3C000
C1C000
C1E040
C1E070
E3F0E0
7FBFC0
3F1F80
ENDCHAR
STARTCHAR 01FE
ENCODING 510
SWIDTH 630 0
DWIDTH 21 0
BBX 18 29 2 -1
BITMAP
007000
00E000
00C000
018000
010000
000100
03C1C0
0FFB80
1FFF00
3C1F00
780F00
701F00
E03B80
E03B80
C07180
C0E180
C0E1C0
C1C1C0
C38180
C38180
E70180
EE0380
7C0300
7C0700
380E00
7E3E00
7FFC00
E7F000
C00000
ENDCHAR
STARTCHAR 01FF
ENCODING 511
SWIDTH 480 0
DWIDTH 16 0
BBX 14 23 1 -2
BITMAP
01C0
0180
0300
0200
0008
001C
0FDC
1FF8
3C70
30F8
70F8
61D8
639C
639C
671C
6E18
7E18
3C38
3C70
7FE0
7FC0
E000
4000
ENDCHAR
STARTCHAR 0200
ENCODING 512
SWIDTH 630 0
DWIDTH 21 0
BBX 18 28 2 0
BITMAP
39C000
18C000
0C6000
042000
021000
000000
000000
01C000
01E000
03E000
03F000
037000
073000
073800
063800
0E1800
0C1C00
1C1C00
1FFC00
1FFE00
380600
380700
300700
700300
700380
600380
E00180
C001C0
ENDCHAR
STARTCHAR 0201
ENCODING 513
SWIDTH 390 0
DWIDTH 13 0
BBX 11 21 1 0
BITMAP
E700
6300
3180
1080
0000
0000
1F80
3FC0
19E0
00E0
00E0
00E0
1FE0
3FE0
79E0
60E0
60E0
60E0
71E0
3FE0
1FE0
ENDCHAR
STARTCHAR 0202
ENCODING 514
SWIDTH 630 0
DWIDTH 21 0
BBX 18 28 2 0
BITMAP
01E000
07F000
063800
0C1800
0C1800
000000
000000
01C000
01E000
03E000
03F000
037000
073000
073800
063800
0E1800
0C1C00
1C1C00
1FFC00
1FFE00
380600
380700
300700
700300
700380
600380
E00180
C001C0
ENDCHAR
STARTCHAR 0203
ENCODING 515
SWIDTH 390 0
DWIDTH 13 0
BBX 10 21 2 0
BITMAP
3F00
7F80
E180
C180
0000
0000
3F00
7F80
33C0
01C0
01C0
01C0
3FC0
7FC0
F3C0
C1C0
C1C0
C1C0
E3C0
7FC0
3FC0
ENDCHAR
STARTCHAR 0204
ENCODING 516
SWIDTH 480 0
DWIDTH 16 0
BBX 13 28 2 0
BITMAP
E700
6300
3180
1880
0840
0000
0000
FFF8
FFF8
C000
C000
C000
C000
C000
C000
C000
FFE0
FFE0
C000
C000
C000
C000
C000
C000
C000
C000
FFF8
FFF8
ENDCHAR
STARTCHAR 0205
ENCODING 517
SWIDTH 480 0
DWIDTH 16 0
BBX 13 21 2 0
BITMAP
7380
18C0
0840
0420
0000
0000
1F80
3FC0
78E0
6070
E070
FFF0
FFF8
FFF8
C000
C000
E020
E070
78E0
3FC0
1F80
ENDCHAR
STARTCHAR 0206
ENCODING 518
SWIDTH 480 0
DWIDTH 16 0
BBX 13 28 2 0
BITMAP
0F80
1FC0
38E0
3060
3060
0000
0000
FFF8
FFF8
C000
C000
C000
C000
C000
C000
C000
FFE0
FFE0
C000
C000
C000
C000
C000
C000
C000
C000
FFF8
FFF8
ENDCHAR
STARTCHAR 0207
ENCODING 519
SWIDTH 480 0
DWIDTH 16 0
BBX 13 21 2 0
BITMAP
1F80
3FC0
30C0
3060
0000
0000
1F80
3FC0
78E0
6070
E070
FFF0
FFF8
FFF8
C000
C000
E020
E070
78E0
3FC0
1F80
ENDCHAR
STARTCHAR 0208
ENCODING 520
SWIDTH 300 0
DWIDTH 10 0
BBX 10 28 -1 0
BITMAP
E700
6300
3180
1880
0840
0000
0000
1FC0
1FC0
0700
0700
0700
0700
0700
0700
0700
0700
0700
0700
0700
0700
0700
0700
0700
0700
0700
1FC0
1FC0
ENDCHAR
STARTCHAR 0209
ENCODING 521
SWIDTH 150 0
DWIDTH 5 0
BBX 10 21 -4 0
BITMAP
F700
3180
18C0
0840
0000
0000
0300
0300
0300
0300
0300
0300
0300
0300
0300
0300
0300
0300
0300
0300
0300
ENDCHAR
STARTCHAR 020A
ENCODING 522
SWIDTH 300 0
DWIDTH 10 0
BBX 9 28 1 0
BITMAP
3C00
7F00
E300
C180
C180
0000
0000
7F00
7F00
1C00
1C00
1C00
1C00
1C00
1C00
1C00
1C00
1C00
1C00
1C00
1C00
1C00
1C00
1C00
1C00
1C00
7F00
7F00
ENDCHAR
STARTCHAR 020B
ENCODING 523
SWIDTH 150 0
DWIDTH 5 0
BBX 9 21 -2 0
BITMAP
3F00
7F80
6180
C180
0000
0000
0C00
0C00
0C00
0C00
0C00
0C00
0C00
0C00
0C00
0C00
0C00
0C00
0C00
0C00
0C00
ENDCHAR
STARTCHAR 020C
ENCODING 524
SWIDTH 630 0
DWIDTH 21 0
BBX 18 28 2 0
BITMAP
39C000
18C000
0C6000
042000
021000
000000
03E000
0FF800
1FFC00
3C1E00
780700
700700
E00380
E00380
C00180
C00180
C001C0
C001C0
C00180
C00180
E00180
E00380
600300
700700
380E00
1E3E00
0FFC00
07F000
ENDCHAR
STARTCHAR 020D
ENCODING 525
SWIDTH 480 0
DWIDTH 16 0
BBX 13 21 2 0
BITMAP
E700
3380
1180
08C0
0000
0000
1F80
3FC0
78E0
6070
E030
C030
C038
C038
C038
C030
E030
E070
78E0
3FC0
1F80
ENDCHAR
STARTCHAR 020E
ENCODING 526
SWIDTH 630 0
DWIDTH 21 0
BBX 18 28 2 0
BITMAP
03E000
07F000
0E3800
0C1800
0C1800
000000
03E000
0FF800
1FFC00
3C1E00
780700
700700
E00380
E00380
C00180
C00180
C001C0
C001C0
C00180
C00180
E00180
E00380
600300
700700
380E00
1E3E00
0FFC00
07F000
ENDCHAR
STARTCHAR 020F
ENCODING 527
SWIDTH 480 0
DWIDTH 16 0
BBX 13 21 2 0
BITMAP
1F80
3FC0
30C0
3060
0000
0000
1F80
3FC0
78E0
6070
E030
C030
C038
C038
C038
C030
E030
E070
78E0
3FC0
1F80
ENDCHAR
STARTCHAR 0210
ENCODING 528
SWIDTH 510 0
DWIDTH 17 0
BBX 15 28 1 0
BITMAP
E700
7380
3180
18C0
0840
0000
0000
7FE0
7FF0
6078
6038
6018
6018
6018
6038
6078
7FF0
7FE0
7FC0
60C0
60E0
6070
6070
6038
6038
601C
600C
600E
ENDCHAR
STARTCHAR 0211
ENCODING 529
SWIDTH 330 0
DWIDTH 11 0
BBX 11 21 -1 0
BITMAP
E700
3180
1880
0840
0000
0000
1BE0
1FC0
1F00
1E00
1C00
1800
1800
1800
1800
1800
1800
1800
1800
1800
1800
ENDCHAR
STARTCHAR 0212
ENCODING 530
SWIDTH 510 0
DWIDTH 17 0
BBX 14 28 2 0
BITMAP
1E00
3F80
7180
60C0
60C0
0000
0000
FFC0
FFE0
C0F0
C070
C030
C030
C030
C070
C0F0
FFE0
FFC0
FF80
C180
C1C0
C0E0
C0E0
C070
C070
C038
C018
C01C
ENDCHAR
STARTCHAR 0213
ENCODING 531
SWIDTH 330 0
DWIDTH 11 0
BBX 9 21 1 0
BITMAP
3F00
7F00
E180
C180
0000
0000
6F80
7F00
7C00
7800
7000
6000
6000
6000
6000
6000
6000
6000
6000
6000
6000
ENDCHAR
STARTCHAR 0214
ENCODING 532
SWIDTH 570 0
DWIDTH 19 0
BBX 16 28 2 0
BITMAP
3980
18C0
0C60
0420
0210
0000
0000
C007
C007
C007
C007
C007
C007
C007
C007
C007
C007
C007
C007
C007
C007
C007
E007
E00E
701E
3C3C
1FF8
0FE0
ENDCHAR
STARTCHAR 0215
ENCODING 533
SWIDTH 480 0
DWIDTH 16 0
BBX 13 21 2 0
BITMAP
E700
3380
1180
08C0
0000
0000
C038
C038
C038
C038
C038
C038
C038
C038
C038
C038
E078
E0F8
71F8
7FF8
1FB8
ENDCHAR
STARTCHAR 0216
ENCODING 534
SWIDTH 570 0
DWIDTH 19 0
BBX 16 28 2 0
BITMAP
03C0
0FE0
0C70
1830
1830
0000
0000
C007
C007
C007
C007
C007
C007
C007
C007
C007
C007
C007
C007
C007
C007
C007
E007
E00E
701E
3C3C
1FF8
0FE0
ENDCHAR
STARTCHAR 0217
ENCODING 535
SWIDTH 480 0
DWIDTH 16 0
BBX 13 21 2 0
BITMAP
1F80
3FC0
30C0
3060
0000
0000
C038
C038
C038
C038
C038
C038
C038
C038
C038
C038
E078
E0F8
71F8
7FF8
1FB8
ENDCHAR
STARTCHAR 0218
ENCODING 536
SWIDTH 480 0
DWIDTH 16 0
BBX 13 32 2 -10
BITMAP
0F00
3FC0
7FE0
70E0
6070
E070
E000
6000
7800
3C00
1F00
07C0
01E0
00F0
0030
0038
C038
C038
E070
70F0
3FE0
1F80
0000
0000
0F00
0F00
0F80
0180
0100
0100
0200
0C00
ENDCHAR
STARTCHAR 0219
ENCODING 537
SWIDTH 390 0
DWIDTH 13 0
BBX 9 25 2 -10
BITMAP
3E00
7F00
E380
E180
E000
F000
7C00
1F00
0780
0180
C180
C180
E380
7F00
3E00
0000
0000
1C00
3E00
1E00
0200
0600
0400
0C00
1000
ENDCHAR
STARTCHAR 021A
ENCODING 538
SWIDTH 480 0
DWIDTH 16 0
BBX 13 31 2 -10
BITMAP
FFF8
FFF8
0700
0700
0700
0700
0700
0700
0700
0700
0700
0700
0700
0700
0700
0700
0700
0700
0700
0700
0700
0000
0000
0700
0F80
0780
0080
0180
0100
0200
0400
ENDCHAR
STARTCHAR 021B
ENCODING 539
SWIDTH 330 0
DWIDTH 11 0
BBX 8 29 2 -10
BITMAP
08
18
18
18
FF
FF
18
18
18
18
18
18
18
18
18
18
18
1E
1E
00
00
38
3C
3C
04
04
08
18
20
ENDCHAR
STARTCHAR 021C
ENCODING 540
SWIDTH 480 0
DWIDTH 16 0
BBX 12 22 2 0
BITMAP
0F00
7FC0
FFE0
E070
4030
0030
0030
0030
0070
00E0
03E0
7FF0
7F70
7030
0030
0030
0070
0070
01E0
07C0
7F80
7E00
ENDCHAR
STARTCHAR 021D
ENCODING 541
SWIDTH 480 0
DWIDTH 16 0
BBX 12 22 2 -7
BITMAP
3F80
7FE0
F0F0
C070
0030
0030
0030
0030
0070
01E0
07E0
7FF0
7E30
0030
0030
0030
0070
00E0
03E0
7F80
7F00
7000
ENDCHAR
STARTCHAR 021E
ENCODING 542
SWIDTH 480 0
DWIDTH 16 0
BBX 13 28 2 0
BITMAP
1040
18C0
0D80
0F80
0700
0000
0000
C018
C018
C018
C018
C018
C018
C018
C018
C018
FFF8
FFF8
C018
C018
C018
C018
C018
C018
C018
C018
C018
C018
ENDCHAR
STARTCHAR 021F
ENCODING 543
SWIDTH 480 0
DWIDTH 16 0
BBX 13 28 2 0
BITMAP
2040
1080
1980
0F00
0F00
0000
0000
C000
C000
C000
C000
C000
C000
CFC0
FFE0
F8E0
F070
E030
C030
C038
C038
C038
C038
C038
C038
C038
C038
C038
ENDCHAR
STARTCHAR 0220
ENCODING 544
SWIDTH 570 0
DWIDTH 19 0
BBX 16 29 2 -7
BITMAP
07C0
DFF0
FFF8
F81C
F00E
E006
C007
C007
C007
C007
C007
C007
C007
C007
C007
C007
C007
C007
C007
C007
C007
C007
0007
0007
0007
0007
0007
0007
0007
ENDCHAR
STARTCHAR 0221
ENCODING 545
SWIDTH 690 0
DWIDTH 23 0
BBX 20 28 2 -7
BITMAP
003800
003800
003800
003800
003800
003800
1FB800
3FF800
78F800
607800
E03800
C03800
C03800
C03800
C03830
C038D0
E03890
E078A0
78F960
3FDDC0
1F9F80
000100
000100
000100
002300
006200
003200
001C00
ENDCHAR
STARTCHAR 0222
ENCODING 546
SWIDTH 480 0
DWIDTH 16 0
BBX 13 21 2 0
BITMAP
C038
C038
C030
E070
7070
79E0
3FC0
3FC0
78E0
6070
E030
C030
C038
C038
C038
C030
E030
E070
78E0
3FC0
1F80
ENDCHAR
STARTCHAR 0223
ENCODING 547
SWIDTH 420 0
DWIDTH 14 0
BBX 11 21 2 0
BITMAP
C0E0
C0E0
C060
C060
C0E0
E0E0
E1C0
7FC0
3F80
7F80
71C0
E0E0
C0E0
C060
C060
C0E0
C0E0
E0C0
71C0
7F80
1F00
ENDCHAR
STARTCHAR 0224
ENCODING 548
SWIDTH 510 0
DWIDTH 17 0
BBX 14 28 2 -7
BITMAP
FFFC
FFFC
001C
0038
0078
0070
00E0
01C0
01C0
0380
0700
0700
0E00
1C00
3800
3800
7000
E000
E000
FFFC
FFFC
000C
000C
000C
001C
00FC
01F8
00E0
ENDCHAR
STARTCHAR 0225
ENCODING 549
SWIDTH 390 0
DWIDTH 13 0
BBX 10 22 2 -7
BITMAP
FFC0
FFC0
01C0
0380
0700
0700
0E00
1C00
3800
3800
7000
E000
E000
FFC0
FFC0
01C0
01C0
01C0
01C0
1F80
3F00
1E00
ENDCHAR
STARTCHAR 0226
ENCODING 550
SWIDTH 630 0
DWIDTH 21 0
BBX 18 27 2 0
BITMAP
01C000
01E000
01C000
000000
000000
000000
01C000
01E000
03E000
03F000
037000
073000
073800
063800
0E1800
0C1C00
1C1C00
1FFC00
1FFE00
380600
380700
300700
700300
700380
600380
E00180
C001C0
ENDCHAR
STARTCHAR 0227
ENCODING 551
SWIDTH 390 0
DWIDTH 13 0
BBX 10 21 2 0
BITMAP
0C00
1C00
1C00
0C00
0000
0000
3F00
7F80
33C0
01C0
01C0
01C0
3FC0
7FC0
F3C0
C1C0
C1C0
C1C0
E3C0
7FC0
3FC0
ENDCHAR
STARTCHAR 0228
ENCODING 552
SWIDTH 480 0
DWIDTH 16 0
BBX 13 28 2 -7
BITMAP
FFF8
FFF8
C000
C000
C000
C000
C000
C000
C000
FFE0
FFE0
C000
C000
C000
C000
C000
C000
C000
C000
FFF8
FFF8
0200
0780
01C0
0040
00C0
0FC0
0F00
ENDCHAR
STARTCHAR 0229
ENCODING 553
SWIDTH 480 0
DWIDTH 16 0
BBX 13 22 2 -7
BITMAP
1F80
3FC0
78E0
6070
E070
FFF0
FFF8
FFF8
C000
C000
E020
E070
78E0
3FC0
1F80
0600
0700
0380
00C0
0080
1F80
0E00
ENDCHAR
STARTCHAR 022A
ENCODING 554
SWIDTH 630 0
DWIDTH 21 0
BBX 18 28 2 0
BITMAP
0FF800
0FF800
000000
0E3800
0F3800
0E3800
03E000
0FF800
1FFC00
3C1E00
780700
700700
E00380
E00380
C00180
C00180
C001C0
C001C0
C00180
C00180
E00180
E00380
600300
700700
380E00
1E3E00
0FFC00
07F000
ENDCHAR
STARTCHAR 022B
ENCODING 555
SWIDTH 480 0
DWIDTH 16 0
BBX 13 25 2 0
BITMAP
3FC0
3FC0
0000
0000
30C0
39E0
39E0
10C0
0000
0000
1F80
3FC0
78E0
6070
E030
C030
C038
C038
C038
C030
E030
E070
78E0
3FC0
1F80
ENDCHAR
STARTCHAR 022C
ENCODING 556
SWIDTH 630 0
DWIDTH 21 0
BBX 18 28 2 0
BITMAP
07F800
07F800
0E0400
1F8400
19FC00
107800
03E000
0FF800
1FFC00
3C1E00
780700
700700
E00380
E00380
C00180
C00180
C001C0
C001C0
C00180
C00180
E00180
E00380
600300
700700
380E00
1E3E00
0FFC00
07F000
ENDCHAR
STARTCHAR 022D
ENCODING 557
SWIDTH 480 0
DWIDTH 16 0
BBX 13 26 2 0
BITMAP
3FC0
3FC0
3FC0
0000
0000
3830
7E30
47E0
C1C0
0000
0000
1F80
3FC0
78E0
6070
E030
C030
C038
C038
C038
C030
E030
E070
78E0
3FC0
1F80
ENDCHAR
STARTCHAR 022E
ENCODING 558
SWIDTH 630 0
DWIDTH 21 0
BBX 18 27 2 0
BITMAP
01C000
01C000
01C000
000000
000000
03E000
0FF800
1FFC00
3C1E00
780700
700700
E00380
E00380
C00180
C00180
C001C0
C001C0
C00180
C00180
E00180
E00380
600300
700700
380E00
1E3E00
0FFC00
07F000
ENDCHAR
STARTCHAR 022F
ENCODING 559
SWIDTH 480 0
DWIDTH 16 0
BBX 13 21 2 0
BITMAP
0600
0F00
0F00
0600
0000
0000
1F80
3FC0
78E0
6070
E030
C030
C038
C038
C038
C030
E030
E070
78E0
3FC0
1F80
ENDCHAR
STARTCHAR 0230
ENCODING 560
SWIDTH 630 0
DWIDTH 21 0
BBX 18 28 2 0
BITMAP
0FF800
0FF800
008000
01C000
01C000
01C000
03E000
0FF800
1FFC00
3C1E00
780700
700700
E00380
E00380
C00180
C00180
C001C0
C001C0
C00180
C00180
E00180
E00380
600300
700700
380E00
1E3E00
0FFC00
07F000
ENDCHAR
STARTCHAR 0231
ENCODING 561
SWIDTH 480 0
DWIDTH 16 0
BBX 13 25 2 0
BITMAP
3FC0
3FC0
0000
0000
0600
0F00
0F00
0600
0000
0000
1F80
3FC0
78E0
6070
E030
C030
C038
C038
C038
C030
E030
E070
78E0
3FC0
1F80
ENDCHAR
STARTCHAR 0232
ENCODING 562
SWIDTH 630 0
DWIDTH 21 0
BBX 17 26 2 0
BITMAP
07F800
07F800
000000
000000
000000
E00380
700700
380700
380E00
1C1C00
0E3800
073800
077000
03E000
01E000
01C000
01C000
01C000
01C000
01C000
01C000
01C000
01C000
01C000
01C000
01C000
ENDCHAR
STARTCHAR 0233
ENCODING 563
SWIDTH 480 0
DWIDTH 16 0
BBX 13 27 2 -7
BITMAP
3FC0
3FC0
3FC0
0000
0000
C038
E038
6030
6070
7070
3060
38E0
38C0
19C0
1DC0
1D80
0F80
0F80
0700
0700
0700
0600
0E00
0C00
7C00
7800
E000
ENDCHAR
STARTCHAR 0234
ENCODING 564
SWIDTH 360 0
DWIDTH 12 0
BBX 10 28 1 -7
BITMAP
6000
6000
6000
6000
6000
6000
6000
6000
6000
6000
6000
6000
6000
6000
60C0
6140
6240
6240
6280
7F00
3E00
0600
0400
0400
C400
C400
C800
3000
ENDCHAR
STARTCHAR 0235
ENCODING 565
SWIDTH 690 0
DWIDTH 23 0
BBX 20 22 2 -7
BITMAP
CFC000
FFE000
F8E000
F07000
E03000
C03000
C03800
C03800
C03830
C038D0
C03890
C038A0
C03960
C01DC0
C01F80
000100
000100
000100
002300
006200
003200
001C00
ENDCHAR
STARTCHAR 0236
ENCODING 566
SWIDTH 450 0
DWIDTH 15 0
BBX 12 25 2 -7
BITMAP
1800
1800
1800
FF00
FF00
1800
1800
1800
1800
1800
1800
1830
1850
1890
18B0
18A0
1FC0
0F80
0180
0100
0100
2100
3200
3200
1C00
ENDCHAR
STARTCHAR 0237
ENCODING 567
SWIDTH 150 0
DWIDTH 5 0
BBX 7 22 -3 -7
BITMAP
06
06
06
06
06
06
06
06
06
06
06
06
06
06
06
06
06
06
0E
7C
FC
70
ENDCHAR
STARTCHAR 0238
ENCODING 568
SWIDTH 780 0
DWIDTH 26 0
BBX 23 21 2 0
BITMAP
003800
003800
003800
003800
003800
003800
1FBBF0
3FFFF8
78FE3C
607C1C
E0380E
C0380E
C03806
C03806
C03806
C0380E
E0380E
E07C1C
78FE3C
3FFFF8
1FBBF0
ENDCHAR
STARTCHAR 0239
ENCODING 569
SWIDTH 780 0
DWIDTH 26 0
BBX 23 22 2 -7
BITMAP
1FBBF0
3FFFF8
78FE3C
607C1C
E0380E
C0380E
C03806
C03806
C03806
C0380E
E0380E
E07C1C
78FE3C
3FFFF8
1FBBF0
003800
003800
003800
003800
003800
003800
001800
ENDCHAR
STARTCHAR 023A
ENCODING 570
SWIDTH 630 0
DWIDTH 21 0
BBX 18 24 2 -1
BITMAP
000100
0001C0
01C380
01E700
03E700
03FE00
037C00
073C00
073800
067800
0EF800
0CFC00
1DDC00
1FFC00
1FFE00
3F0600
3E0700
3E0700
7C0300
780380
700380
F00180
E001C0
C00000
ENDCHAR
STARTCHAR 023B
ENCODING 571
SWIDTH 570 0
DWIDTH 19 0
BBX 18 24 2 -1
BITMAP
000100
03C1C0
0FFB80
1FFF00
3C1F00
700F00
701F00
E03800
E03800
C07000
C0E000
C0E000
C1C000
C38000
C78000
C70000
EE0000
7C0200
7C0700
380E00
7E3E00
7FFC00
E7F000
C00000
ENDCHAR
STARTCHAR 023C
ENCODING 572
SWIDTH 450 0
DWIDTH 15 0
BBX 14 19 1 -2
BITMAP
0008
001C
0FDC
1FF8
3C70
30F8
70F0
61C0
6380
6380
6700
6E00
7E10
3C38
3C70
7FE0
7FC0
E000
4000
ENDCHAR
STARTCHAR 023D
ENCODING 573
SWIDTH 570 0
DWIDTH 19 0
BBX 16 21 2 0
BITMAP
3800
3800
3800
3800
3800
3800
3800
3800
3800
FF00
FF00
3800
3800
3800
3800
3800
3800
3800
3800
3FFF
3FFF
ENDCHAR
STARTCHAR 023E
ENCODING 574
SWIDTH 480 0
DWIDTH 16 0
BBX 18 24 0 -1
BITMAP
000100
0001C0
3FFF80
3FFF00
01CE00
01CE00
01DC00
01F800
01F800
01F000
01E000
01E000
01C000
03C000
07C000
07C000
0FC000
1DC000
1DC000
39C000
71C000
F1C000
E1C000
C00000
ENDCHAR
STARTCHAR 023F
ENCODING 575
SWIDTH 390 0
DWIDTH 13 0
BBX 16 23 2 -8
BITMAP
3E00
7F00
F780
E380
E000
F000
7C00
1F00
0780
0180
C180
C180
E380
7F00
3F00
0780
0380
01C0
01C0
00E2
00FF
007F
001C
ENDCHAR
STARTCHAR 0240
ENCODING 576
SWIDTH 390 0
DWIDTH 13 0
BBX 15 22 2 -7
BITMAP
FFC0
FFC0
01C0
0380
0700
0700
0E00
1C00
3800
3800
7000
E000
E000
FC00
FE00
0700
0700
0380
0380
01CC
01FE
00FC
ENDCHAR
STARTCHAR 0241
ENCODING 577
SWIDTH 480 0
DWIDTH 16 0
BBX 13 22 2 0
BITMAP
0F00
3FC0
3FE0
70E0
E070
E030
C038
C038
0038
0038
0030
0070
00E0
03E0
07C0
0700
0600
0600
0600
0600
0600
0600
ENDCHAR
STARTCHAR 0242
ENCODING 578
SWIDTH 360 0
DWIDTH 12 0
BBX 9 15 2 0
BITMAP
3E00
FF00
F700
C380
0380
0300
0700
0600
0E00
1C00
1C00
1C00
1800
1800
1800
ENDCHAR
STARTCHAR 0243
ENCODING 579
SWIDTH 570 0
DWIDTH 19 0
BBX 16 21 2 0
BITMAP
3FF0
3FFC
381C
380E
380E
380E
380E
381C
3FFC
3FF8
3FFC
380E
3806
FF07
FF07
FF07
3806
380E
383C
3FF8
3FF0
ENDCHAR
STARTCHAR 0244
ENCODING 580
SWIDTH 660 0
DWIDTH 22 0
BBX 19 21 2 0
BITMAP
7001C0
7001C0
7001C0
7001C0
7001C0
7001C0
7001C0
7001C0
7001C0
FFFFE0
FFFFE0
7001C0
7001C0
7001C0
700180
300180
380380
3C0700
1E1F00
0FFE00
03F800
ENDCHAR
STARTCHAR 0245
ENCODING 581
SWIDTH 630 0
DWIDTH 21 0
BBX 18 21 2 0
BITMAP
01C000
01E000
03E000
03F000
037000
073000
073800
063800
0E1800
0C1C00
1C1C00
1C0C00
180E00
380600
380700
300700
700300
700380
600380
E00180
C001C0
ENDCHAR
STARTCHAR 0246
ENCODING 582
SWIDTH 480 0
DWIDTH 16 0
BBX 18 24 0 -1
BITMAP
000100
0001C0
3FFF80
3FFF00
300E00
300E00
301C00
303800
303800
307000
30E000
3FF800
3FF800
338000
370000
370000
3E0000
3C0000
3C0000
380000
700000
FFFE00
FFFE00
C00000
ENDCHAR
STARTCHAR 0247
ENCODING 583
SWIDTH 480 0
DWIDTH 16 0
BBX 14 19 1 -2
BITMAP
0008
001C
0FDC
1FF8
3C70
30F8
70F8
7FF8
7FFC
7FFC
6700
6E00
7E10
3C38
3C70
7FE0
7FC0
E000
4000
ENDCHAR
STARTCHAR 0248
ENCODING 584
SWIDTH 420 0
DWIDTH 14 0
BBX 11 21 2 0
BITMAP
0380
0380
0380
0380
0380
0380
0380
0380
0380
1FE0
1FE0
0380
0380
0380
0380
0380
0380
C380
E700
7F00
3E00
ENDCHAR
STARTCHAR 0249
ENCODING 585
SWIDTH 330 0
DWIDTH 11 0
BBX 10 28 0 -7
BITMAP
0600
0F00
0F00
0600
0000
0000
0600
0600
0600
0600
0600
0600
3FC0
3FC0
3FC0
0600
0600
0600
0600
0600
0600
0600
0600
0600
0E00
7E00
FC00
7800
ENDCHAR
STARTCHAR 024A
ENCODING 586
SWIDTH 630 0
DWIDTH 21 0
BBX 22 29 2 -7
BITMAP
03E000
0FF9C0
1FFDC0
3C1FC0
7807C0
7007C0
E003C0
E003C0
C001C0
C001C0
C001C0
C001C0
C001C0
C001C0
E001C0
E003C0
6003C0
7007C0
380FC0
1E3FC0
0FFDC0
07F1C0
0001C0
0001C0
0001C0
0001C0
0000FC
0000FC
000038
ENDCHAR
STARTCHAR 024B
ENCODING 587
SWIDTH 480 0
DWIDTH 16 0
BBX 18 22 2 -7
BITMAP
1FB800
3FF800
78F800
607800
E03800
C03800
C03800
C03800
C03800
C03800
E03800
E07800
78F800
3FF800
1FB800
003800
003800
003800
003800
001F80
000FC0
000780
ENDCHAR
STARTCHAR 024C
ENCODING 588
SWIDTH 600 0
DWIDTH 20 0
BBX 16 21 2 0
BITMAP
3FF0
3FF8
381C
380E
380E
380E
380E
380E
381C
FFF8
FFF0
FFE0
3870
3830
3838
381C
381C
380E
380E
3807
3803
ENDCHAR
STARTCHAR 024D
ENCODING 589
SWIDTH 390 0
DWIDTH 13 0
BBX 10 15 2 0
BITMAP
3BC0
3FC0
3E00
3C00
3800
3800
FF00
FF00
FF00
3800
3800
3800
3800
3800
3800
ENDCHAR
STARTCHAR 024E
ENCODING 590
SWIDTH 630 0
DWIDTH 21 0
BBX 18 21 2 0
BITMAP
E00380
700700
380700
FFFFC0
FFFFC0
0E3800
073800
077000
03E000
01E000
01C000
01C000
01C000
01C000
01C000
01C000
01C000
01C000
01C000
01C000
01C000
ENDCHAR
STARTCHAR 024F
ENCODING 591
SWIDTH 480 0
DWIDTH 16 0
BBX 13 22 2 -7
BITMAP
C038
E038
6030
7070
7070
3060
FFF8
FFF8
FFF8
1DC0
1D80
0F80
0F80
0700
0700
0600
0600
0E00
0C00
7C00
7800
E000
ENDCHAR
STARTCHAR 0250
ENCODING 592
SWIDTH 390 0
DWIDTH 13 0
BBX 10 15 2 0
BITMAP
FF00
FF80
E380
C1C0
C1C0
C1C0
E380
FF80
FE00
C000
C000
C000
F700
7F00
3E00
ENDCHAR
STARTCHAR 0251
ENCODING 593
SWIDTH 480 0
DWIDTH 16 0
BBX 13 15 2 0
BITMAP
1FB8
3FF8
78F8
6078
E038
C038
C038
C038
C038
C038
E038
E078
78F8
3FF8
1FB8
ENDCHAR
STARTCHAR 0252
ENCODING 594
SWIDTH 480 0
DWIDTH 16 0
BBX 13 15 2 0
BITMAP
DF80
FFC0
F8E0
E070
E030
C030
C038
C038
C038
C030
E030
E070
F8E0
FFC0
DF80
ENDCHAR
STARTCHAR 0253
ENCODING 595
SWIDTH 480 0
DWIDTH 16 0
BBX 13 22 2 0
BITMAP
1C00
7E00
FC00
C000
C000
C000
C000
DF80
FFC0
F8E0
E070
E030
C030
C038
C038
C038
C030
E030
E070
F8E0
FFC0
DF80
ENDCHAR
STARTCHAR 0254
ENCODING 596
SWIDTH 450 0
DWIDTH 15 0
BBX 12 15 2 0
BITMAP
3F00
7F80
F1C0
E0E0
4060
0070
0070
0070
0070
0070
4060
E0E0
F1C0
7F80
3F00
ENDCHAR
STARTCHAR 0255
ENCODING 597
SWIDTH 450 0
DWIDTH 15 0
BBX 12 22 2 -7
BITMAP
1F80
3FC0
78E0
6070
E060
C000
C000
C000
C030
C050
E090
E090
78A0
3FE0
1F80
0180
0180
0100
2100
3100
3200
1C00
ENDCHAR
STARTCHAR 0256
ENCODING 598
SWIDTH 480 0
DWIDTH 16 0
BBX 18 28 2 -7
BITMAP
003800
003800
003800
003800
003800
003800
1FB800
3FF800
78F800
607800
E03800
C03800
C03800
C03800
C03800
C03800
E03800
E07800
78F800
3FF800
1FB800
003800
003800
003800
003800
001F80
000FC0
000780
ENDCHAR
STARTCHAR 0257
ENCODING 599
SWIDTH 480 0
DWIDTH 16 0
BBX 18 22 2 0
BITMAP
000700
000FC0
001F80
003800
003800
003800
003800
1FB800
3FF800
78F800
607800
E03800
C03800
C03800
C03800
C03800
C03800
E03800
E07800
78F800
3FF800
1FB800
ENDCHAR
STARTCHAR 0258
ENCODING 600
SWIDTH 480 0
DWIDTH 16 0
BBX 13 15 2 0
BITMAP
1F80
3FC0
78E0
6070
E070
FFF0
FFF8
FFF8
0038
0030
2030
6070
78E0
3FC0
1F80
ENDCHAR
STARTCHAR 0259
ENCODING 601
SWIDTH 480 0
DWIDTH 16 0
BBX 13 15 2 0
BITMAP
1F80
3FC0
78E0
6070
2070
0030
0038
FFF8
FFF8
FFF0
E030
E070
78E0
3FC0
1F80
ENDCHAR
STARTCHAR 025A
ENCODING 602
SWIDTH 690 0
DWIDTH 23 0
BBX 19 15 2 0
BITMAP
1F8000
3FC000
78E000
607000
207020
003020
003E20
FFFE20
FFFA60
FFF3E0
E03180
E07000
78E000
3FC000
1F8000
ENDCHAR
STARTCHAR 025B
ENCODING 603
SWIDTH 390 0
DWIDTH 13 0
BBX 9 15 2 0
BITMAP
3E00
7F00
7700
E380
E000
7000
7800
7800
E000
C000
C180
C180
E380
7F00
3E00
ENDCHAR
STARTCHAR 025C
ENCODING 604
SWIDTH 390 0
DWIDTH 13 0
BBX 9 15 2 0
BITMAP
3E00
7F00
7700
E380
0380
0700
0F00
0F00
0380
0180
C180
C180
E380
7F00
3E00
ENDCHAR
STARTCHAR 025D
ENCODING 605
SWIDTH 570 0
DWIDTH 19 0
BBX 15 15 2 0
BITMAP
3E00
7F06
7702
E3E2
03E2
0736
0F3C
0F08
0380
0180
C180
C180
E380
7F00
3E00
ENDCHAR
STARTCHAR 025E
ENCODING 606
SWIDTH 420 0
DWIDTH 14 0
BBX 11 15 2 0
BITMAP
1F80
3FC0
79C0
60C0
E0C0
C3C0
C780
C7C0
C0E0
C0E0
E060
E0E0
79E0
3FC0
1F80
ENDCHAR
STARTCHAR 025F
ENCODING 607
SWIDTH 330 0
DWIDTH 11 0
BBX 11 22 -1 -7
BITMAP
0700
0700
0700
0700
0700
0700
0700
0700
0700
0700
0700
1FE0
1FE0
1FE0
0700
0700
0700
0700
0700
7E00
FE00
7800
ENDCHAR
STARTCHAR 0260
ENCODING 608
SWIDTH 480 0
DWIDTH 16 0
BBX 18 28 2 -7
BITMAP
000FC0
001F80
003800
003800
003800
003800
1FB800
3FF800
78F800
607800
E03800
C03800
C03800
C03800
C03800
C03800
E03800
E07800
78F800
3FF800
1FB800
003800
003800
003800
607000
7FF000
3FC000
0F0000
ENDCHAR
STARTCHAR 0261
ENCODING 609
SWIDTH 480 0
DWIDTH 16 0
BBX 13 22 2 -7
BITMAP
1FB8
3FF8
78F8
6078
E038
C038
C038
C038
C038
C038
E038
E078
78F8
3FF8
1FB8
0038
0038
0038
6070
7FF0
3FC0
0F00
ENDCHAR
STARTCHAR 0262
ENCODING 610
SWIDTH 450 0
DWIDTH 15 0
BBX 12 15 2 0
BITMAP
1F80
3FC0
78E0
6070
E060
C000
C000
C3F0
C3F0
C070
E070
E070
78E0
3FC0
1F80
ENDCHAR
STARTCHAR 0263
ENCODING 611
SWIDTH 480 0
DWIDTH 16 0
BBX 13 22 2 -7
BITMAP
C038
E038
6030
6070
7070
3060
38E0
38C0
19C0
1DC0
1D80
0F80
0F80
0700
0700
0F00
0F80
0F80
1D80
1F80
0F80
0700
ENDCHAR
STARTCHAR 0264
ENCODING 612
SWIDTH 630 0
DWIDTH 21 0
BBX 17 15 2 0
BITMAP
7C1F00
FE3F80
E73980
037000
03E000
03E000
01E000
01C000
01C000
03E000
03E000
037000
037000
03E000
01E000
ENDCHAR
STARTCHAR 0265
ENCODING 613
SWIDTH 480 0
DWIDTH 16 0
BBX 13 22 2 -7
BITMAP
C038
C038
C038
C038
C038
C038
C038
C038
C038
C038
E078
E0F8
71F8
7FF8
1FB8
0038
0038
0038
0038
0038
0038
0018
ENDCHAR
STARTCHAR 0266
ENCODING 614
SWIDTH 480 0
DWIDTH 16 0
BBX 13 22 2 0
BITMAP
1C00
7E00
FC00
C000
C000
C000
C000
CFC0
FFE0
F8E0
F070
E030
C030
C038
C038
C038
C038
C038
C038
C038
C038
C038
ENDCHAR
STARTCHAR 0267
ENCODING 615
SWIDTH 480 0
DWIDTH 16 0
BBX 13 29 2 -7
BITMAP
1C00
7E00
FC00
C000
C000
C000
C000
CFC0
FFE0
F8E0
F070
E030
C030
C038
C038
C038
C038
C038
C038
C038
C038
C038
0038
0038
0038
0030
03F0
07E0
03C0
ENDCHAR
STARTCHAR 0268
ENCODING 616
SWIDTH 300 0
DWIDTH 10 0
BBX 7 21 2 0
BITMAP
30
38
38
30
00
00
38
38
38
38
38
38
FE
FE
FE
38
38
38
38
38
38
ENDCHAR
STARTCHAR 0269
ENCODING 617
SWIDTH 240 0
DWIDTH 8 0
BBX 5 15 2 0
BITMAP
C0
C0
C0
C0
C0
C0
C0
C0
C0
C0
C0
C0
C0
F8
F8
ENDCHAR
STARTCHAR 026A
ENCODING 618
SWIDTH 300 0
DWIDTH 10 0
BBX 7 15 2 0
BITMAP
FE
FE
38
38
38
38
38
38
38
38
38
38
38
FE
FE
ENDCHAR
STARTCHAR 026B
ENCODING 619
SWIDTH 420 0
DWIDTH 14 0
BBX 11 21 2 0
BITMAP
0E00
0E00
0E00
0E00
0E00
0E00
0E00
0E00
6E20
FE60
CFE0
8FC0
0E00
0E00
0E00
0E00
0E00
0E00
0E00
0F80
0780
ENDCHAR
STARTCHAR 026C
ENCODING 620
SWIDTH 420 0
DWIDTH 14 0
BBX 11 21 2 0
BITMAP
0600
0600
0600
0600
3E00
7E00
FE00
CE00
C660
C6E0
E7C0
7FC0
3F80
0E00
0600
0600
0600
0600
0600
07C0
07C0
ENDCHAR
STARTCHAR 026D
ENCODING 621
SWIDTH 150 0
DWIDTH 5 0
BBX 7 28 2 -7
BITMAP
C0
C0
C0
C0
C0
C0
C0
C0
C0
C0
C0
C0
C0
C0
C0
C0
C0
C0
C0
C0
C0
C0
C0
C0
E0
FC
7E
3C
ENDCHAR
STARTCHAR 026E
ENCODING 622
SWIDTH 480 0
DWIDTH 16 0
BBX 13 28 2 -7
BITMAP
C000
C000
C000
C000
C000
C000
FFF8
FFF8
C038
C070
C0E0
C0E0
C1C0
C380
C7C0
C7E0
C0F0
C070
C030
C038
C038
0038
0030
0070
30F0
7FE0
3FC0
0F00
ENDCHAR
STARTCHAR 026F
ENCODING 623
SWIDTH 600 0
DWIDTH 20 0
BBX 17 15 2 0
BITMAP
C18380
C18380
C18380
C18380
C18380
C18380
C18380
C18380
C18380
C18380
C3C380
C3C780
E7CF80
7EFF80
3C7F80
ENDCHAR
STARTCHAR 0270
ENCODING 624
SWIDTH 600 0
DWIDTH 20 0
BBX 17 22 2 -7
BITMAP
C18380
C18380
C18380
C18380
C18380
C18380
C18380
C18380
C18380
C18380
C3C380
C3C780
E7CF80
7EFF80
3C7F80
000380
000380
000380
000380
000380
000380
000180
ENDCHAR
STARTCHAR 0271
ENCODING 625
SWIDTH 600 0
DWIDTH 20 0
BBX 17 22 2 -7
BITMAP
DE3E00
FF7E00
F3E700
E1C300
E1C300
C1C380
C18380
C18380
C18380
C18380
C18380
C18380
C18380
C18380
C18380
000380
000380
000380
000380
003F00
007E00
003C00
ENDCHAR
STARTCHAR 0272
ENCODING 626
SWIDTH 480 0
DWIDTH 16 0
BBX 18 22 -3 -7
BITMAP
067E00
07FF00
07C700
078380
070180
060180
0601C0
0601C0
0601C0
0601C0
0601C0
0601C0
0601C0
0601C0
0601C0
060000
060000
060000
0E0000
7C0000
FC0000
700000
ENDCHAR
STARTCHAR 0273
ENCODING 627
SWIDTH 480 0
DWIDTH 16 0
BBX 18 22 2 -7
BITMAP
CFC000
FFE000
F8E000
F07000
E03000
C03000
C03800
C03800
C03800
C03800
C03800
C03800
C03800
C03800
C03800
003800
003800
003800
003800
001F80
000FC0
000780
ENDCHAR
STARTCHAR 0274
ENCODING 628
SWIDTH 450 0
DWIDTH 15 0
BBX 12 15 2 0
BITMAP
C030
E030
F030
F830
F830
DC30
CE30
CE30
C730
C3B0
C3B0
C1F0
C0F0
C070
C070
ENDCHAR
STARTCHAR 0275
ENCODING 629
SWIDTH 480 0
DWIDTH 16 0
BBX 13 15 2 0
BITMAP
1F80
3FC0
78E0
6070
E070
C030
FFF8
FFF8
FFF8
C030
E030
E070
78E0
3FC0
1F80
ENDCHAR
STARTCHAR 0276
ENCODING 630
SWIDTH 720 0
DWIDTH 24 0
BBX 21 15 2 0
BITMAP
1FBFF8
3FFFF8
78F800
607800
E03800
C03800
C03FE0
C03FE0
C03FE0
C03800
E03800
E07800
78F800
3FFFF8
1FBFF8
ENDCHAR
STARTCHAR 0277
ENCODING 631
SWIDTH 600 0
DWIDTH 20 0
BBX 17 15 2 0
BITMAP
1FFC00
7FFE00
700F00
E00700
E00300
C00380
C00380
C00380
C18380
C1C380
C1C300
E3C700
77E700
7F7E00
3E3C00
ENDCHAR
STARTCHAR 0278
ENCODING 632
SWIDTH 480 0
DWIDTH 16 0
BBX 13 28 2 -7
BITMAP
0600
0600
0600
0600
0600
0600
1F80
3FC0
7EE0
6670
E630
C630
C638
C638
C638
C630
E630
E670
7EE0
3FC0
1F80
0600
0600
0600
0600
0600
0600
0200
ENDCHAR
STARTCHAR 0279
ENCODING 633
SWIDTH 330 0
DWIDTH 11 0
BBX 8 15 2 0
BITMAP
07
07
07
07
07
07
07
07
07
07
07
0F
1F
FF
F7
ENDCHAR
STARTCHAR 027A
ENCODING 634
SWIDTH 330 0
DWIDTH 11 0
BBX 8 21 2 0
BITMAP
07
07
07
07
07
07
07
07
07
07
07
07
07
07
07
07
07
0F
1F
FF
F7
ENDCHAR
STARTCHAR 027B
ENCODING 635
SWIDTH 330 0
DWIDTH 11 0
BBX 13 22 2 -7
BITMAP
0700
0700
0700
0700
0700
0700
0700
0700
0700
0700
0700
0F00
1F00
FF00
F700
0700
0700
0700
0700
03F0
01F8
00F0
ENDCHAR
STARTCHAR 027C
ENCODING 636
SWIDTH 330 0
DWIDTH 11 0
BBX 8 22 2 -7
BITMAP
DF
FE
F8
F0
E0
C0
C0
C0
C0
C0
C0
C0
C0
C0
C0
C0
C0
C0
C0
C0
C0
40
ENDCHAR
STARTCHAR 027D
ENCODING 637
SWIDTH 330 0
DWIDTH 11 0
BBX 8 22 2 -7
BITMAP
DF
FE
F8
F0
E0
C0
C0
C0
C0
C0
C0
C0
C0
C0
C0
C0
C0
C0
E0
FC
7E
3C
ENDCHAR
STARTCHAR 027E
ENCODING 638
SWIDTH 300 0
DWIDTH 10 0
BBX 7 15 2 0
BITMAP
3E
7E
E4
C0
C0
C0
C0
C0
C0
C0
C0
C0
C0
C0
C0
ENDCHAR
STARTCHAR 027F
ENCODING 639
SWIDTH 300 0
DWIDTH 10 0
BBX 7 22 2 -7
BITMAP
F8
FC
4E
06
06
06
06
06
06
06
06
06
06
06
06
06
06
06
06
06
06
02
ENDCHAR
STARTCHAR 0280
ENCODING 640
SWIDTH 390 0
DWIDTH 13 0
BBX 10 15 2 0
BITMAP
FC00
FE00
CF00
C300
C380
C300
C700
FF00
FC00
CE00
C700
C700
C380
C180
C1C0
ENDCHAR
STARTCHAR 0281
ENCODING 641
SWIDTH 390 0
DWIDTH 13 0
BBX 10 15 2 0
BITMAP
C1C0
C180
C380
C700
C700
CE00
FC00
FF00
C700
C300
C380
C300
CF00
FE00
FC00
ENDCHAR
STARTCHAR 0282
ENCODING 642
SWIDTH 390 0
DWIDTH 13 0
BBX 9 22 2 -7
BITMAP
3E00
7F00
F780
E380
E000
F000
7C00
1F00
0780
0180
C180
C180
E380
FF00
FE00
C000
C000
C000
E000
FC00
7E00
3C00
ENDCHAR
STARTCHAR 0283
ENCODING 643
SWIDTH 150 0
DWIDTH 5 0
BBX 12 29 -3 -7
BITMAP
00E0
03F0
07E0
0600
0600
0600
0600
0600
0600
0600
0600
0600
0600
0600
0600
0600
0600
0600
0600
0600
0600
0600
0600
0600
0600
0E00
7C00
FC00
7000
ENDCHAR
STARTCHAR 0284
ENCODING 644
SWIDTH 150 0
DWIDTH 5 0
BBX 12 29 -3 -7
BITMAP
00E0
03F0
07E0
0600
0600
0600
0600
0600
0600
0600
0600
0600
0600
0600
0600
0600
0600
0600
0600
0600
7FE0
7FE0
0600
0600
0600
0E00
7C00
FC00
7000
ENDCHAR
STARTCHAR 0285
ENCODING 645
SWIDTH 300 0
DWIDTH 10 0
BBX 12 22 2 -7
BITMAP
F800
FC00
4E00
0600
0600
0600
0600
0600
0600
0600
0600
0600
0600
0600
0600
0600
0600
0600
0700
07E0
03F0
00E0
ENDCHAR
STARTCHAR 0286
ENCODING 646
SWIDTH 450 0
DWIDTH 15 0
BBX 12 29 1 -7
BITMAP
00E0
03F0
07E0
0700
0600
0600
0600
0600
0600
0600
0600
0600
0600
0600
0600
0600
0600
0600
0600
0600
3F80
7FC0
E7E0
C6E0
C660
C600
FE00
7C00
3800
ENDCHAR
STARTCHAR 0287
ENCODING 647
SWIDTH 330 0
DWIDTH 11 0
BBX 8 19 2 -4
BITMAP
F0
F8
38
38
38
38
38
38
38
38
38
38
38
FF
FF
38
38
38
20
ENDCHAR
STARTCHAR 0288
ENCODING 648
SWIDTH 330 0
DWIDTH 11 0
BBX 10 25 2 -7
BITMAP
1800
1800
1800
FF00
FF00
1800
1800
1800
1800
1800
1800
1800
1800
1800
1800
1800
1800
1800
1800
1800
1800
1800
1F80
0FC0
0780
ENDCHAR
STARTCHAR 0289
ENCODING 649
SWIDTH 630 0
DWIDTH 21 0
BBX 18 15 2 0
BITMAP
380600
380600
380600
380600
380600
380600
FFFFC0
FFFFC0
FFFFC0
380E00
380E00
1C1E00
1C3E00
0FFE00
07E600
ENDCHAR
STARTCHAR 028A
ENCODING 650
SWIDTH 480 0
DWIDTH 16 0
BBX 13 15 2 0
BITMAP
F8F8
F8F8
78E0
6070
E030
C030
C038
C038
C038
C030
E030
E070
78E0
3FC0
1F80
ENDCHAR
STARTCHAR 028B
ENCODING 651
SWIDTH 420 0
DWIDTH 14 0
BBX 11 15 2 0
BITMAP
C780
E3C0
60E0
6060
7060
3060
38E0
38C0
19C0
1DC0
1D80
0F80
0F80
0700
0700
ENDCHAR
STARTCHAR 028C
ENCODING 652
SWIDTH 480 0
DWIDTH 16 0
BBX 13 15 2 0
BITMAP
0700
0700
0F80
0F80
1D80
1DC0
19C0
38C0
38E0
3060
7070
7070
6030
E038
C038
ENDCHAR
STARTCHAR 028D
ENCODING 653
SWIDTH 630 0
DWIDTH 21 0
BBX 18 15 2 0
BITMAP
0C0C00
1E1E00
1E1E00
1E1E00
3E3E00
3F3F00
373700
333300
737380
73F380
63E380
61E180
E1E1C0
E1E1C0
C0C0C0
ENDCHAR
STARTCHAR 028E
ENCODING 654
SWIDTH 480 0
DWIDTH 16 0
BBX 13 22 2 0
BITMAP
0070
00F0
01F0
0380
0380
0300
0700
0700
0700
0F80
0F80
1D80
1DC0
19C0
38C0
38E0
3060
7060
7070
6030
E038
C038
ENDCHAR
STARTCHAR 028F
ENCODING 655
SWIDTH 480 0
DWIDTH 16 0
BBX 13 15 2 0
BITMAP
E038
7070
70E0
38E0
1DC0
1F80
0F80
0700
0700
0700
0700
0700
0700
0700
0700
ENDCHAR
STARTCHAR 0290
ENCODING 656
SWIDTH 390 0
DWIDTH 13 0
BBX 15 22 2 -7
BITMAP
FFC0
FFC0
01C0
0380
0700
0700
0E00
1C00
3800
3800
7000
E000
E000
FFC0
FFC0
01C0
01C0
01C0
01C0
00FC
007E
003C
ENDCHAR
STARTCHAR 0291
ENCODING 657
SWIDTH 420 0
DWIDTH 14 0
BBX 11 22 2 -7
BITMAP
FFC0
FFC0
01C0
0380
0700
0700
0E00
1C00
3860
38A0
7120
E160
E140
FF80
FF00
0300
0200
0200
4200
E400
6400
3800
ENDCHAR
STARTCHAR 0292
ENCODING 658
SWIDTH 420 0
DWIDTH 14 0
BBX 11 22 2 -7
BITMAP
FFE0
FFE0
00E0
01C0
01C0
0380
0700
0F00
0F00
0F80
01C0
00C0
00E0
00E0
0060
00E0
00E0
00C0
41C0
FF80
7F00
1E00
ENDCHAR
STARTCHAR 0293
ENCODING 659
SWIDTH 420 0
DWIDTH 14 0
BBX 13 28 0 -13
BITMAP
3FF8
3FF8
0038
0070
0070
00E0
01C0
03C0
03C0
03E0
0070
0030
0038
0038
8018
E038
9038
D030
5070
7FE0
1FC0
1F80
0800
0800
0840
08E0
04C0
0380
ENDCHAR
STARTCHAR 0294
ENCODING 660
SWIDTH 420 0
DWIDTH 14 0
BBX 11 22 2 0
BITMAP
1E00
3F80
7FC0
E0E0
C0E0
C060
0060
00E0
00E0
01C0
03C0
0780
0700
0E00
0E00
0E00
0E00
0E00
0E00
0E00
0E00
0E00
ENDCHAR
STARTCHAR 0295
ENCODING 661
SWIDTH 420 0
DWIDTH 14 0
BBX 11 22 2 0
BITMAP
0E00
3F80
7FC0
E1C0
C0E0
C060
C000
C000
E000
E000
7000
3800
1C00
0C00
0C00
0E00
0E00
0E00
0E00
0E00
0E00
0E00
ENDCHAR
STARTCHAR 0296
ENCODING 662
SWIDTH 420 0
DWIDTH 14 0
BBX 11 21 2 0
BITMAP
0E00
0E00
0E00
0E00
0E00
0E00
0E00
0E00
0600
0700
0380
01C0
00E0
00E0
00E0
0060
C0E0
E0E0
F1C0
7FC0
3F00
ENDCHAR
STARTCHAR 0297
ENCODING 663
SWIDTH 480 0
DWIDTH 16 0
BBX 12 22 2 -7
BITMAP
0F80
1FC0
38E0
7070
6060
E000
E000
C000
C000
C000
C000
C000
C000
C000
C000
E000
6000
7060
70E0
3FE0
1FC0
0F00
ENDCHAR
STARTCHAR 0298
ENCODING 664
SWIDTH 480 0
DWIDTH 16 0
BBX 13 22 2 0
BITMAP
0700
1F80
3FC0
70E0
7060
6070
E030
C030
C030
C038
CF38
CF38
C638
C038
C030
E030
E070
6070
70E0
39C0
1FC0
0F80
ENDCHAR
STARTCHAR 0299
ENCODING 665
SWIDTH 390 0
DWIDTH 13 0
BBX 10 15 2 0
BITMAP
FE00
FF80
C380
C180
C180
C380
FF80
FF80
C1C0
C0C0
C0C0
C1C0
C3C0
FF80
FF00
ENDCHAR
STARTCHAR 029A
ENCODING 666
SWIDTH 420 0
DWIDTH 14 0
BBX 11 15 2 0
BITMAP
3E00
7F80
7380
E1C0
E0E0
70E0
7860
7860
E0E0
C0E0
C0E0
C1C0
E3C0
7F80
3F00
ENDCHAR
STARTCHAR 029B
ENCODING 667
SWIDTH 450 0
DWIDTH 15 0
BBX 17 22 2 0
BITMAP
000F00
001F80
003F00
003000
007000
007000
007000
1FF000
3FF000
78F000
607000
E07000
C00000
C00000
C3F000
C3F000
C07000
E07000
E07000
78E000
3FC000
1F8000
ENDCHAR
STARTCHAR 029C
ENCODING 668
SWIDTH 420 0
DWIDTH 14 0
BBX 11 15 2 0
BITMAP
C060
C060
C060
C060
C060
C060
FFE0
FFE0
FFE0
C060
C060
C060
C060
C060
C060
ENDCHAR
STARTCHAR 029D
ENCODING 669
SWIDTH 420 0
DWIDTH 14 0
BBX 11 28 2 -7
BITMAP
0600
0F00
0F00
0600
0000
0000
0600
0600
0600
0600
0600
0600
0600
0600
0600
0600
0600
0600
0E00
3F80
7FC0
E7C0
C6E0
C660
CE00
FE00
7C00
3800
ENDCHAR
STARTCHAR 029E
ENCODING 670
SWIDTH 420 0
DWIDTH 14 0
BBX 11 22 2 -7
BITMAP
E060
7060
7060
3860
1C60
1CE0
0FE0
07E0
03E0
0760
0E60
0E60
1C60
3860
3860
0060
0060
0060
0060
0060
0060
0060
ENDCHAR
STARTCHAR 029F
ENCODING 671
SWIDTH 360 0
DWIDTH 12 0
BBX 8 15 2 0
BITMAP
C0
C0
C0
C0
C0
C0
C0
C0
C0
C0
C0
C0
C0
FF
FF
ENDCHAR
STARTCHAR 02A0
ENCODING 672
SWIDTH 480 0
DWIDTH 16 0
BBX 18 28 2 -7
BITMAP
000FC0
001F80
003800
003800
003800
003800
1FB800
3FF800
78F800
607800
E03800
C03800
C03800
C03800
C03800
C03800
E03800
E07800
78F800
3FF800
1FB800
003800
003800
003800
003800
003800
003800
001800
ENDCHAR
STARTCHAR 02A1
ENCODING 673
SWIDTH 420 0
DWIDTH 14 0
BBX 11 22 2 0
BITMAP
1E00
3F80
7FC0
E0E0
C0E0
C060
0060
00E0
00E0
01C0
03C0
0780
0700
7F80
7F80
7F80
0E00
0E00
0E00
0E00
0E00
0E00
ENDCHAR
STARTCHAR 02A2
ENCODING 674
SWIDTH 420 0
DWIDTH 14 0
BBX 11 22 2 0
BITMAP
0E00
3F80
7FC0
E1C0
C0E0
C060
C000
C000
E000
E000
7000
3800
1C00
7F80
7F80
7F80
0E00
0E00
0E00
0E00
0E00
0E00
ENDCHAR
STARTCHAR 02A3
ENCODING 675
SWIDTH 780 0
DWIDTH 26 0
BBX 23 21 2 0
BITMAP
003800
003800
003800
003800
003800
003800
1FBFFE
3FFFFE
78F80E
60781C
E03838
C03838
C03870
C038E0
C039E0
C039C0
E03B80
E07F00
78FF00
3FFFFE
1FBFFE
ENDCHAR
STARTCHAR 02A4
ENCODING 676
SWIDTH 780 0
DWIDTH 26 0
BBX 22 28 2 -7
BITMAP
003800
003800
003800
003800
003800
003800
1FBFFC
3FFFFC
78F81C
60781C
E03838
C03870
C03870
C038E0
C039F0
C039F8
E03838
E0781C
78F80C
3FF80C
1FB80C
00000C
00000C
00001C
000C38
001FF8
000FF0
0003C0
ENDCHAR
STARTCHAR 02A5
ENCODING 677
SWIDTH 810 0
DWIDTH 27 0
BBX 24 28 2 -7
BITMAP
003800
003800
003800
003800
003800
003800
1FBFFE
3FFFFE
78F80E
60781C
E03838
C03838
C03870
C038E0
C039E3
C039C5
E03B89
E07F0B
78FF0A
3FFFFC
1FBFF8
000018
000010
000010
000210
000320
000320
0001C0
ENDCHAR
STARTCHAR 02A6
ENCODING 678
SWIDTH 630 0
DWIDTH 21 0
BBX 18 19 2 0
BITMAP
080000
180000
180000
180000
FF3E00
FF7F00
18F780
18E180
18E000
187000
187C00
181F00
180780
180180
1801C0
180180
180780
1FFF00
1FFE00
ENDCHAR
STARTCHAR 02A7
ENCODING 679
SWIDTH 450 0
DWIDTH 15 0
BBX 17 29 2 -7
BITMAP
000F00
001F80
003F00
083000
187000
187000
187000
FF7000
FF7000
187000
187000
187000
187000
187000
187000
187000
187000
187000
187000
187000
1FF000
1FF000
007000
007000
007000
007000
07E000
0FC000
078000
ENDCHAR
STARTCHAR 02A8
ENCODING 680
SWIDTH 690 0
DWIDTH 23 0
BBX 20 26 2 -7
BITMAP
080000
180000
180000
180000
FF1F80
FF3FC0
1878E0
187070
18E020
18C000
18C000
18C000
18C010
18C070
18E050
187090
1878A0
1FFFE0
1FFF80
000080
000180
000100
002100
003100
003200
001C00
ENDCHAR
STARTCHAR 02A9
ENCODING 681
SWIDTH 720 0
DWIDTH 24 0
BBX 21 29 2 -7
BITMAP
038000
0FC000
1F8000
180000
180000
180000
180000
18CFC0
FFFFE0
FFF8F0
FFF070
18E030
18E038
18C038
18C038
18C038
18C038
18C038
18C038
18C038
18C038
18C038
000038
000038
000038
000038
0003F0
0007E0
0003C0
ENDCHAR
STARTCHAR 02AA
ENCODING 682
SWIDTH 480 0
DWIDTH 16 0
BBX 13 21 2 0
BITMAP
C000
C000
C000
C000
C000
C000
C7C0
CFE0
CEF0
DC30
DC00
CE00
C7C0
C3E0
C070
C038
C038
C038
C0F0
FFE0
FFC0
ENDCHAR
STARTCHAR 02AB
ENCODING 683
SWIDTH 510 0
DWIDTH 17 0
BBX 14 21 2 0
BITMAP
C000
C000
C000
C000
C000
C000
CFFC
CFFC
C01C
C01C
C038
C070
C0E0
C0E0
C1C0
C380
C380
C700
CE00
FFFC
FFFC
ENDCHAR
STARTCHAR 02AC
ENCODING 684
SWIDTH 390 0
DWIDTH 13 0
BBX 9 16 2 0
BITMAP
CC80
DD80
DD80
5D80
7700
7700
7700
3300
CC80
DD80
DD80
5D80
7700
7700
7700
3300
ENDCHAR
STARTCHAR 02AD
ENCODING 685
SWIDTH 420 0
DWIDTH 14 0
BBX 11 15 2 0
BITMAP
FFE0
FFE0
C060
C060
C060
0000
0000
0000
0000
0000
FFE0
FFE0
FFE0
C060
C060
ENDCHAR
STARTCHAR 02AE
ENCODING 686
SWIDTH 630 0
DWIDTH 21 0
BBX 18 22 2 -7
BITMAP
F801C0
FC01C0
4E01C0
0601C0
0601C0
0601C0
0601C0
0601C0
0601C0
0601C0
0703C0
0703C0
038FC0
01FFC0
00FDC0
0001C0
0001C0
0001C0
0001C0
0001C0
0001C0
0000C0
ENDCHAR
STARTCHAR 02AF
ENCODING 687
SWIDTH 630 0
DWIDTH 21 0
BBX 23 22 2 -7
BITMAP
F801C0
FC01C0
4E01C0
0601C0
0601C0
0601C0
0601C0
0601C0
0601C0
0601C0
0703C0
0703C0
038FC0
01FFC0
00FDC0
0001C0
0001C0
0001C0
0001C0
0000FC
00007E
00003C
ENDCHAR
STARTCHAR 02B0
ENCODING 688
SWIDTH 300 0
DWIDTH 10 0
BBX 7 11 2 15
BITMAP
80
80
80
B8
FC
CC
86
86
86
86
86
ENDCHAR
STARTCHAR 02B1
ENCODING 689
SWIDTH 300 0
DWIDTH 10 0
BBX 7 11 2 15
BITMAP
70
E0
80
B8
FC
CC
86
86
86
86
86
ENDCHAR
STARTCHAR 02B2
ENCODING 690
SWIDTH 210 0
DWIDTH 7 0
BBX 4 14 2 12
BITMAP
30
10
30
30
30
30
30
30
30
30
30
30
F0
40
ENDCHAR
STARTCHAR 02B3
ENCODING 691
SWIDTH 210 0
DWIDTH 7 0
BBX 4 8 2 15
BITMAP
B0
F0
C0
80
80
80
80
80
ENDCHAR
STARTCHAR 02B4
ENCODING 692
SWIDTH 210 0
DWIDTH 7 0
BBX 4 8 2 15
BITMAP
10
10
10
10
30
30
70
F0
ENDCHAR
STARTCHAR 02B5
ENCODING 693
SWIDTH 300 0
DWIDTH 10 0
BBX 7 12 2 11
BITMAP
10
10
10
10
30
30
70
F0
10
10
1E
0C
ENDCHAR
STARTCHAR 02B6
ENCODING 694
SWIDTH 270 0
DWIDTH 9 0
BBX 5 8 2 15
BITMAP
98
98
B0
B0
F0
B8
B8
F0
ENDCHAR
STARTCHAR 02B7
ENCODING 695
SWIDTH 390 0
DWIDTH 13 0
BBX 10 8 2 15
BITMAP
88C0
DD80
DD80
DD80
7700
7700
7700
3300
ENDCHAR
STARTCHAR 02B8
ENCODING 696
SWIDTH 300 0
DWIDTH 10 0
BBX 7 12 2 11
BITMAP
C6
C6
CC
6C
6C
38
38
30
30
30
E0
C0
ENDCHAR
STARTCHAR 02B9
ENCODING 697
SWIDTH 240 0
DWIDTH 8 0
BBX 4 9 2 13
BITMAP
70
70
60
E0
E0
C0
C0
80
80
ENDCHAR
STARTCHAR 02BA
ENCODING 698
SWIDTH 390 0
DWIDTH 13 0
BBX 9 9 2 13
BITMAP
7380
7380
6300
E700
E600
C600
C600
8400
8400
ENDCHAR
STARTCHAR 02BB
ENCODING 699
SWIDTH 180 0
DWIDTH 6 0
BBX 5 9 1 13
BITMAP
08
30
40
C0
80
A0
F0
F0
70
ENDCHAR
STARTCHAR 02BC
ENCODING 700
SWIDTH 180 0
DWIDTH 6 0
BBX 5 9 1 13
BITMAP
60
70
78
78
08
18
10
20
80
ENDCHAR
STARTCHAR 02BD
ENCODING 701
SWIDTH 180 0
DWIDTH 6 0
BBX 5 9 1 13
BITMAP
20
F0
F0
F0
80
80
40
20
18
ENDCHAR
STARTCHAR 02BE
ENCODING 702
SWIDTH 180 0
DWIDTH 6 0
BBX 2 6 2 16
BITMAP
80
C0
40
40
C0
80
ENDCHAR
STARTCHAR 02BF
ENCODING 703
SWIDTH 180 0
DWIDTH 6 0
BBX 2 6 2 16
BITMAP
40
C0
80
80
C0
40
ENDCHAR
STARTCHAR 02C0
ENCODING 704
SWIDTH 270 0
DWIDTH 9 0
BBX 6 11 2 15
BITMAP
78
F8
8C
0C
0C
18
30
30
30
30
30
ENDCHAR
STARTCHAR 02C1
ENCODING 705
SWIDTH 270 0
DWIDTH 9 0
BBX 6 11 2 15
BITMAP
78
F8
8C
80
C0
E0
60
30
30
30
30
ENDCHAR
STARTCHAR 02C2
ENCODING 706
SWIDTH 390 0
DWIDTH 13 0
BBX 9 12 2 4
BITMAP
0080
0180
0700
0F00
3E00
7E00
FC00
7E00
1E00
0F00
0300
0180
ENDCHAR
STARTCHAR 02C3
ENCODING 707
SWIDTH 390 0
DWIDTH 13 0
BBX 9 12 2 4
BITMAP
8000
4000
7000
3800
3E00
3F00
1F80
3F00
3C00
7800
6000
C000
ENDCHAR
STARTCHAR 02C4
ENCODING 708
SWIDTH 480 0
DWIDTH 16 0
BBX 12 9 2 7
BITMAP
0600
0700
0F00
1F80
1FC0
3FC0
79E0
6070
8010
ENDCHAR
STARTCHAR 02C5
ENCODING 709
SWIDTH 480 0
DWIDTH 16 0
BBX 13 10 2 6
BITMAP
0008
C030
70E0
3FE0
3FC0
1F80
0F80
0F00
0600
0200
ENDCHAR
STARTCHAR 02C6
ENCODING 710
SWIDTH 330 0
DWIDTH 11 0
BBX 7 4 2 17
BITMAP
3C
6C
46
82
ENDCHAR
STARTCHAR 02C7
ENCODING 711
SWIDTH 330 0
DWIDTH 11 0
BBX 7 4 2 17
BITMAP
82
46
6C
3C
ENDCHAR
STARTCHAR 02C8
ENCODING 712
SWIDTH 120 0
DWIDTH 4 0
BBX 1 8 2 17
BITMAP
80
80
80
80
80
80
80
80
ENDCHAR
STARTCHAR 02C9
ENCODING 713
SWIDTH 330 0
DWIDTH 11 0
BBX 8 3 2 17
BITMAP
FF
FF
FF
ENDCHAR
STARTCHAR 02CA
ENCODING 714
SWIDTH 240 0
DWIDTH 8 0
BBX 5 4 2 17
BITMAP
38
60
40
80
ENDCHAR
STARTCHAR 02CB
ENCODING 715
SWIDTH 240 0
DWIDTH 8 0
BBX 5 4 2 17
BITMAP
E0
30
10
08
ENDCHAR
STARTCHAR 02CC
ENCODING 716
SWIDTH 120 0
DWIDTH 4 0
BBX 1 8 2 -10
BITMAP
80
80
80
80
80
80
80
80
ENDCHAR
STARTCHAR 02CD
ENCODING 717
SWIDTH 330 0
DWIDTH 11 0
BBX 8 3 2 -6
BITMAP
FF
FF
FF
ENDCHAR
STARTCHAR 02CE
ENCODING 718
SWIDTH 240 0
DWIDTH 8 0
BBX 5 4 2 -7
BITMAP
E0
30
10
08
ENDCHAR
STARTCHAR 02CF
ENCODING 719
SWIDTH 240 0
DWIDTH 8 0
BBX 5 4 2 -7
BITMAP
38
60
40
80
ENDCHAR
STARTCHAR 02D0
ENCODING 720
SWIDTH 240 0
DWIDTH 8 0
BBX 4 15 2 0
BITMAP
F0
F0
60
60
40
00
00
00
00
00
40
60
60
F0
F0
ENDCHAR
STARTCHAR 02D1
ENCODING 721
SWIDTH 240 0
DWIDTH 8 0
BBX 4 5 2 10
BITMAP
F0
F0
60
60
40
ENDCHAR
STARTCHAR 02D2
ENCODING 722
SWIDTH 180 0
DWIDTH 6 0
BBX 2 5 2 9
BITMAP
C0
40
40
C0
80
ENDCHAR
STARTCHAR 02D3
ENCODING 723
SWIDTH 180 0
DWIDTH 6 0
BBX 2 5 2 9
BITMAP
C0
C0
80
C0
40
ENDCHAR
STARTCHAR 02D4
ENCODING 724
SWIDTH 420 0
DWIDTH 14 0
BBX 11 6 2 10
BITMAP
0E00
0E00
0E00
0E00
FFE0
FFE0
ENDCHAR
STARTCHAR 02D5
ENCODING 725
SWIDTH 420 0
DWIDTH 14 0
BBX 11 7 2 5
BITMAP
FFE0
FFE0
0E00
0E00
0E00
0E00
0E00
ENDCHAR
STARTCHAR 02D6
ENCODING 726
SWIDTH 420 0
DWIDTH 14 0
BBX 11 11 2 5
BITMAP
0E00
0E00
0E00
0E00
FFE0
FFE0
0E00
0E00
0E00
0E00
0E00
ENDCHAR
STARTCHAR 02D7
ENCODING 727
SWIDTH 420 0
DWIDTH 14 0
BBX 11 2 2 10
BITMAP
FFE0
FFE0
ENDCHAR
STARTCHAR 02D8
ENCODING 728
SWIDTH 360 0
DWIDTH 12 0
BBX 9 4 2 17
BITMAP
C180
C300
7F00
3C00
ENDCHAR
STARTCHAR 02D9
ENCODING 729
SWIDTH 180 0
DWIDTH 6 0
BBX 3 4 2 17
BITMAP
C0
E0
E0
C0
ENDCHAR
STARTCHAR 02DA
ENCODING 730
SWIDTH 240 0
DWIDTH 8 0
BBX 5 6 2 16
BITMAP
70
F8
88
98
F8
70
ENDCHAR
STARTCHAR 02DB
ENCODING 731
SWIDTH 300 0
DWIDTH 10 0
BBX 6 7 2 -6
BITMAP
80
80
80
C0
E0
FC
78
ENDCHAR
STARTCHAR 02DC
ENCODING 732
SWIDTH 420 0
DWIDTH 14 0
BBX 11 4 2 17
BITMAP
7020
FC60
8FC0
83C0
ENDCHAR
STARTCHAR 02DD
ENCODING 733
SWIDTH 390 0
DWIDTH 13 0
BBX 10 4 2 17
BITMAP
39C0
6300
4600
8400
ENDCHAR
STARTCHAR 02DE
ENCODING 734
SWIDTH 240 0
DWIDTH 8 0
BBX 7 7 0 4
BITMAP
02
06
E2
E6
66
3C
18
ENDCHAR
STARTCHAR 02DF
ENCODING 735
SWIDTH 330 0
DWIDTH 11 0
BBX 7 6 2 16
BITMAP
C6
6C
38
38
6C
C6
ENDCHAR
STARTCHAR 02E0
ENCODING 736
SWIDTH 300 0
DWIDTH 10 0
BBX 7 12 2 11
BITMAP
C6
C6
CC
6C
6C
38
38
30
38
38
38
10
ENDCHAR
STARTCHAR 02E1
ENCODING 737
SWIDTH 180 0
DWIDTH 6 0
BBX 3 11 2 15
BITMAP
80
80
80
80
80
80
80
80
80
80
E0
ENDCHAR
STARTCHAR 02E2
ENCODING 738
SWIDTH 240 0
DWIDTH 8 0
BBX 5 8 2 15
BITMAP
70
F8
D8
E0
78
98
D8
F0
ENDCHAR
STARTCHAR 02E3
ENCODING 739
SWIDTH 300 0
DWIDTH 10 0
BBX 7 8 2 15
BITMAP
C6
EC
6C
38
38
38
6C
C6
ENDCHAR
STARTCHAR 02E4
ENCODING 740
SWIDTH 270 0
DWIDTH 9 0
BBX 6 11 2 15
BITMAP
78
F8
8C
80
C0
E0
60
30
30
30
30
ENDCHAR
STARTCHAR 02E5
ENCODING 741
SWIDTH 330 0
DWIDTH 11 0
BBX 8 21 2 0
BITMAP
FF
FF
07
07
07
07
07
07
07
07
07
07
07
07
07
07
07
07
07
07
07
ENDCHAR
STARTCHAR 02E6
ENCODING 742
SWIDTH 330 0
DWIDTH 11 0
BBX 8 21 2 0
BITMAP
07
07
07
07
FF
FF
FF
07
07
07
07
07
07
07
07
07
07
07
07
07
07
ENDCHAR
STARTCHAR 02E7
ENCODING 743
SWIDTH 330 0
DWIDTH 11 0
BBX 8 21 2 0
BITMAP
07
07
07
07
07
07
07
07
07
FF
FF
07
07
07
07
07
07
07
07
07
07
ENDCHAR
STARTCHAR 02E8
ENCODING 744
SWIDTH 330 0
DWIDTH 11 0
BBX 8 21 2 0
BITMAP
07
07
07
07
07
07
07
07
07
07
07
07
07
07
FF
FF
07
07
07
07
07
ENDCHAR
STARTCHAR 02E9
ENCODING 745
SWIDTH 330 0
DWIDTH 11 0
BBX 8 21 2 0
BITMAP
07
07
07
07
07
07
07
07
07
07
07
07
07
07
07
07
07
07
07
FF
FF
ENDCHAR
STARTCHAR 02EA
ENCODING 746
SWIDTH 300 0
DWIDTH 10 0
BBX 7 15 2 0
BITMAP
C0
C0
C0
C0
C0
C0
C0
C0
C0
C0
C0
C0
C0
FE
FE
ENDCHAR
STARTCHAR 02EB
ENCODING 747
SWIDTH 300 0
DWIDTH 10 0
BBX 7 15 2 0
BITMAP
C0
C0
C0
C0
C0
C0
FE
FE
FE
C0
C0
C0
C0
C0
C0
ENDCHAR
STARTCHAR 02EC
ENCODING 748
SWIDTH 330 0
DWIDTH 11 0
BBX 7 5 2 -7
BITMAP
82
46
6C
3C
38
ENDCHAR
STARTCHAR 02ED
ENCODING 749
SWIDTH 330 0
DWIDTH 11 0
BBX 7 5 2 18
BITMAP
FE
FE
00
FE
FE
ENDCHAR
STARTCHAR 02EE
ENCODING 750
SWIDTH 360 0
DWIDTH 12 0
BBX 10 9 1 13
BITMAP
6180
73C0
7BC0
79C0
0840
1840
1080
2100
8200
ENDCHAR
STARTCHAR 02EF
ENCODING 751
SWIDTH 270 0
DWIDTH 9 0
BBX 6 4 2 -7
BITMAP
8C
78
30
30
ENDCHAR
STARTCHAR 02F0
ENCODING 752
SWIDTH 270 0
DWIDTH 9 0
BBX 6 5 2 -7
BITMAP
20
30
78
C8
04
ENDCHAR
STARTCHAR 02F1
ENCODING 753
SWIDTH 240 0
DWIDTH 8 0
BBX 4 6 2 -8
BITMAP
10
30
E0
60
30
10
ENDCHAR
STARTCHAR 02F2
ENCODING 754
SWIDTH 240 0
DWIDTH 8 0
BBX 4 6 2 -8
BITMAP
80
40
70
70
C0
80
ENDCHAR
STARTCHAR 02F3
ENCODING 755
SWIDTH 240 0
DWIDTH 8 0
BBX 5 6 2 -7
BITMAP
70
F8
C8
88
F8
70
ENDCHAR
STARTCHAR 02F4
ENCODING 756
SWIDTH 240 0
DWIDTH 8 0
BBX 5 5 2 8
BITMAP
E0
70
30
18
08
ENDCHAR
STARTCHAR 02F5
ENCODING 757
SWIDTH 390 0
DWIDTH 13 0
BBX 10 5 2 8
BITMAP
E700
7380
3180
18C0
0840
ENDCHAR
STARTCHAR 02F6
ENCODING 758
SWIDTH 390 0
DWIDTH 13 0
BBX 10 5 2 8
BITMAP
39C0
7300
6200
C400
8000
ENDCHAR
STARTCHAR 02F7
ENCODING 759
SWIDTH 420 0
DWIDTH 14 0
BBX 11 4 2 -6
BITMAP
7020
FC60
8FE0
83C0
ENDCHAR
STARTCHAR 02F8
ENCODING 760
SWIDTH 180 0
DWIDTH 6 0
BBX 3 16 2 6
BITMAP
C0
E0
E0
40
00
00
00
00
00
00
00
00
C0
E0
E0
C0
ENDCHAR
STARTCHAR 02F9
ENCODING 761
SWIDTH 300 0
DWIDTH 10 0
BBX 7 9 2 12
BITMAP
FE
FE
C0
C0
C0
C0
C0
C0
C0
ENDCHAR
STARTCHAR 02FA
ENCODING 762
SWIDTH 300 0
DWIDTH 10 0
BBX 7 9 2 12
BITMAP
FE
FE
06
06
06
06
06
06
06
ENDCHAR
STARTCHAR 02FB
ENCODING 763
SWIDTH 300 0
DWIDTH 10 0
BBX 7 10 2 0
BITMAP
C0
C0
C0
C0
C0
C0
C0
C0
FE
FE
ENDCHAR
STARTCHAR 02FC
ENCODING 764
SWIDTH 300 0
DWIDTH 10 0
BBX 7 10 2 0
BITMAP
06
06
06
06
06
06
06
06
FE
FE
ENDCHAR
STARTCHAR 02FD
ENCODING 765
SWIDTH 330 0
DWIDTH 11 0
BBX 8 4 2 -5
BITMAP
83
83
FF
FF
ENDCHAR
STARTCHAR 02FE
ENCODING 766
SWIDTH 330 0
DWIDTH 11 0
BBX 8 4 2 -5
BITMAP
80
80
FF
FF
ENDCHAR
STARTCHAR 02FF
ENCODING 767
SWIDTH 480 0
DWIDTH 16 0
BBX 13 5 2 -6
BITMAP
1000
6000
FFF8
6000
1000
ENDCHAR
STARTCHAR 0300
ENCODING 768
SWIDTH 0 0
DWIDTH 0 0
BBX 5 4 -3 17
BITMAP
E0
70
30
18
ENDCHAR
STARTCHAR 0301
ENCODING 769
SWIDTH 0 0
DWIDTH 0 0
BBX 5 4 -2 17
BITMAP
38
70
60
C0
ENDCHAR
STARTCHAR 0302
ENCODING 770
SWIDTH 0 0
DWIDTH 0 0
BBX 8 4 -4 17
BITMAP
3C
7E
66
C3
ENDCHAR
STARTCHAR 0303
ENCODING 771
SWIDTH 0 0
DWIDTH 0 0
BBX 12 4 -6 17
BITMAP
3830
7E30
C7E0
C1C0
ENDCHAR
STARTCHAR 0304
ENCODING 772
SWIDTH 0 0
DWIDTH 0 0
BBX 8 3 -4 17
BITMAP
FF
FF
FF
ENDCHAR
STARTCHAR 0306
ENCODING 774
SWIDTH 0 0
DWIDTH 0 0
BBX 8 4 -4 17
BITMAP
C3
C3
7E
3C
ENDCHAR
STARTCHAR 0307
ENCODING 775
SWIDTH 0 0
DWIDTH 0 0
BBX 4 4 -2 17
BITMAP
60
F0
F0
60
ENDCHAR
STARTCHAR 0308
ENCODING 776
SWIDTH 0 0
DWIDTH 0 0
BBX 9 4 -5 17
BITMAP
6180
F380
7380
6180
ENDCHAR
STARTCHAR 0309
ENCODING 777
SWIDTH 0 0
DWIDTH 0 0
BBX 6 8 -3 16
BITMAP
30
DC
CC
CC
08
10
10
20
ENDCHAR
STARTCHAR 030A
ENCODING 778
SWIDTH 0 0
DWIDTH 0 0
BBX 6 6 -3 16
BITMAP
30
78
CC
CC
78
30
ENDCHAR
STARTCHAR 030B
ENCODING 779
SWIDTH 0 0
DWIDTH 0 0
BBX 9 4 -3 17
BITMAP
7B80
6300
C600
8400
ENDCHAR
STARTCHAR 030C
ENCODING 780
SWIDTH 0 0
DWIDTH 0 0
BBX 8 4 -4 17
BITMAP
C3
66
7E
3C
ENDCHAR
STARTCHAR 030D
ENCODING 781
SWIDTH 0 0
DWIDTH 0 0
BBX 2 8 -1 17
BITMAP
C0
C0
C0
C0
C0
C0
C0
C0
ENDCHAR
STARTCHAR 030E
ENCODING 782
SWIDTH 0 0
DWIDTH 0 0
BBX 4 8 -2 17
BITMAP
90
90
90
90
90
90
90
90
ENDCHAR
STARTCHAR 030F
ENCODING 783
SWIDTH 0 0
DWIDTH 0 0
BBX 9 4 -6 17
BITMAP
EF00
6300
3180
1080
ENDCHAR
STARTCHAR 0310
ENCODING 784
SWIDTH 0 0
DWIDTH 0 0
BBX 8 6 -4 17
BITMAP
18
3C
FB
C3
7E
3C
ENDCHAR
STARTCHAR 0311
ENCODING 785
SWIDTH 0 0
DWIDTH 0 0
BBX 10 4 -5 17
BITMAP
3F00
7F80
6180
C0C0
ENDCHAR
STARTCHAR 0312
ENCODING 786
SWIDTH 0 0
DWIDTH 0 0
BBX 4 9 -2 16
BITMAP
10
20
40
80
80
E0
F0
F0
60
ENDCHAR
STARTCHAR 0313
ENCODING 787
SWIDTH 0 0
DWIDTH 0 0
BBX 4 7 -2 16
BITMAP
40
F0
F0
10
10
20
40
ENDCHAR
STARTCHAR 0314
ENCODING 788
SWIDTH 0 0
DWIDTH 0 0
BBX 4 7 -2 16
BITMAP
20
F0
F0
80
80
40
20
ENDCHAR
STARTCHAR 0315
ENCODING 789
SWIDTH 0 0
DWIDTH 0 0
BBX 5 9 3 13
BITMAP
60
F0
F0
78
18
10
30
60
80
ENDCHAR
STARTCHAR 0316
ENCODING 790
SWIDTH 0 0
DWIDTH 0 0
BBX 5 5 -3 -7
BITMAP
E0
60
30
18
08
ENDCHAR
STARTCHAR 0317
ENCODING 791
SWIDTH 0 0
DWIDTH 0 0
BBX 5 5 -2 -7
BITMAP
38
30
60
C0
80
ENDCHAR
STARTCHAR 0318
ENCODING 792
SWIDTH 0 0
DWIDTH 0 0
BBX 5 8 -4 -10
BITMAP
18
18
18
F8
F8
18
18
18
ENDCHAR
STARTCHAR 0319
ENCODING 793
SWIDTH 0 0
DWIDTH 0 0
BBX 5 8 -1 -10
BITMAP
C0
C0
C0
F8
F8
C0
C0
C0
ENDCHAR
STARTCHAR 031A
ENCODING 794
SWIDTH 0 0
DWIDTH 0 0
BBX 8 6 -4 17
BITMAP
FF
FF
03
03
03
03
ENDCHAR
STARTCHAR 031B
ENCODING 795
SWIDTH 0 0
DWIDTH 0 0
BBX 5 9 -2 8
BITMAP
60
F0
F8
78
18
10
30
60
80
ENDCHAR
STARTCHAR 031C
ENCODING 796
SWIDTH 0 0
DWIDTH 0 0
BBX 2 5 -1 -7
BITMAP
40
C0
80
C0
C0
ENDCHAR
STARTCHAR 031D
ENCODING 797
SWIDTH 0 0
DWIDTH 0 0
BBX 8 5 -4 -7
BITMAP
18
18
18
FF
FF
ENDCHAR
STARTCHAR 031E
ENCODING 798
SWIDTH 0 0
DWIDTH 0 0
BBX 8 5 -4 -10
BITMAP
FF
FF
18
18
18
ENDCHAR
STARTCHAR 031F
ENCODING 799
SWIDTH 0 0
DWIDTH 0 0
BBX 8 8 -4 -10
BITMAP
18
18
18
FF
FF
18
18
18
ENDCHAR
STARTCHAR 0320
ENCODING 800
SWIDTH 0 0
DWIDTH 0 0
BBX 8 2 -4 -7
BITMAP
FF
FF
ENDCHAR
STARTCHAR 0321
ENCODING 801
SWIDTH 0 0
DWIDTH 0 0
BBX 7 12 -9 -7
BITMAP
06
06
06
06
06
06
06
06
06
7E
FC
70
ENDCHAR
STARTCHAR 0322
ENCODING 802
SWIDTH 0 0
DWIDTH 0 0
BBX 7 12 -4 -7
BITMAP
C0
C0
C0
C0
C0
C0
C0
C0
E0
FC
7E
1C
ENDCHAR
STARTCHAR 0323
ENCODING 803
SWIDTH 0 0
DWIDTH 0 0
BBX 4 4 -2 -6
BITMAP
60
F0
F0
60
ENDCHAR
STARTCHAR 0324
ENCODING 804
SWIDTH 0 0
DWIDTH 0 0
BBX 10 4 -5 -6
BITMAP
7380
F3C0
7380
2000
ENDCHAR
STARTCHAR 0325
ENCODING 805
SWIDTH 0 0
DWIDTH 0 0
BBX 6 6 -3 -7
BITMAP
30
78
CC
CC
78
70
ENDCHAR
STARTCHAR 0326
ENCODING 806
SWIDTH 0 0
DWIDTH 0 0
BBX 4 8 -2 -10
BITMAP
E0
F0
F0
10
10
10
20
C0
ENDCHAR
STARTCHAR 0327
ENCODING 807
SWIDTH 0 0
DWIDTH 0 0
BBX 6 7 -3 -7
BITMAP
30
78
1C
04
0C
FC
F0
ENDCHAR
STARTCHAR 0328
ENCODING 808
SWIDTH 0 0
DWIDTH 0 0
BBX 7 7 -1 -6
BITMAP
40
80
80
C0
E0
FE
38
ENDCHAR
STARTCHAR 0329
ENCODING 809
SWIDTH 0 0
DWIDTH 0 0
BBX 2 8 -1 -10
BITMAP
C0
C0
C0
C0
C0
C0
C0
C0
ENDCHAR
STARTCHAR 032A
ENCODING 810
SWIDTH 0 0
DWIDTH 0 0
BBX 8 4 -4 -6
BITMAP
FF
C3
C3
C3
ENDCHAR
STARTCHAR 032B
ENCODING 811
SWIDTH 0 0
DWIDTH 0 0
BBX 10 5 -5 -7
BITMAP
8440
8C40
8C40
7F80
0100
ENDCHAR
STARTCHAR 032C
ENCODING 812
SWIDTH 0 0
DWIDTH 0 0
BBX 8 5 -4 -7
BITMAP
83
66
7E
3C
3C
ENDCHAR
STARTCHAR 032D
ENCODING 813
SWIDTH 0 0
DWIDTH 0 0
BBX 8 5 -4 -7
BITMAP
3C
7E
66
C3
81
ENDCHAR
STARTCHAR 032E
ENCODING 814
SWIDTH 0 0
DWIDTH 0 0
BBX 8 4 -4 -6
BITMAP
83
C3
FF
3C
ENDCHAR
STARTCHAR 032F
ENCODING 815
SWIDTH 0 0
DWIDTH 0 0
BBX 10 4 -5 -6
BITMAP
3F00
7F80
6180
C0C0
ENDCHAR
STARTCHAR 0330
ENCODING 816
SWIDTH 0 0
DWIDTH 0 0
BBX 12 4 -6 -6
BITMAP
3830
7E30
C7E0
C1C0
ENDCHAR
STARTCHAR 0331
ENCODING 817
SWIDTH 0 0
DWIDTH 0 0
BBX 8 3 -4 -5
BITMAP
FF
FF
FF
ENDCHAR
STARTCHAR 0334
ENCODING 820
SWIDTH 0 0
DWIDTH 0 0
BBX 12 3 -6 5
BITMAP
7C30
6F60
C3E0
ENDCHAR
STARTCHAR 0335
ENCODING 821
SWIDTH 0 0
DWIDTH 0 0
BBX 8 3 -4 6
BITMAP
FF
FF
FF
ENDCHAR
STARTCHAR 0336
ENCODING 822
SWIDTH 0 0
DWIDTH 0 0
BBX 22 3 -11 6
BITMAP
FFFFFC
FFFFFC
FFFFFC
ENDCHAR
STARTCHAR 0337
ENCODING 823
SWIDTH 0 0
DWIDTH 0 0
BBX 14 19 -7 -2
BITMAP
0008
001C
0038
0038
0070
00E0
00E0
01C0
0380
0380
0700
0E00
1C00
1C00
3800
7000
7000
E000
4000
ENDCHAR
STARTCHAR 0338
ENCODING 824
SWIDTH 0 0
DWIDTH 0 0
BBX 18 23 -9 -4
BITMAP
0001C0
0001C0
000380
000700
000E00
000E00
001C00
003800
003800
007000
00E000
01E000
01C000
038000
070000
070000
0E0000
1C0000
1C0000
380000
700000
F00000
E00000
ENDCHAR
STARTCHAR 0339
ENCODING 825
SWIDTH 0 0
DWIDTH 0 0
BBX 2 5 -1 -7
BITMAP
80
C0
40
C0
C0
ENDCHAR
STARTCHAR 033A
ENCODING 826
SWIDTH 0 0
DWIDTH 0 0
BBX 8 4 -4 -6
BITMAP
C3
C3
FF
FF
ENDCHAR
STARTCHAR 033B
ENCODING 827
SWIDTH 0 0
DWIDTH 0 0
BBX 8 5 -4 -7
BITMAP
FF
C3
C3
C3
FF
ENDCHAR
STARTCHAR 033C
ENCODING 828
SWIDTH 0 0
DWIDTH 0 0
BBX 12 4 -6 -6
BITMAP
79E0
7FE0
8F10
8410
ENDCHAR
STARTCHAR 033D
ENCODING 829
SWIDTH 0 0
DWIDTH 0 0
BBX 6 6 -3 16
BITMAP
CC
FC
78
78
FC
CC
ENDCHAR
STARTCHAR 033E
ENCODING 830
SWIDTH 0 0
DWIDTH 0 0
BBX 4 11 -2 17
BITMAP
30
E0
C0
C0
C0
60
60
30
30
30
E0
ENDCHAR
STARTCHAR 0340
ENCODING 832
SWIDTH 0 0
DWIDTH 0 0
BBX 5 4 -3 17
BITMAP
E0
70
30
18
ENDCHAR
STARTCHAR 0341
ENCODING 833
SWIDTH 0 0
DWIDTH 0 0
BBX 5 4 -2 17
BITMAP
38
70
60
C0
ENDCHAR
STARTCHAR 0342
ENCODING 834
SWIDTH 0 0
DWIDTH 0 0
BBX 12 4 -6 17
BITMAP
3830
7E30
C7E0
C1C0
ENDCHAR
STARTCHAR 0343
ENCODING 835
SWIDTH 0 0
DWIDTH 0 0
BBX 4 7 -2 16
BITMAP
40
F0
F0
10
10
20
40
ENDCHAR
STARTCHAR 0344
ENCODING 836
SWIDTH 0 0
DWIDTH 0 0
BBX 9 7 -5 17
BITMAP
0380
0300
0600
6580
FB80
F380
6180
ENDCHAR
STARTCHAR 0345
ENCODING 837
SWIDTH 0 0
DWIDTH 0 0
BBX 5 6 -1 -8
BITMAP
C0
C0
C0
C0
F8
F8
ENDCHAR
STARTCHAR 0346
ENCODING 838
SWIDTH 0 0
DWIDTH 0 0
BBX 8 4 -4 17
BITMAP
FF
FF
C3
C3
ENDCHAR
STARTCHAR 0347
ENCODING 839
SWIDTH 0 0
DWIDTH 0 0
BBX 8 5 -4 -8
BITMAP
FF
FF
00
FF
FF
ENDCHAR
STARTCHAR 0348
ENCODING 840
SWIDTH 0 0
DWIDTH 0 0
BBX 4 8 -2 -10
BITMAP
90
90
90
90
90
90
90
90
ENDCHAR
STARTCHAR 0349
ENCODING 841
SWIDTH 0 0
DWIDTH 0 0
BBX 8 6 -4 -8
BITMAP
FF
03
03
03
03
03
ENDCHAR
STARTCHAR 034A
ENCODING 842
SWIDTH 0 0
DWIDTH 0 0
BBX 12 8 -6 17
BITMAP
0100
0180
3330
7E30
4FE0
CFE0
0C00
1800
ENDCHAR
STARTCHAR 034B
ENCODING 843
SWIDTH 0 0
DWIDTH 0 0
BBX 12 10 -6 16
BITMAP
0600
0F00
0F00
3830
7E30
C7E0
C3E0
0600
0F00
0F00
ENDCHAR
STARTCHAR 034C
ENCODING 844
SWIDTH 0 0
DWIDTH 0 0
BBX 12 8 -6 16
BITMAP
7C30
7E20
C7E0
C0C0
7830
7E20
C7E0
C1C0
ENDCHAR
STARTCHAR 034D
ENCODING 845
SWIDTH 0 0
DWIDTH 0 0
BBX 12 6 -6 -8
BITMAP
1080
2040
FFF0
E070
30C0
1080
ENDCHAR
STARTCHAR 034E
ENCODING 846
SWIDTH 0 0
DWIDTH 0 0
BBX 6 6 -3 -8
BITMAP
30
30
78
FC
30
30
ENDCHAR
STARTCHAR 034F
ENCODING 847
SWIDTH 0 0
DWIDTH 0 0
BBX 0 0 0 0
BITMAP
ENDCHAR
STARTCHAR 0350
ENCODING 848
SWIDTH 0 0
DWIDTH 0 0
BBX 4 6 -2 17
BITMAP
80
C0
60
70
C0
80
ENDCHAR
STARTCHAR 0351
ENCODING 849
SWIDTH 0 0
DWIDTH 0 0
BBX 2 6 -1 16
BITMAP
40
C0
80
80
C0
40
ENDCHAR
STARTCHAR 0352
ENCODING 850
SWIDTH 0 0
DWIDTH 0 0
BBX 9 6 -5 17
BITMAP
3F00
7F80
6180
DE80
1E00
0C00
ENDCHAR
STARTCHAR 0353
ENCODING 851
SWIDTH 0 0
DWIDTH 0 0
BBX 6 7 -3 -9
BITMAP
84
CC
78
30
78
CC
84
ENDCHAR
STARTCHAR 0354
ENCODING 852
SWIDTH 0 0
DWIDTH 0 0
BBX 4 6 -2 -8
BITMAP
10
30
E0
E0
30
10
ENDCHAR
STARTCHAR 0355
ENCODING 853
SWIDTH 0 0
DWIDTH 0 0
BBX 4 6 -2 -8
BITMAP
80
C0
70
70
C0
80
ENDCHAR
STARTCHAR 0356
ENCODING 854
SWIDTH 0 0
DWIDTH 0 0
BBX 12 6 -5 -8
BITMAP
8080
6180
33C0
7A60
6010
8000
ENDCHAR
STARTCHAR 0357
ENCODING 855
SWIDTH 0 0
DWIDTH 0 0
BBX 3 6 -1 16
BITMAP
80
C0
60
60
C0
80
ENDCHAR
STARTCHAR 0358
ENCODING 856
SWIDTH 0 0
DWIDTH 0 0
BBX 4 4 2 17
BITMAP
60
F0
70
60
ENDCHAR
STARTCHAR 0359
ENCODING 857
SWIDTH 0 0
DWIDTH 0 0
BBX 8 8 -4 -10
BITMAP
18
5A
FF
3C
FF
FF
18
18
ENDCHAR
STARTCHAR 035A
ENCODING 858
SWIDTH 0 0
DWIDTH 0 0
BBX 8 5 -4 -7
BITMAP
FF
99
99
FF
20
ENDCHAR
STARTCHAR 035B
ENCODING 859
SWIDTH 0 0
DWIDTH 0 0
BBX 6 9 -3 16
BITMAP
08
18
30
60
FC
38
70
E0
40
ENDCHAR
STARTCHAR 035C
ENCODING 860
SWIDTH 0 0
DWIDTH 0 0
BBX 28 5 -14 -12
BITMAP
80000010
F00000F0
FFE07FF0
1FFFFF80
03FFF800
ENDCHAR
STARTCHAR 035D
ENCODING 861
SWIDTH 0 0
DWIDTH 0 0
BBX 28 5 -14 22
BITMAP
80000010
F00000F0
FFE07FF0
1FFFFF80
03FFFC00
ENDCHAR
STARTCHAR 035E
ENCODING 862
SWIDTH 0 0
DWIDTH 0 0
BBX 28 3 -14 23
BITMAP
FFFFFFF0
FFFFFFF0
FFFFFFF0
ENDCHAR
STARTCHAR 035F
ENCODING 863
SWIDTH 0 0
DWIDTH 0 0
BBX 28 3 -14 -11
BITMAP
FFFFFFF0
FFFFFFF0
FFFFFFF0
ENDCHAR
STARTCHAR 0360
ENCODING 864
SWIDTH 0 0
DWIDTH 0 0
BBX 28 5 -14 22
BITMAP
3FF00000
7FFE0070
E07FC070
E007FFE0
0000FFC0
ENDCHAR
STARTCHAR 0361
ENCODING 865
SWIDTH 0 0
DWIDTH 0 0
BBX 28 5 -14 22
BITMAP
01FFF800
1FFFFF80
FFE07FF0
F00000F0
80000010
ENDCHAR
STARTCHAR 0362
ENCODING 866
SWIDTH 0 0
DWIDTH 0 0
BBX 28 7 -14 -13
BITMAP
00000100
00000180
FFFFFFE0
FFFFFFF0
FFFFFFE0
00000180
00000100
ENDCHAR
STARTCHAR 0363
ENCODING 867
SWIDTH 0 0
DWIDTH 0 0
BBX 6 8 -3 16
BITMAP
78
0C
0C
7C
CC
CC
7C
3C
ENDCHAR
STARTCHAR 0364
ENCODING 868
SWIDTH 0 0
DWIDTH 0 0
BBX 7 8 -4 16
BITMAP
3C
66
7E
FE
40
66
7E
18
ENDCHAR
STARTCHAR 0365
ENCODING 869
SWIDTH 0 0
DWIDTH 0 0
BBX 2 11 -1 16
BITMAP
C0
C0
00
C0
C0
C0
C0
C0
C0
C0
C0
ENDCHAR
STARTCHAR 0366
ENCODING 870
SWIDTH 0 0
DWIDTH 0 0
BBX 7 8 -4 16
BITMAP
3C
66
42
C2
42
66
7E
18
ENDCHAR
STARTCHAR 0367
ENCODING 871
SWIDTH 0 0
DWIDTH 0 0
BBX 8 8 -4 16
BITMAP
C3
C3
C3
C3
43
67
7F
3B
ENDCHAR
STARTCHAR 0368
ENCODING 872
SWIDTH 0 0
DWIDTH 0 0
BBX 6 8 -3 16
BITMAP
78
CC
C0
80
80
CC
7C
30
ENDCHAR
STARTCHAR 0369
ENCODING 873
SWIDTH 0 0
DWIDTH 0 0
BBX 8 12 -4 16
BITMAP
03
03
03
03
3F
67
43
C3
43
67
7F
1B
ENDCHAR
STARTCHAR 036A
ENCODING 874
SWIDTH 0 0
DWIDTH 0 0
BBX 8 12 -4 16
BITMAP
C0
C0
C0
C0
FE
E6
E2
C2
C3
C3
C3
C3
ENDCHAR
STARTCHAR 036B
ENCODING 875
SWIDTH 0 0
DWIDTH 0 0
BBX 10 8 -5 16
BITMAP
FF80
EE80
CC80
CCC0
CCC0
CCC0
CCC0
CCC0
ENDCHAR
STARTCHAR 036C
ENCODING 876
SWIDTH 0 0
DWIDTH 0 0
BBX 4 8 -2 16
BITMAP
F0
C0
C0
80
80
80
80
80
ENDCHAR
STARTCHAR 036D
ENCODING 877
SWIDTH 0 0
DWIDTH 0 0
BBX 4 10 -2 17
BITMAP
60
60
F0
60
60
60
60
60
70
30
ENDCHAR
STARTCHAR 036E
ENCODING 878
SWIDTH 0 0
DWIDTH 0 0
BBX 6 8 -3 16
BITMAP
84
CC
CC
68
78
78
30
30
ENDCHAR
STARTCHAR 036F
ENCODING 879
SWIDTH 0 0
DWIDTH 0 0
BBX 8 8 -4 16
BITMAP
66
7E
3C
18
3C
3C
66
C3
ENDCHAR
STARTCHAR 0370
ENCODING 880
SWIDTH 420 0
DWIDTH 14 0
BBX 11 21 2 0
BITMAP
C000
C000
C000
C000
C000
C000
C000
C000
C000
FFE0
FFE0
C000
C000
C000
C000
C000
C000
C000
C000
C000
C000
ENDCHAR
STARTCHAR 0371
ENCODING 881
SWIDTH 390 0
DWIDTH 13 0
BBX 10 15 2 0
BITMAP
F000
F000
3800
3800
3800
3800
3FC0
3FC0
3FC0
3800
3800
3800
3800
3800
3800
ENDCHAR
STARTCHAR 0372
ENCODING 882
SWIDTH 630 0
DWIDTH 21 0
BBX 18 21 2 0
BITMAP
FFFFC0
FFFFC0
C0C0C0
C0C0C0
C0C0C0
C0C0C0
C0C0C0
C0C0C0
C0C0C0
C0C0C0
C0C0C0
00C000
00C000
00C000
00C000
00C000
00C000
00C000
00C000
00C000
00C000
ENDCHAR
STARTCHAR 0373
ENCODING 883
SWIDTH 510 0
DWIDTH 17 0
BBX 14 15 2 0
BITMAP
1FE0
3FF0
7FF8
E318
E31C
C30C
C30C
C30C
0300
0300
0300
0300
0300
03E0
01E0
ENDCHAR
STARTCHAR 0374
ENCODING 884
SWIDTH 240 0
DWIDTH 8 0
BBX 4 9 2 13
BITMAP
70
70
60
E0
E0
C0
C0
80
80
ENDCHAR
STARTCHAR 0375
ENCODING 885
SWIDTH 240 0
DWIDTH 8 0
BBX 4 10 2 -2
BITMAP
10
10
10
30
30
70
70
60
E0
E0
ENDCHAR
STARTCHAR 0376
ENCODING 886
SWIDTH 600 0
DWIDTH 20 0
BBX 17 21 2 0
BITMAP
C00780
C00780
C00F80
C01F80
C01F80
C03B80
C07380
C07380
C0E380
C1C380
C38380
C38380
C70380
CE0380
CE0380
DC0380
F80380
F80380
F00380
E00380
C00380
ENDCHAR
STARTCHAR 0377
ENCODING 887
SWIDTH 540 0
DWIDTH 18 0
BBX 14 15 2 0
BITMAP
C070
C070
C0F0
C1F0
C3B0
C3B0
C730
CE30
CE30
DC30
F830
F830
F030
E03C
C03C
ENDCHAR
STARTCHAR 037A
ENCODING 890
SWIDTH 240 0
DWIDTH 8 0
BBX 5 6 2 -8
BITMAP
C0
C0
C0
C0
F8
F8
ENDCHAR
STARTCHAR 037B
ENCODING 891
SWIDTH 450 0
DWIDTH 15 0
BBX 12 15 2 0
BITMAP
3F00
7F80
F1C0
E0E0
4060
0070
0070
0070
0070
0070
4060
E0E0
F1C0
7F80
3F00
ENDCHAR
STARTCHAR 037C
ENCODING 892
SWIDTH 450 0
DWIDTH 15 0
BBX 12 15 2 0
BITMAP
1F80
3FC0
78E0
6070
E060
C000
C700
CF00
C700
C000
E020
E070
78E0
3FC0
1F80
ENDCHAR
STARTCHAR 037D
ENCODING 893
SWIDTH 450 0
DWIDTH 15 0
BBX 12 15 2 0
BITMAP
3F00
7F80
F1C0
E0E0
4060
0070
0E70
0E70
0E70
0070
4060
E0E0
F1C0
7F80
3F00
ENDCHAR
STARTCHAR 037E
ENCODING 894
SWIDTH 180 0
DWIDTH 6 0
BBX 5 20 1 -6
BITMAP
70
70
70
00
00
00
00
00
00
00
00
00
70
F8
78
08
08
10
30
60
ENDCHAR
STARTCHAR 037F
ENCODING 895
SWIDTH 360 0
DWIDTH 12 0
BBX 9 21 2 0
BITMAP
0380
0380
0380
0380
0380
0380
0380
0380
0380
0380
0380
0380
0380
0380
0380
0380
0380
C380
E700
7F00
3E00
ENDCHAR
STARTCHAR 0384
ENCODING 900
SWIDTH 240 0
DWIDTH 8 0
BBX 5 4 2 17
BITMAP
38
60
40
80
ENDCHAR
STARTCHAR 0385
ENCODING 901
SWIDTH 360 0
DWIDTH 12 0
BBX 9 7 2 17
BITMAP
0380
0700
0600
CB00
F780
E780
C300
ENDCHAR
STARTCHAR 0386
ENCODING 902
SWIDTH 630 0
DWIDTH 21 0
BBX 18 21 2 0
BITMAP
39C000
61E000
43E000
83F000
037000
073000
073800
063800
0E1800
0C1C00
1C1C00
1FFC00
1FFE00
380600
380700
300700
700300
700380
600380
E00180
C001C0
ENDCHAR
STARTCHAR 0387
ENCODING 903
SWIDTH 180 0
DWIDTH 6 0
BBX 3 4 2 9
BITMAP
40
E0
E0
E0
ENDCHAR
STARTCHAR 0388
ENCODING 904
SWIDTH 720 0
DWIDTH 24 0
BBX 21 21 2 0
BITMAP
39FFF8
61FFF8
418000
818000
018000
018000
018000
018000
018000
01FFE0
01FFE0
018000
018000
018000
018000
018000
018000
018000
018000
01FFF8
01FFF8
ENDCHAR
STARTCHAR 0389
ENCODING 905
SWIDTH 720 0
DWIDTH 24 0
BBX 21 21 2 0
BITMAP
398038
618038
418038
818038
018038
018038
018038
018038
018038
01FFF8
01FFF8
018038
018038
018038
018038
018038
018038
018038
018038
018038
018038
ENDCHAR
STARTCHAR 038A
ENCODING 906
SWIDTH 510 0
DWIDTH 17 0
BBX 14 21 2 0
BITMAP
39FC
61FC
4070
8070
0070
0070
0070
0070
0070
0070
0070
0070
0070
0070
0070
0070
0070
0070
0070
01FC
01FC
ENDCHAR
STARTCHAR 038C
ENCODING 908
SWIDTH 720 0
DWIDTH 24 0
BBX 21 22 2 0
BITMAP
003C00
38FF00
63FF80
4781C0
8700E0
0E0060
0C0070
1C0030
1C0038
180038
180038
180038
180038
1C0038
1C0030
0C0030
0E0070
0E00E0
0701E0
03C3C0
01FF80
00FE00
ENDCHAR
STARTCHAR 038E
ENCODING 910
SWIDTH 810 0
DWIDTH 27 0
BBX 24 21 2 0
BITMAP
39C00F
60E00E
40E01C
807038
003838
003870
001CE0
000EE0
000FC0
000780
000380
000300
000300
000300
000300
000300
000300
000300
000300
000300
000300
ENDCHAR
STARTCHAR 038F
ENCODING 911
SWIDTH 750 0
DWIDTH 25 0
BBX 22 22 2 0
BITMAP
003E00
38FF80
61FFC0
43C1E0
838070
070070
060038
0E0038
0C0018
0C0018
0C001C
0C001C
0C001C
0C0018
0E0018
0E0038
060038
070070
0380E0
01E1E0
0FE3FC
0FE3FC
ENDCHAR
STARTCHAR 0390
ENCODING 912
SWIDTH 240 0
DWIDTH 8 0
BBX 9 24 -2 0
BITMAP
0380
0300
0600
6580
FB80
7380
6180
0000
0000
0C00
0C00
0C00
0C00
0C00
0C00
0C00
0C00
0C00
0C00
0C00
0C00
0C00
0F80
0F80
ENDCHAR
STARTCHAR 0391
ENCODING 913
SWIDTH 630 0
DWIDTH 21 0
BBX 18 21 2 0
BITMAP
01C000
01E000
03E000
03F000
037000
073000
073800
063800
0E1800
0C1C00
1C1C00
1FFC00
1FFE00
380600
380700
300700
700300
700380
600380
E00180
C001C0
ENDCHAR
STARTCHAR 0392
ENCODING 914
SWIDTH 480 0
DWIDTH 16 0
BBX 13 21 2 0
BITMAP
FFC0
FFE0
C070
C030
C030
C030
C030
C070
FFE0
FFE0
FFF0
C070
C038
C018
C018
C018
C038
C038
C1F0
FFE0
FF80
ENDCHAR
STARTCHAR 0393
ENCODING 915
SWIDTH 480 0
DWIDTH 16 0
BBX 13 21 2 0
BITMAP
FFF8
FFF8
C000
C000
C000
C000
C000
C000
C000
C000
C000
C000
C000
C000
C000
C000
C000
C000
C000
C000
C000
ENDCHAR
STARTCHAR 0394
ENCODING 916
SWIDTH 630 0
DWIDTH 21 0
BBX 18 21 2 0
BITMAP
01C000
01E000
03E000
03F000
037000
073000
073800
063800
0E1800
0C1C00
1C1C00
1C0C00
180E00
380600
380700
300700
700300
700380
600380
FFFF80
FFFFC0
ENDCHAR
STARTCHAR 0395
ENCODING 917
SWIDTH 480 0
DWIDTH 16 0
BBX 13 21 2 0
BITMAP
FFF8
FFF8
C000
C000
C000
C000
C000
C000
C000
FFE0
FFE0
C000
C000
C000
C000
C000
C000
C000
C000
FFF8
FFF8
ENDCHAR
STARTCHAR 0396
ENCODING 918
SWIDTH 510 0
DWIDTH 17 0
BBX 14 21 2 0
BITMAP
FFFC
FFFC
001C
0038
0078
0070
00E0
01C0
01C0
0380
0700
0700
0E00
1C00
3800
3800
7000
E000
E000
FFFC
FFFC
ENDCHAR
STARTCHAR 0397
ENCODING 919
SWIDTH 480 0
DWIDTH 16 0
BBX 13 21 2 0
BITMAP
C018
C018
C018
C018
C018
C018
C018
C018
C018
FFF8
FFF8
C018
C018
C018
C018
C018
C018
C018
C018
C018
C018
ENDCHAR
STARTCHAR 0398
ENCODING 920
SWIDTH 630 0
DWIDTH 21 0
BBX 18 22 2 0
BITMAP
03E000
0FF800
1FFC00
3C1E00
780700
700700
E00380
E00380
C00180
C00180
C7F9C0
C7F9C0
C00180
C00180
E00180
E00380
600300
700700
380E00
1E3E00
0FFC00
07F000
ENDCHAR
STARTCHAR 0399
ENCODING 921
SWIDTH 300 0
DWIDTH 10 0
BBX 7 21 2 0
BITMAP
FE
FE
38
38
38
38
38
38
38
38
38
38
38
38
38
38
38
38
38
FE
FE
ENDCHAR
STARTCHAR 039A
ENCODING 922
SWIDTH 540 0
DWIDTH 18 0
BBX 14 21 2 0
BITMAP
C070
C0E0
C0E0
C1C0
C380
C380
C700
CE00
DE00
DC00
FE00
F700
F700
E380
C1C0
C0E0
C0E0
C070
C038
C038
C01C
ENDCHAR
STARTCHAR 039B
ENCODING 923
SWIDTH 630 0
DWIDTH 21 0
BBX 18 21 2 0
BITMAP
01C000
01E000
03E000
03F000
037000
073000
073800
063800
0E1800
0C1C00
1C1C00
1C0C00
180E00
380600
380700
300700
700300
700380
600380
E00180
C001C0
ENDCHAR
STARTCHAR 039C
ENCODING 924
SWIDTH 630 0
DWIDTH 21 0
BBX 18 21 2 0
BITMAP
E001C0
E001C0
E003C0
F003C0
F007C0
F007C0
F807C0
D80FC0
DC0FC0
DC0DC0
CC1DC0
CE1DC0
CE19C0
C639C0
C731C0
C771C0
C371C0
C3E1C0
C1E1C0
C1E1C0
C1C1C0
ENDCHAR
STARTCHAR 039D
ENCODING 925
SWIDTH 600 0
DWIDTH 20 0
BBX 17 21 2 0
BITMAP
E00380
E00380
F00380
F80380
DC0380
DC0380
CE0380
C70380
C70380
C38380
C1C380
C1C380
C0E380
C07380
C03B80
C03B80
C01F80
C00F80
C00F80
C00780
C00380
ENDCHAR
STARTCHAR 039E
ENCODING 926
SWIDTH 480 0
DWIDTH 16 0
BBX 13 21 2 0
BITMAP
FFF8
FFF8
0000
0000
0000
0000
0000
0000
0000
3FE0
3FE0
0000
0000
0000
0000
0000
0000
0000
0000
FFF8
FFF8
ENDCHAR
STARTCHAR 039F
ENCODING 927
SWIDTH 630 0
DWIDTH 21 0
BBX 18 22 2 0
BITMAP
03E000
0FF800
1FFC00
3C1E00
780700
700700
E00380
E00380
C00180
C00180
C001C0
C001C0
C00180
C00180
E00180
E00380
600300
700700
380E00
1E3E00
0FFC00
07F000
ENDCHAR
STARTCHAR 03A0
ENCODING 928
SWIDTH 480 0
DWIDTH 16 0
BBX 13 21 2 0
BITMAP
FFF8
FFF8
C018
C018
C018
C018
C018
C018
C018
C018
C018
C018
C018
C018
C018
C018
C018
C018
C018
C018
C018
ENDCHAR
STARTCHAR 03A1
ENCODING 929
SWIDTH 480 0
DWIDTH 16 0
BBX 12 21 2 0
BITMAP
FFC0
FFE0
C0F0
C070
C030
C030
C030
C070
C0F0
FFE0
FFC0
FE00
C000
C000
C000
C000
C000
C000
C000
C000
C000
ENDCHAR
STARTCHAR 03A3
ENCODING 931
SWIDTH 480 0
DWIDTH 16 0
BBX 13 21 2 0
BITMAP
FFF8
FFF8
E000
7000
7000
3800
1C00
1C00
0E00
0700
0700
0700
0E00
1C00
3800
3800
7000
E000
E000
FFF8
FFF8
ENDCHAR
STARTCHAR 03A4
ENCODING 932
SWIDTH 480 0
DWIDTH 16 0
BBX 13 21 2 0
BITMAP
FFF8
FFF8
0700
0700
0700
0700
0700
0700
0700
0700
0700
0700
0700
0700
0700
0700
0700
0700
0700
0700
0700
ENDCHAR
STARTCHAR 03A5
ENCODING 933
SWIDTH 630 0
DWIDTH 21 0
BBX 17 21 2 0
BITMAP
E00380
700700
380700
380E00
1C1C00
0E3800
073800
077000
03E000
01E000
01C000
01C000
01C000
01C000
01C000
01C000
01C000
01C000
01C000
01C000
01C000
ENDCHAR
STARTCHAR 03A6
ENCODING 934
SWIDTH 570 0
DWIDTH 19 0
BBX 16 21 2 0
BITMAP
0FE0
0FE0
0180
0180
0FF0
3FF8
7DBC
F18E
E187
C187
C187
C187
E186
719E
3FFC
1FF8
07C0
0180
0180
0FE0
0FE0
ENDCHAR
STARTCHAR 03A7
ENCODING 935
SWIDTH 630 0
DWIDTH 21 0
BBX 17 21 2 0
BITMAP
E00380
700700
380700
380E00
1C1C00
0E3800
073800
077000
03E000
01E000
01C000
03E000
03F000
077000
0E3800
1C1C00
1C0E00
380E00
700700
700380
E00380
ENDCHAR
STARTCHAR 03A8
ENCODING 936
SWIDTH 570 0
DWIDTH 19 0
BBX 16 21 2 0
BITMAP
C187
C187
C187
C187
C187
C187
E186
718E
79BC
3FF8
0FF0
0180
0180
0180
0180
0180
0180
0180
0180
0180
0180
ENDCHAR
STARTCHAR 03A9
ENCODING 937
SWIDTH 630 0
DWIDTH 21 0
BBX 18 22 2 0
BITMAP
03E000
0FF800
1FFC00
3C1E00
780700
700700
E00380
E00380
C00180
C00180
C001C0
C001C0
C00180
C00180
E00180
E00380
600300
700700
380E00
1E1E00
FE3FC0
FE3FC0
ENDCHAR
STARTCHAR 03AA
ENCODING 938
SWIDTH 300 0
DWIDTH 10 0
BBX 10 27 0 0
BITMAP
7380
F3C0
7380
0000
0000
0000
7F80
7F80
0C00
0C00
0C00
0C00
0C00
0C00
0C00
0C00
0C00
0C00
0C00
0C00
0C00
0C00
0C00
0C00
0C00
7F80
7F80
ENDCHAR
STARTCHAR 03AB
ENCODING 939
SWIDTH 630 0
DWIDTH 21 0
BBX 17 27 2 0
BITMAP
0E3800
0F3800
0E3800
000000
000000
000000
E00380
700700
380700
380E00
1C1C00
0E3800
073800
077000
03E000
01E000
01C000
01C000
01C000
01C000
01C000
01C000
01C000
01C000
01C000
01C000
01C000
ENDCHAR
STARTCHAR 03AC
ENCODING 940
SWIDTH 570 0
DWIDTH 19 0
BBX 16 21 2 0
BITMAP
00E0
01C0
0180
0300
0000
0000
1F87
3FC6
78EE
607E
E03C
C03C
C03C
C018
C03C
C03C
E03C
E07E
78EE
3FC6
1F87
ENDCHAR
STARTCHAR 03AD
ENCODING 941
SWIDTH 390 0
DWIDTH 13 0
BBX 9 21 2 0
BITMAP
0700
0C00
0800
1000
0000
0000
3E00
7F00
7700
E380
E000
7000
7800
7800
E000
C000
C180
C180
E380
7F00
3E00
ENDCHAR
STARTCHAR 03AE
ENCODING 942
SWIDTH 480 0
DWIDTH 16 0
BBX 13 28 2 -7
BITMAP
0380
0300
0600
0400
0000
0000
CFC0
FFE0
F8E0
F070
E030
C030
C038
C038
C038
C038
C038
C038
C038
C038
C038
0038
0038
0038
0038
0038
0038
0018
ENDCHAR
STARTCHAR 03AF
ENCODING 943
SWIDTH 240 0
DWIDTH 8 0
BBX 6 21 1 0
BITMAP
38
60
40
80
00
00
60
60
60
60
60
60
60
60
60
60
60
60
60
7C
7C
ENDCHAR
STARTCHAR 03B0
ENCODING 944
SWIDTH 480 0
DWIDTH 16 0
BBX 13 24 2 0
BITMAP
01C0
0180
0300
32C0
3DE0
39C0
30C0
0000
0000
C038
C038
C038
C038
C038
C038
C038
C038
C038
C038
C030
E070
70E0
3FE0
1F80
ENDCHAR
STARTCHAR 03B1
ENCODING 945
SWIDTH 570 0
DWIDTH 19 0
BBX 16 15 2 0
BITMAP
1F87
3FC6
78EE
607E
E03C
C03C
C03C
C018
C03C
C03C
E03C
E07E
78EE
3FC6
1F87
ENDCHAR
STARTCHAR 03B2
ENCODING 946
SWIDTH 450 0
DWIDTH 15 0
BBX 12 29 2 -7
BITMAP
0E00
3F80
7FC0
E1E0
C0E0
C060
C060
C0E0
C1E0
C7C0
C780
C7C0
C0E0
C060
C070
C070
C070
C070
E0E0
F1E0
FFC0
FF80
C000
C000
C000
C000
C000
C000
4000
ENDCHAR
STARTCHAR 03B3
ENCODING 947
SWIDTH 510 0
DWIDTH 17 0
BBX 14 22 2 -7
BITMAP
C01C
E018
7038
3038
3830
3870
1860
1CE0
1CE0
0CC0
0FC0
0FC0
0780
0780
0380
0780
0780
0FC0
0FC0
0FC0
07C0
0300
ENDCHAR
STARTCHAR 03B4
ENCODING 948
SWIDTH 480 0
DWIDTH 16 0
BBX 13 22 2 0
BITMAP
0180
07E0
0FF0
1C70
1C00
1C00
0E00
1F00
3F80
79E0
60E0
E070
C030
C038
C038
C038
C030
E030
E070
78E0
3FC0
1F80
ENDCHAR
STARTCHAR 03B5
ENCODING 949
SWIDTH 390 0
DWIDTH 13 0
BBX 9 15 2 0
BITMAP
3E00
7F00
7700
E380
E000
7000
7800
7800
E000
C000
C180
C180
E380
7F00
3E00
ENDCHAR
STARTCHAR 03B6
ENCODING 950
SWIDTH 420 0
DWIDTH 14 0
BBX 11 28 2 -7
BITMAP
FF80
FF80
3800
7000
6000
E000
C000
C000
C000
C000
C000
C000
C000
C000
E000
E000
6000
7000
3C00
1F80
0FC0
01C0
00E0
00E0
00C0
07C0
0780
0F00
ENDCHAR
STARTCHAR 03B7
ENCODING 951
SWIDTH 480 0
DWIDTH 16 0
BBX 13 22 2 -7
BITMAP
CFC0
FFE0
F8E0
F070
E030
C030
C038
C038
C038
C038
C038
C038
C038
C038
C038
0038
0038
0038
0038
0038
0038
0018
ENDCHAR
STARTCHAR 03B8
ENCODING 952
SWIDTH 480 0
DWIDTH 16 0
BBX 13 22 2 0
BITMAP
0700
1F80
3FC0
70E0
7060
6070
E030
C030
C030
C038
FFF8
FFF8
C038
C038
C030
E030
E070
6070
70E0
39C0
1FC0
0F80
ENDCHAR
STARTCHAR 03B9
ENCODING 953
SWIDTH 240 0
DWIDTH 8 0
BBX 5 15 2 0
BITMAP
C0
C0
C0
C0
C0
C0
C0
C0
C0
C0
C0
C0
C0
F8
F8
ENDCHAR
STARTCHAR 03BA
ENCODING 954
SWIDTH 420 0
DWIDTH 14 0
BBX 11 15 2 0
BITMAP
C380
C700
C700
CE00
DC00
DC00
F800
FC00
FC00
EE00
C700
C380
C380
C1C0
C0E0
ENDCHAR
STARTCHAR 03BB
ENCODING 955
SWIDTH 480 0
DWIDTH 16 0
BBX 13 22 2 0
BITMAP
E000
7800
7C00
0C00
0E00
0600
0600
0700
0700
0F80
0F80
1D80
1DC0
19C0
38C0
38E0
3060
7060
7070
6030
E038
C038
ENDCHAR
STARTCHAR 03BC
ENCODING 956
SWIDTH 480 0
DWIDTH 16 0
BBX 13 22 2 -7
BITMAP
C038
C038
C038
C038
C038
C038
C038
C038
C038
C038
E078
E078
F0F8
FFF8
DFB8
C000
C000
C000
C000
C000
C000
4000
ENDCHAR
STARTCHAR 03BD
ENCODING 957
SWIDTH 420 0
DWIDTH 14 0
BBX 11 15 2 0
BITMAP
C780
E3C0
60E0
6060
7060
3060
38E0
38C0
19C0
1DC0
1D80
0F80
0F80
0700
0700
ENDCHAR
STARTCHAR 03BE
ENCODING 958
SWIDTH 420 0
DWIDTH 14 0
BBX 11 28 2 -7
BITMAP
FF80
FF80
7000
6000
E000
E000
6000
7000
3F00
3F00
7F00
F000
E000
C000
C000
C000
E000
E000
7C00
3F80
1FC0
01C0
00E0
00E0
00C0
07C0
0780
0F00
ENDCHAR
STARTCHAR 03BF
ENCODING 959
SWIDTH 480 0
DWIDTH 16 0
BBX 13 15 2 0
BITMAP
1F80
3FC0
78E0
6070
E030
C030
C038
C038
C038
C030
E030
E070
78E0
3FC0
1F80
ENDCHAR
STARTCHAR 03C0
ENCODING 960
SWIDTH 480 0
DWIDTH 16 0
BBX 13 15 2 0
BITMAP
FFF8
FFF8
3860
3860
3860
3860
3860
3860
3060
3060
3060
7060
6060
E060
C060
ENDCHAR
STARTCHAR 03C1
ENCODING 961
SWIDTH 480 0
DWIDTH 16 0
BBX 13 22 2 -7
BITMAP
1F80
3FC0
78E0
6070
E030
C030
C038
C038
C038
C030
E030
E070
F8E0
FFC0
DF80
C000
C000
C000
C000
C000
C000
4000
ENDCHAR
STARTCHAR 03C2
ENCODING 962
SWIDTH 450 0
DWIDTH 15 0
BBX 12 22 2 -7
BITMAP
0FF0
3FE0
7C00
7000
E000
C000
C000
C000
C000
C000
E000
7000
7C00
3F80
0FC0
01C0
00E0
00E0
00C0
07C0
0780
0F00
ENDCHAR
STARTCHAR 03C3
ENCODING 963
SWIDTH 510 0
DWIDTH 17 0
BBX 15 15 2 0
BITMAP
0FFE
3FFC
7FE0
7070
E070
C030
C038
C038
C038
C030
E030
E070
78E0
3FC0
1F80
ENDCHAR
STARTCHAR 03C4
ENCODING 964
SWIDTH 390 0
DWIDTH 13 0
BBX 9 15 2 0
BITMAP
FF80
FF80
1C00
1C00
1C00
1C00
1C00
1C00
1C00
1C00
1C00
1C00
1C00
1F00
0F00
ENDCHAR
STARTCHAR 03C5
ENCODING 965
SWIDTH 480 0
DWIDTH 16 0
BBX 13 15 2 0
BITMAP
C038
C038
C038
C038
C038
C038
C038
C038
C038
C038
C030
E070
70E0
3FE0
1F80
ENDCHAR
STARTCHAR 03C6
ENCODING 966
SWIDTH 570 0
DWIDTH 19 0
BBX 16 22 2 -7
BITMAP
0838
18FE
7DFE
71C7
E187
C187
C187
C187
C187
C186
E18E
718E
7DBC
1FF8
0FF0
0180
0180
0180
0180
0180
0180
0080
ENDCHAR
STARTCHAR 03C7
ENCODING 967
SWIDTH 390 0
DWIDTH 13 0
BBX 10 22 2 -7
BITMAP
C1C0
E1C0
6180
7380
7300
3700
3F00
3E00
1E00
1E00
1C00
1C00
1E00
1E00
3F00
3700
7300
7380
6380
E180
E1C0
C1C0
ENDCHAR
STARTCHAR 03C8
ENCODING 968
SWIDTH 480 0
DWIDTH 16 0
BBX 13 22 2 -7
BITMAP
C638
C638
C638
C638
C638
C638
C638
C638
C638
C638
C630
E670
7EE0
3FE0
1F80
0600
0600
0600
0600
0600
0600
0200
ENDCHAR
STARTCHAR 03C9
ENCODING 969
SWIDTH 600 0
DWIDTH 20 0
BBX 17 15 2 0
BITMAP
380C00
780E00
700700
E00700
C00300
C00380
C00380
C00380
C18380
C1C380
C1C300
E3C700
77E700
7F7E00
3E3C00
ENDCHAR
STARTCHAR 03CA
ENCODING 970
SWIDTH 240 0
DWIDTH 8 0
BBX 9 21 -2 0
BITMAP
6180
F380
F380
6100
0000
0000
0C00
0C00
0C00
0C00
0C00
0C00
0C00
0C00
0C00
0C00
0C00
0C00
0C00
0F80
0F80
ENDCHAR
STARTCHAR 03CB
ENCODING 971
SWIDTH 480 0
DWIDTH 16 0
BBX 13 21 2 0
BITMAP
30C0
39E0
39E0
10C0
0000
0000
C038
C038
C038
C038
C038
C038
C038
C038
C038
C038
C030
E070
70E0
3FE0
1F80
ENDCHAR
STARTCHAR 03CC
ENCODING 972
SWIDTH 480 0
DWIDTH 16 0
BBX 13 21 2 0
BITMAP
0380
0300
0600
0400
0000
0000
1F80
3FC0
78E0
6070
E030
C030
C038
C038
C038
C030
E030
E070
78E0
3FC0
1F80
ENDCHAR
STARTCHAR 03CD
ENCODING 973
SWIDTH 480 0
DWIDTH 16 0
BBX 13 21 2 0
BITMAP
0380
0300
0600
0400
0000
0000
C038
C038
C038
C038
C038
C038
C038
C038
C038
C038
C030
E070
70E0
3FE0
1F80
ENDCHAR
STARTCHAR 03CE
ENCODING 974
SWIDTH 600 0
DWIDTH 20 0
BBX 17 21 2 0
BITMAP
00E000
00C000
018000
010000
000000
000000
380C00
780E00
700700
E00700
C00300
C00380
C00380
C00380
C18380
C1C380
C1C300
E3C700
77E700
7F7E00
3E3C00
ENDCHAR
STARTCHAR 03CF
ENCODING 975
SWIDTH 540 0
DWIDTH 18 0
BBX 14 27 2 -6
BITMAP
C070
C0E0
C0E0
C1C0
C380
C380
C700
CE00
DE00
DC00
FE00
F700
F700
E380
C1C0
C0E0
C0E0
C070
C038
C038
C01C
007C
00F0
01E0
0780
0300
0200
ENDCHAR
STARTCHAR 03D0
ENCODING 976
SWIDTH 450 0
DWIDTH 15 0
BBX 12 22 2 0
BITMAP
0E00
3F80
7FC0
E1E0
C0E0
C060
C060
C0E0
C1E0
C7C0
C780
C7C0
C0E0
C060
C070
C070
C070
C070
E0E0
F1E0
7FC0
3F80
ENDCHAR
STARTCHAR 03D1
ENCODING 977
SWIDTH 630 0
DWIDTH 21 0
BBX 18 22 2 0
BITMAP
00E000
01F000
03F800
031C00
030C00
030E00
038600
E38680
F1C7C0
79E780
18FF80
183F00
180700
180700
180600
1C0600
1C0E00
0C0E00
0E1C00
073800
03F800
01F000
ENDCHAR
STARTCHAR 03D2
ENCODING 978
SWIDTH 540 0
DWIDTH 18 0
BBX 15 22 2 0
BITMAP
C006
F01E
F83E
3C70
0EE0
0FC0
07C0
0780
0380
0380
0380
0380
0380
0380
0380
0380
0380
0380
0380
0380
0380
0380
ENDCHAR
STARTCHAR 03D3
ENCODING 979
SWIDTH 780 0
DWIDTH 26 0
BBX 22 22 2 0
BITMAP
01800C
39E03C
61F07C
4038F0
801DC0
000FC0
000F80
000780
000700
000700
000700
000700
000700
000700
000700
000700
000700
000700
000700
000700
000700
000700
ENDCHAR
STARTCHAR 03D4
ENCODING 980
SWIDTH 540 0
DWIDTH 18 0
BBX 15 27 2 0
BITMAP
1C70
1CF0
1C70
0000
0000
C006
F01E
F83E
3C70
0EE0
0FC0
07C0
0780
0380
0380
0380
0380
0380
0380
0380
0380
0380
0380
0380
0380
0380
0380
ENDCHAR
STARTCHAR 03D5
ENCODING 981
SWIDTH 480 0
DWIDTH 16 0
BBX 13 28 2 -7
BITMAP
0600
0600
0600
0600
0600
0600
1F80
3FC0
7EE0
6670
E630
C630
C638
C638
C638
C630
E630
E670
7EE0
3FC0
1F80
0600
0600
0600
0600
0600
0600
0200
ENDCHAR
STARTCHAR 03D6
ENCODING 982
SWIDTH 600 0
DWIDTH 20 0
BBX 17 15 2 0
BITMAP
FFFF80
FFFF80
700700
E00700
C00300
C00380
C00380
C00380
C18380
C1C380
C1C300
E3C700
77E700
7F7E00
3E3C00
ENDCHAR
STARTCHAR 03D7
ENCODING 983
SWIDTH 630 0
DWIDTH 21 0
BBX 18 22 2 -7
BITMAP
F807C0
FC0FC0
4E1C80
063800
063800
067800
06F800
07F800
07D800
079800
071800
071800
0E1C00
FC0FC0
F807C0
0000C0
0000C0
0000C0
0000C0
0007C0
0007C0
000700
ENDCHAR
STARTCHAR 03D8
ENCODING 984
SWIDTH 630 0
DWIDTH 21 0
BBX 18 29 2 -7
BITMAP
03E000
0FF800
1FFC00
3C1E00
780700
700700
E00380
E00380
C00180
C00180
C001C0
C001C0
C00180
C00180
E00180
E00380
600300
700700
380E00
1E3E00
0FFC00
07F000
01C000
01C000
01C000
01C000
01C000
01C000
01C000
ENDCHAR
STARTCHAR 03D9
ENCODING 985
SWIDTH 480 0
DWIDTH 16 0
BBX 13 22 2 -7
BITMAP
1F80
3FC0
78E0
6070
E030
C030
C038
C038
C038
C030
E030
E070
78E0
3FC0
1F80
0600
0600
0600
0600
0600
0600
0200
ENDCHAR
STARTCHAR 03DA
ENCODING 986
SWIDTH 570 0
DWIDTH 19 0
BBX 16 29 2 -7
BITMAP
03E0
0FF8
1FFC
381E
7007
E007
E000
C000
C000
C000
C000
C000
E000
E000
7800
3C00
1F00
0FC0
01F0
0078
001C
000E
3806
3806
380E
1C1C
0FFC
07F8
01C0
ENDCHAR
STARTCHAR 03DB
ENCODING 987
SWIDTH 510 0
DWIDTH 17 0
BBX 12 22 2 -7
BITMAP
1F80
3FC0
78E0
6070
E060
C000
C000
C000
C000
C000
E000
7000
7C00
3F80
0FC0
01C0
00E0
00E0
00C0
07C0
0780
0F00
ENDCHAR
STARTCHAR 03DC
ENCODING 988
SWIDTH 480 0
DWIDTH 16 0
BBX 13 21 2 0
BITMAP
FFF8
FFF8
C000
C000
C000
C000
FF80
FF80
C000
C000
C000
C000
C000
C000
C000
C000
C000
C000
C000
C000
C000
ENDCHAR
STARTCHAR 03DD
ENCODING 989
SWIDTH 390 0
DWIDTH 13 0
BBX 9 22 2 -7
BITMAP
FF80
FF80
C000
C000
C000
C000
C000
FF80
FF80
C000
C000
C000
C000
C000
C000
C000
C000
C000
C000
C000
C000
4000
ENDCHAR
STARTCHAR 03DE
ENCODING 990
SWIDTH 480 0
DWIDTH 16 0
BBX 12 22 2 0
BITMAP
E000
F000
F800
1C00
1C00
1C00
1800
1800
3800
3000
7FE0
7FE0
00E0
00C0
01C0
01C0
0180
0380
0180
01C0
01F0
00F0
ENDCHAR
STARTCHAR 03DF
ENCODING 991
SWIDTH 390 0
DWIDTH 13 0
BBX 9 21 2 0
BITMAP
0C00
1C00
1C00
1800
3800
3000
7000
7000
6000
FF80
FF80
0380
0300
0700
0700
0600
0E00
0E00
0C00
1C00
1800
ENDCHAR
STARTCHAR 03E0
ENCODING 992
SWIDTH 570 0
DWIDTH 19 0
BBX 16 22 2 0
BITMAP
0780
1FE0
3FF8
703C
E07C
C0FE
01E6
03C7
0707
0E0F
3C3F
787B
F0F3
E1E7
43C7
0786
0E0E
1C0E
781C
3078
01F0
01E0
ENDCHAR
STARTCHAR 03E1
ENCODING 993
SWIDTH 390 0
DWIDTH 13 0
BBX 10 22 2 -7
BITMAP
7C00
FE00
CF00
0300
0780
0F80
1F80
3DC0
79C0
F1C0
41C0
03C0
0FC0
1FC0
3DC0
3980
1380
0380
0700
1E00
1E00
1800
ENDCHAR
STARTCHAR 03E2
ENCODING 994
SWIDTH 780 0
DWIDTH 26 0
BBX 23 28 2 -7
BITMAP
C03806
C03806
C03806
C03806
C03806
C03806
C03806
C03806
C03806
C03806
C03806
C03806
C03806
C03806
C03806
C0380E
E0380E
E07C1E
78EE3E
3FC7FE
1F83F6
000006
01F00E
03F80E
07BE1C
070FF8
0607F0
0001E0
ENDCHAR
STARTCHAR 03E3
ENCODING 995
SWIDTH 600 0
DWIDTH 20 0
BBX 19 22 0 -7
BITMAP
3060E0
3060E0
3060E0
3060E0
3060E0
3060E0
3060E0
3060E0
3060E0
3060E0
3060E0
3070E0
38F9E0
1FDFE0
0F8FE0
0000E0
1E00C0
3F81C0
7FC3C0
61FF80
E07F00
001C00
ENDCHAR
STARTCHAR 03E4
ENCODING 996
SWIDTH 450 0
DWIDTH 15 0
BBX 12 22 2 0
BITMAP
0C00
3C70
3C70
7070
E070
E070
C070
C070
C070
C070
E070
E070
70F0
7FF0
3FF0
0F70
0070
0070
0070
0070
0070
0070
ENDCHAR
STARTCHAR 03E5
ENCODING 997
SWIDTH 450 0
DWIDTH 15 0
BBX 12 22 2 -7
BITMAP
1C70
3C70
7870
6070
E070
C070
C070
C070
C070
C070
E070
E070
78F0
3FF0
1FF0
0070
0070
0070
0070
0070
0070
0010
ENDCHAR
STARTCHAR 03E6
ENCODING 998
SWIDTH 450 0
DWIDTH 15 0
BBX 12 21 2 0
BITMAP
C000
C000
C000
C000
C000
C000
DF80
FFC0
F1E0
E0E0
C070
C070
C030
C030
0030
0070
0070
00E0
01E0
03C0
0380
ENDCHAR
STARTCHAR 03E7
ENCODING 999
SWIDTH 630 0
DWIDTH 21 0
BBX 18 22 2 0
BITMAP
00E000
01F000
03F800
031C00
030C00
030E00
038600
038680
01C7C0
01E780
00FF80
003F00
000700
000700
000600
0C0600
1C0E00
1C0E00
3E1C00
773800
73F800
E1F000
ENDCHAR
STARTCHAR 03E8
ENCODING 1000
SWIDTH 480 0
DWIDTH 16 0
BBX 13 22 2 0
BITMAP
0700
1FC0
3FE0
70E0
6070
E070
0070
0070
00E0
03C0
0F80
3F00
7800
F000
E000
C000
C038
C030
E070
70F0
7FE0
1F80
ENDCHAR
STARTCHAR 03E9
ENCODING 1001
SWIDTH 390 0
DWIDTH 13 0
BBX 9 15 2 0
BITMAP
3E00
7F00
F780
E380
0380
0780
1F00
7C00
F000
C000
C180
C180
E380
7F00
3E00
ENDCHAR
STARTCHAR 03EA
ENCODING 1002
SWIDTH 720 0
DWIDTH 24 0
BBX 21 21 2 0
BITMAP
1E0380
0E0700
070E00
038E00
039C00
01F800
00F800
00F000
00F000
00F800
01DC00
039C00
070E00
070700
0E0700
1C0380
1C01C0
3801C0
7000E0
FFFFF8
FFFFF8
ENDCHAR
STARTCHAR 03EB
ENCODING 1003
SWIDTH 510 0
DWIDTH 17 0
BBX 14 15 2 0
BITMAP
3870
1CE0
0FC0
0FC0
0780
0780
0F80
0FC0
1CE0
3870
3870
7038
E01C
FFFC
FFFC
ENDCHAR
STARTCHAR 03EC
ENCODING 1004
SWIDTH 480 0
DWIDTH 16 0
BBX 14 23 2 0
BITMAP
001C
003C
1FF8
3FF0
7800
E000
E000
C000
DF80
FFC0
F8E0
E070
E030
C030
C038
C038
C038
C030
E030
E070
78E0
3FC0
1F80
ENDCHAR
STARTCHAR 03ED
ENCODING 1005
SWIDTH 480 0
DWIDTH 16 0
BBX 13 21 2 0
BITMAP
0070
01E0
1FC0
3F80
7800
E000
FF80
FFC0
F8E0
E070
E030
C030
C038
C038
C038
C030
E030
E070
78E0
3FC0
1F80
ENDCHAR
STARTCHAR 03EE
ENCODING 1006
SWIDTH 480 0
DWIDTH 16 0
BBX 13 21 2 0
BITMAP
0700
0700
0700
FFF8
FFF8
0700
0700
0700
0700
0700
0700
0700
0700
0700
0700
0700
0700
0700
0700
0700
0700
ENDCHAR
STARTCHAR 03EF
ENCODING 1007
SWIDTH 390 0
DWIDTH 13 0
BBX 9 21 2 0
BITMAP
1C00
1C00
1C00
1C00
1C00
1C00
FF80
FF80
1C00
1C00
1C00
1C00
1C00
1C00
1C00
1C00
1C00
1C00
1C00
1C00
1C00
ENDCHAR
STARTCHAR 03F0
ENCODING 1008
SWIDTH 630 0
DWIDTH 21 0
BBX 18 15 2 0
BITMAP
F807C0
FC0FC0
4E1C80
063800
063800
067800
06F800
07F800
07D800
079800
071800
071800
0E1C00
FC0FC0
F807C0
ENDCHAR
STARTCHAR 03F1
ENCODING 1009
SWIDTH 480 0
DWIDTH 16 0
BBX 13 22 2 -7
BITMAP
1F80
3FC0
78E0
6070
E030
C030
C038
C038
C038
C030
E030
E070
F8E0
FFC0
DF80
C000
C000
C000
E060
7FF0
3FC0
0F00
ENDCHAR
STARTCHAR 03F2
ENCODING 1010
SWIDTH 450 0
DWIDTH 15 0
BBX 12 15 2 0
BITMAP
1F80
3FC0
78E0
6070
E060
C000
C000
C000
C000
C000
E020
E070
78E0
3FC0
1F80
ENDCHAR
STARTCHAR 03F3
ENCODING 1011
SWIDTH 150 0
DWIDTH 5 0
BBX 8 28 -3 -7
BITMAP
06
0F
0F
06
00
00
06
06
06
06
06
06
06
06
06
06
06
06
06
06
06
06
06
06
0E
7C
FC
70
ENDCHAR
STARTCHAR 03F4
ENCODING 1012
SWIDTH 630 0
DWIDTH 21 0
BBX 18 22 2 0
BITMAP
03E000
0FF800
1FFC00
3C1E00
780700
700700
E00380
E00380
C00180
C00180
FFFFC0
FFFFC0
C00180
C00180
E00180
E00380
600300
700700
380E00
1E3E00
0FFC00
07F000
ENDCHAR
STARTCHAR 03F5
ENCODING 1013
SWIDTH 450 0
DWIDTH 15 0
BBX 12 15 2 0
BITMAP
1F80
3FC0
78E0
6070
E060
C000
FF00
FF00
FF00
C000
E020
E070
78E0
3FC0
1F80
ENDCHAR
STARTCHAR 03F6
ENCODING 1014
SWIDTH 450 0
DWIDTH 15 0
BBX 12 15 2 0
BITMAP
3F00
7FC0
F1C0
E0E0
4060
0070
0FF0
0FF0
0FF0
0070
4060
E0E0
F1C0
7FC0
3F00
ENDCHAR
STARTCHAR 03F7
ENCODING 1015
SWIDTH 480 0
DWIDTH 16 0
BBX 12 21 2 0
BITMAP
C000
C000
C000
C000
C000
FFC0
FFE0
C0F0
C070
C030
C030
C030
C070
FFE0
FFE0
FF80
C000
C000
C000
C000
C000
ENDCHAR
STARTCHAR 03F8
ENCODING 1016
SWIDTH 480 0
DWIDTH 16 0
BBX 13 28 2 -7
BITMAP
C000
C000
C000
C000
C000
C000
DF80
FFC0
F8E0
E070
E030
C030
C038
C038
C038
C030
E030
E070
F8E0
FFC0
DF80
C000
C000
C000
C000
C000
C000
4000
ENDCHAR
STARTCHAR 03F9
ENCODING 1017
SWIDTH 570 0
DWIDTH 19 0
BBX 16 22 2 0
BITMAP
03E0
0FF8
1FFC
3C1E
7807
7007
E000
E000
C000
C000
C000
C000
C000
C000
E000
E000
6002
7007
380E
1E3E
0FFC
07F0
ENDCHAR
STARTCHAR 03FA
ENCODING 1018
SWIDTH 630 0
DWIDTH 21 0
BBX 18 21 2 0
BITMAP
E003C0
F007C0
F807C0
F80FC0
DC1DC0
CE39C0
C739C0
C771C0
C3E1C0
C1E1C0
C1C1C0
C081C0
C001C0
C001C0
C001C0
C001C0
C001C0
C001C0
C001C0
C001C0
C001C0
ENDCHAR
STARTCHAR 03FB
ENCODING 1019
SWIDTH 480 0
DWIDTH 16 0
BBX 13 22 2 -7
BITMAP
C038
E038
E038
E078
F078
F078
F8F8
F8D8
D9D8
DDD8
DD98
CF98
CF98
C718
C718
C000
C000
C000
C000
C000
C000
4000
ENDCHAR
STARTCHAR 03FC
ENCODING 1020
SWIDTH 480 0
DWIDTH 16 0
BBX 16 22 -1 -7
BITMAP
03F0
07F8
0F1C
0C0E
1C06
1806
1807
1807
1807
1806
1C06
1C0E
1F1C
1FF8
1BF0
1800
FF00
FF00
FF00
1800
1800
0800
ENDCHAR
STARTCHAR 03FD
ENCODING 1021
SWIDTH 570 0
DWIDTH 19 0
BBX 16 22 2 0
BITMAP
0780
1FE0
3FF8
703C
E01C
C00E
0006
0007
0007
0003
0003
0003
0003
0007
0007
0006
400E
E00E
F01C
7878
3FF0
0FE0
ENDCHAR
STARTCHAR 03FE
ENCODING 1022
SWIDTH 570 0
DWIDTH 19 0
BBX 16 22 2 0
BITMAP
03E0
0FF8
1FFC
3C1E
7807
7007
E000
E000
C000
C080
C1C0
C1C0
C1C0
C000
E000
E000
6002
7007
380E
1E3E
0FFC
07F0
ENDCHAR
STARTCHAR 03FF
ENCODING 1023
SWIDTH 570 0
DWIDTH 19 0
BBX 16 22 2 0
BITMAP
0780
1FE0
3FF8
703C
E01C
C00E
0006
0007
0007
0103
0383
0783
0303
0007
0007
0006
400E
E00E
F01C
7878
3FF0
0FE0
ENDCHAR
STARTCHAR 0400
ENCODING 1024
SWIDTH 480 0
DWIDTH 16 0
BBX 13 28 2 0
BITMAP
1C00
0E00
0600
0300
0100
0000
0000
FFF8
FFF8
C000
C000
C000
C000
C000
C000
C000
FFE0
FFE0
C000
C000
C000
C000
C000
C000
C000
C000
FFF8
FFF8
ENDCHAR
STARTCHAR 0401
ENCODING 1025
SWIDTH 480 0
DWIDTH 16 0
BBX 13 27 2 0
BITMAP
38E0
39E0
38E0
0000
0000
0000
FFF8
FFF8
C000
C000
C000
C000
C000
C000
C000
FFE0
FFE0
C000
C000
C000
C000
C000
C000
C000
C000
FFF8
FFF8
ENDCHAR
STARTCHAR 0402
ENCODING 1026
SWIDTH 630 0
DWIDTH 21 0
BBX 18 21 2 0
BITMAP
FFF800
FFF800
070000
070000
070000
070000
07FC00
07FE00
07C700
078380
070180
0701C0
0701C0
0701C0
0701C0
0701C0
070180
070380
070700
071F00
071C00
ENDCHAR
STARTCHAR 0403
ENCODING 1027
SWIDTH 480 0
DWIDTH 16 0
BBX 13 28 2 0
BITMAP
01C0
0380
0300
0600
0400
0000
0000
FFF8
FFF8
C000
C000
C000
C000
C000
C000
C000
C000
C000
C000
C000
C000
C000
C000
C000
C000
C000
C000
C000
ENDCHAR
STARTCHAR 0404
ENCODING 1028
SWIDTH 570 0
DWIDTH 19 0
BBX 16 22 2 0
BITMAP
03E0
0FF8
1FFC
3C1E
7807
7007
E000
E000
C000
C000
FFE0
FFE0
C000
C000
E000
E000
6002
7007
380E
1E3E
0FFC
07F0
ENDCHAR
STARTCHAR 0405
ENCODING 1029
SWIDTH 480 0
DWIDTH 16 0
BBX 13 22 2 0
BITMAP
0F00
3FC0
7FE0
70E0
6070
E070
E000
6000
7800
3C00
1F00
07C0
01E0
00F0
0030
0038
C038
C038
E070
70F0
3FE0
1F80
ENDCHAR
STARTCHAR 0406
ENCODING 1030
SWIDTH 300 0
DWIDTH 10 0
BBX 7 21 2 0
BITMAP
FE
FE
38
38
38
38
38
38
38
38
38
38
38
38
38
38
38
38
38
FE
FE
ENDCHAR
STARTCHAR 0407
ENCODING 1031
SWIDTH 300 0
DWIDTH 10 0
BBX 10 27 0 0
BITMAP
7380
F3C0
7380
0000
0000
0000
7F80
7F80
0C00
0C00
0C00
0C00
0C00
0C00
0C00
0C00
0C00
0C00
0C00
0C00
0C00
0C00
0C00
0C00
0C00
7F80
7F80
ENDCHAR
STARTCHAR 0408
ENCODING 1032
SWIDTH 360 0
DWIDTH 12 0
BBX 9 21 2 0
BITMAP
0380
0380
0380
0380
0380
0380
0380
0380
0380
0380
0380
0380
0380
0380
0380
0380
0380
C380
E700
7F00
3E00
ENDCHAR
STARTCHAR 0409
ENCODING 1033
SWIDTH 870 0
DWIDTH 29 0
BBX 25 21 2 0
BITMAP
3FFC0000
3FFC0000
380C0000
380C0000
380C0000
380C0000
380C0000
380C0000
380FF000
380FFE00
380FFF00
380C0780
380C0380
380C0180
300C0180
300C0180
300C0180
700C0380
600C1F00
E00FFE00
C00FFC00
ENDCHAR
STARTCHAR 040A
ENCODING 1034
SWIDTH 840 0
DWIDTH 28 0
BBX 25 21 2 0
BITMAP
C0180000
C0180000
C0180000
C0180000
C0180000
C0180000
C0180000
C0180000
C01FE000
FFFFFC00
FFFFFE00
C0180F00
C0180700
C0180300
C0180380
C0180300
C0180300
C0180700
C0183E00
C01FFC00
C01FF800
ENDCHAR
STARTCHAR 040B
ENCODING 1035
SWIDTH 630 0
DWIDTH 21 0
BBX 18 21 2 0
BITMAP
FFF800
FFF800
070000
070000
070000
070000
077E00
07FF00
07E380
0781C0
0781C0
0700C0
0700C0
0700C0
0700C0
0700C0
0700C0
0700C0
0700C0
0700C0
0700C0
ENDCHAR
STARTCHAR 040C
ENCODING 1036
SWIDTH 510 0
DWIDTH 17 0
BBX 14 28 2 0
BITMAP
01C0
0180
0300
0200
0400
0000
0018
C078
C0F8
C1C0
C380
C380
C380
C380
C300
C700
DE00
FE00
FF00
C700
C380
C1C0
C1C0
C0E0
C070
C038
C038
C01C
ENDCHAR
STARTCHAR 040D
ENCODING 1037
SWIDTH 480 0
DWIDTH 16 0
BBX 13 28 2 0
BITMAP
1C00
0E00
0600
0300
0100
0000
0000
C018
C018
C018
C018
C038
C078
C0F8
C1F8
C3D8
C798
CF18
DE18
FC18
F818
F018
E018
C018
C018
C018
C018
C018
ENDCHAR
STARTCHAR 040E
ENCODING 1038
SWIDTH 540 0
DWIDTH 18 0
BBX 15 28 2 0
BITMAP
0C18
0C18
0770
03F0
00C0
0000
0000
380E
380C
181C
1C1C
1C18
0C38
0E38
0630
0770
0770
0360
03E0
03C0
01C0
01C0
0180
0380
4380
E700
FF00
7E00
ENDCHAR
STARTCHAR 040F
ENCODING 1039
SWIDTH 480 0
DWIDTH 16 0
BBX 13 25 2 -4
BITMAP
C018
C018
C018
C018
C018
C018
C018
C018
C018
C018
C018
C018
C018
C018
C018
C018
C018
C018
C018
FFF8
FFF8
0700
0700
0700
0700
ENDCHAR
STARTCHAR 0410
ENCODING 1040
SWIDTH 630 0
DWIDTH 21 0
BBX 18 21 2 0
BITMAP
01C000
01E000
03E000
03F000
037000
073000
073800
063800
0E1800
0C1C00
1C1C00
1FFC00
1FFE00
380600
380700
300700
700300
700380
600380
E00180
C001C0
ENDCHAR
STARTCHAR 0411
ENCODING 1041
SWIDTH 480 0
DWIDTH 16 0
BBX 13 21 2 0
BITMAP
FFE0
FFE0
C000
C000
C000
C000
C000
C000
FF00
FFE0
FFF0
C070
C038
C018
C018
C018
C038
C038
C1F0
FFE0
FF80
ENDCHAR
STARTCHAR 0412
ENCODING 1042
SWIDTH 480 0
DWIDTH 16 0
BBX 13 21 2 0
BITMAP
FFC0
FFE0
C070
C030
C030
C030
C030
C070
FFE0
FFE0
FFF0
C070
C038
C018
C018
C018
C038
C038
C1F0
FFE0
FF80
ENDCHAR
STARTCHAR 0413
ENCODING 1043
SWIDTH 480 0
DWIDTH 16 0
BBX 13 21 2 0
BITMAP
FFF8
FFF8
C000
C000
C000
C000
C000
C000
C000
C000
C000
C000
C000
C000
C000
C000
C000
C000
C000
C000
C000
ENDCHAR
STARTCHAR 0414
ENCODING 1044
SWIDTH 660 0
DWIDTH 22 0
BBX 19 25 2 -4
BITMAP
07FF80
07FF80
060380
060380
060380
060380
060380
060380
060380
060380
060380
060380
060380
0E0380
0E0380
0E0380
0C0380
0C0380
3C0380
FFFFE0
FFFFE0
C00060
C00060
C00060
C00060
ENDCHAR
STARTCHAR 0415
ENCODING 1045
SWIDTH 480 0
DWIDTH 16 0
BBX 13 21 2 0
BITMAP
FFF8
FFF8
C000
C000
C000
C000
C000
C000
C000
FFE0
FFE0
C000
C000
C000
C000
C000
C000
C000
C000
FFF8
FFF8
ENDCHAR
STARTCHAR 0416
ENCODING 1046
SWIDTH 900 0
DWIDTH 30 0
BBX 26 22 2 0
BITMAP
60000180
780C0780
7C0C0F80
0E0C1C00
060C1800
070C3800
070C3800
070C3800
030C3800
038C7000
03CCF000
01FFE000
03FFF000
038C3800
070C3800
0E0C1C00
1C0C0E00
1C0C0E00
380C0700
700C0380
700C0380
E00C01C0
ENDCHAR
STARTCHAR 0417
ENCODING 1047
SWIDTH 510 0
DWIDTH 17 0
BBX 14 22 2 0
BITMAP
0780
1FE0
3FF0
7038
6018
E018
0018
0018
0038
07F0
07E0
07F0
0038
001C
000C
000C
C00C
C01C
E01C
7878
3FF0
1FE0
ENDCHAR
STARTCHAR 0418
ENCODING 1048
SWIDTH 480 0
DWIDTH 16 0
BBX 13 21 2 0
BITMAP
C018
C018
C018
C018
C038
C078
C0F8
C1F8
C3D8
C798
CF18
DE18
FC18
F818
F018
E018
C018
C018
C018
C018
C018
ENDCHAR
STARTCHAR 0419
ENCODING 1049
SWIDTH 480 0
DWIDTH 16 0
BBX 13 28 2 0
BITMAP
3060
3060
1DC0
1F80
0200
0000
0000
C018
C018
C018
C018
C038
C078
C0F8
C1F8
C3D8
C798
CF18
DE18
FC18
F818
F018
E018
C018
C018
C018
C018
C018
ENDCHAR
STARTCHAR 041A
ENCODING 1050
SWIDTH 510 0
DWIDTH 17 0
BBX 14 22 2 0
BITMAP
0018
C078
C0F8
C1C0
C380
C380
C380
C380
C300
C700
DE00
FE00
FF00
C700
C380
C1C0
C1C0
C0E0
C070
C038
C038
C01C
ENDCHAR
STARTCHAR 041B
ENCODING 1051
SWIDTH 510 0
DWIDTH 17 0
BBX 14 21 2 0
BITMAP
3FFC
3FFC
380C
380C
380C
380C
380C
380C
380C
380C
380C
380C
380C
380C
300C
300C
300C
700C
600C
E00C
C00C
ENDCHAR
STARTCHAR 041C
ENCODING 1052
SWIDTH 630 0
DWIDTH 21 0
BBX 18 21 2 0
BITMAP
E001C0
E001C0
E003C0
F003C0
F007C0
F007C0
F807C0
D80FC0
DC0FC0
DC0DC0
CC1DC0
CE1DC0
CE19C0
C639C0
C731C0
C771C0
C371C0
C3E1C0
C1E1C0
C1E1C0
C1C1C0
ENDCHAR
STARTCHAR 041D
ENCODING 1053
SWIDTH 480 0
DWIDTH 16 0
BBX 13 21 2 0
BITMAP
C018
C018
C018
C018
C018
C018
C018
C018
C018
FFF8
FFF8
C018
C018
C018
C018
C018
C018
C018
C018
C018
C018
ENDCHAR
STARTCHAR 041E
ENCODING 1054
SWIDTH 630 0
DWIDTH 21 0
BBX 18 22 2 0
BITMAP
03E000
0FF800
1FFC00
3C1E00
780700
700700
E00380
E00380
C00180
C00180
C001C0
C001C0
C00180
C00180
E00180
E00380
600300
700700
380E00
1E3E00
0FFC00
07F000
ENDCHAR
STARTCHAR 041F
ENCODING 1055
SWIDTH 480 0
DWIDTH 16 0
BBX 13 21 2 0
BITMAP
FFF8
FFF8
C018
C018
C018
C018
C018
C018
C018
C018
C018
C018
C018
C018
C018
C018
C018
C018
C018
C018
C018
ENDCHAR
STARTCHAR 0420
ENCODING 1056
SWIDTH 480 0
DWIDTH 16 0
BBX 12 21 2 0
BITMAP
FFC0
FFE0
C0F0
C070
C030
C030
C030
C070
C0F0
FFE0
FFC0
FE00
C000
C000
C000
C000
C000
C000
C000
C000
C000
ENDCHAR
STARTCHAR 0421
ENCODING 1057
SWIDTH 570 0
DWIDTH 19 0
BBX 16 22 2 0
BITMAP
03E0
0FF8
1FFC
3C1E
7807
7007
E000
E000
C000
C000
C000
C000
C000
C000
E000
E000
6002
7007
380E
1E3E
0FFC
07F0
ENDCHAR
STARTCHAR 0422
ENCODING 1058
SWIDTH 480 0
DWIDTH 16 0
BBX 13 21 2 0
BITMAP
FFF8
FFF8
0700
0700
0700
0700
0700
0700
0700
0700
0700
0700
0700
0700
0700
0700
0700
0700
0700
0700
0700
ENDCHAR
STARTCHAR 0423
ENCODING 1059
SWIDTH 540 0
DWIDTH 18 0
BBX 15 21 2 0
BITMAP
380E
380C
181C
1C1C
1C18
0C38
0E38
0630
0770
0770
0360
03E0
03C0
01C0
01C0
0180
0380
4380
E700
FF00
7E00
ENDCHAR
STARTCHAR 0424
ENCODING 1060
SWIDTH 600 0
DWIDTH 20 0
BBX 17 21 2 0
BITMAP
018000
018000
018000
018000
3FBC00
7FFE00
F7E700
E3C300
C1C380
C18380
C18380
C18380
C1C300
E3C700
7FFF00
3FFE00
1DB800
018000
018000
018000
018000
ENDCHAR
STARTCHAR 0425
ENCODING 1061
SWIDTH 630 0
DWIDTH 21 0
BBX 17 21 2 0
BITMAP
E00380
700700
380700
380E00
1C1C00
0E3800
073800
077000
03E000
01E000
01C000
03E000
03F000
077000
0E3800
1C1C00
1C0E00
380E00
700700
700380
E00380
ENDCHAR
STARTCHAR 0426
ENCODING 1062
SWIDTH 570 0
DWIDTH 19 0
BBX 16 25 2 -4
BITMAP
C018
C018
C018
C018
C018
C018
C018
C018
C018
C018
C018
C018
C018
C018
C018
C018
C018
C018
C018
FFFF
FFFF
0007
0007
0007
0007
ENDCHAR
STARTCHAR 0427
ENCODING 1063
SWIDTH 510 0
DWIDTH 17 0
BBX 14 21 2 0
BITMAP
C00C
C00C
C00C
C00C
C00C
C00C
C00C
E00C
E00C
701C
3C7C
1FFC
0FEC
000C
000C
000C
000C
000C
000C
000C
000C
ENDCHAR
STARTCHAR 0428
ENCODING 1064
SWIDTH 720 0
DWIDTH 24 0
BBX 21 21 2 0
BITMAP
C07018
C07018
C07018
C07018
C07018
C07018
C07018
C07018
C07018
C07018
C07018
C07018
C07018
C07018
C07018
C07018
C07018
C07018
C07018
FFFFF8
FFFFF8
ENDCHAR
STARTCHAR 0429
ENCODING 1065
SWIDTH 810 0
DWIDTH 27 0
BBX 24 25 2 -4
BITMAP
C07018
C07018
C07018
C07018
C07018
C07018
C07018
C07018
C07018
C07018
C07018
C07018
C07018
C07018
C07018
C07018
C07018
C07018
C07018
FFFFFF
FFFFFF
000007
000007
000007
000007
ENDCHAR
STARTCHAR 042A
ENCODING 1066
SWIDTH 630 0
DWIDTH 21 0
BBX 18 21 2 0
BITMAP
FE0000
FE0000
060000
060000
060000
060000
060000
060000
07F800
07FE00
07FF80
060380
0601C0
0600C0
0600C0
0600C0
0601C0
060380
060F80
07FF00
07FC00
ENDCHAR
STARTCHAR 042B
ENCODING 1067
SWIDTH 630 0
DWIDTH 21 0
BBX 18 21 2 0
BITMAP
C001C0
C001C0
C001C0
C001C0
C001C0
C001C0
C001C0
C001C0
FF01C0
FFE1C0
FFF1C0
C071C0
C039C0
C019C0
C019C0
C019C0
C039C0
C039C0
C1F1C0
FFE1C0
FF81C0
ENDCHAR
STARTCHAR 042C
ENCODING 1068
SWIDTH 480 0
DWIDTH 16 0
BBX 13 21 2 0
BITMAP
C000
C000
C000
C000
C000
C000
C000
C000
FF00
FFE0
FFF0
C070
C038
C018
C018
C018
C038
C038
C1F0
FFE0
FF80
ENDCHAR
STARTCHAR 042D
ENCODING 1069
SWIDTH 570 0
DWIDTH 19 0
BBX 16 22 2 0
BITMAP
0780
1FE0
3FF8
703C
E01C
C00E
0006
0007
0007
0003
07FF
07FF
0003
0007
0007
0006
400E
E00E
F01C
7878
3FF0
0FE0
ENDCHAR
STARTCHAR 042E
ENCODING 1070
SWIDTH 780 0
DWIDTH 26 0
BBX 22 22 2 0
BITMAP
001F00
C07FC0
C0FFE0
C1E0F0
C38078
C38038
C7001C
C7001C
C6000C
C6000C
FE000C
FE000C
C6000C
C6000C
C6001C
C7001C
C30018
C38038
C1C070
C1F1E0
C0FFC0
C03F80
ENDCHAR
STARTCHAR 042F
ENCODING 1071
SWIDTH 510 0
DWIDTH 17 0
BBX 14 21 2 0
BITMAP
0FFC
1FFC
3C0C
380C
700C
700C
700C
300C
380C
1FFC
0FFC
07FC
060C
0E0C
1C0C
1C0C
380C
300C
700C
E00C
E00C
ENDCHAR
STARTCHAR 0430
ENCODING 1072
SWIDTH 390 0
DWIDTH 13 0
BBX 10 15 2 0
BITMAP
3F00
7F80
33C0
01C0
01C0
01C0
3FC0
7FC0
F3C0
C1C0
C1C0
C1C0
E3C0
7FC0
3FC0
ENDCHAR
STARTCHAR 0431
ENCODING 1073
SWIDTH 480 0
DWIDTH 16 0
BBX 13 21 2 0
BITMAP
0070
01E0
1FC0
3F80
7800
E000
FF80
FFC0
F8E0
E070
E030
C030
C038
C038
C038
C030
E030
E070
78E0
3FC0
1F80
ENDCHAR
STARTCHAR 0432
ENCODING 1074
SWIDTH 390 0
DWIDTH 13 0
BBX 10 15 2 0
BITMAP
FE00
FF80
C380
C180
C180
C380
FF80
FF80
C1C0
C0C0
C0C0
C1C0
C3C0
FF80
FF00
ENDCHAR
STARTCHAR 0433
ENCODING 1075
SWIDTH 390 0
DWIDTH 13 0
BBX 9 15 2 0
BITMAP
FF80
FF80
C000
C000
C000
C000
C000
C000
C000
C000
C000
C000
C000
C000
C000
ENDCHAR
STARTCHAR 0434
ENCODING 1076
SWIDTH 570 0
DWIDTH 19 0
BBX 16 19 2 -4
BITMAP
07F8
07F8
0618
0618
0618
0618
0618
0E18
0E18
0E18
0C18
0C18
3C18
FFFF
FFFF
C007
C007
C007
C007
ENDCHAR
STARTCHAR 0435
ENCODING 1077
SWIDTH 480 0
DWIDTH 16 0
BBX 13 15 2 0
BITMAP
1F80
3FC0
78E0
6070
E070
FFF0
FFF8
FFF8
C000
C000
E020
E070
78E0
3FC0
1F80
ENDCHAR
STARTCHAR 0436
ENCODING 1078
SWIDTH 690 0
DWIDTH 23 0
BBX 21 15 1 0
BITMAP
383060
3C30E0
1E31C0
0E3180
063380
063380
073380
07FF80
0FFF80
0E31C0
1C30E0
3830E0
383070
703038
E03038
ENDCHAR
STARTCHAR 0437
ENCODING 1079
SWIDTH 390 0
DWIDTH 13 0
BBX 9 15 2 0
BITMAP
3E00
7F00
7700
E380
0380
0700
0F00
0F00
0380
0180
C180
C180
E380
7F00
3E00
ENDCHAR
STARTCHAR 0438
ENCODING 1080
SWIDTH 420 0
DWIDTH 14 0
BBX 11 15 2 0
BITMAP
C060
C060
C060
C0E0
C1E0
C3E0
C760
CE60
DC60
F860
F060
E060
C060
C060
C060
ENDCHAR
STARTCHAR 0439
ENCODING 1081
SWIDTH 420 0
DWIDTH 14 0
BBX 11 21 2 0
BITMAP
60C0
7180
3F80
1F00
0000
0000
C060
C060
C060
C0E0
C1E0
C3E0
C760
CE60
DC60
F860
F060
E060
C060
C060
C060
ENDCHAR
STARTCHAR 043A
ENCODING 1082
SWIDTH 420 0
DWIDTH 14 0
BBX 11 15 2 0
BITMAP
C180
C380
C700
C600
C600
CE00
CE00
FE00
FE00
C700
C380
C380
C1C0
C0E0
C060
ENDCHAR
STARTCHAR 043B
ENCODING 1083
SWIDTH 480 0
DWIDTH 16 0
BBX 13 15 2 0
BITMAP
3FF8
3FF8
3838
3838
3838
3838
3838
3838
3038
3038
3038
7038
6038
E038
C038
ENDCHAR
STARTCHAR 043C
ENCODING 1084
SWIDTH 480 0
DWIDTH 16 0
BBX 13 15 2 0
BITMAP
C038
E038
E038
E078
F078
F078
F8F8
F8D8
D9D8
DDD8
DD98
CF98
CF98
C718
C718
ENDCHAR
STARTCHAR 043D
ENCODING 1085
SWIDTH 420 0
DWIDTH 14 0
BBX 11 15 2 0
BITMAP
C060
C060
C060
C060
C060
C060
FFE0
FFE0
FFE0
C060
C060
C060
C060
C060
C060
ENDCHAR
STARTCHAR 043E
ENCODING 1086
SWIDTH 480 0
DWIDTH 16 0
BBX 13 15 2 0
BITMAP
1F80
3FC0
78E0
6070
E030
C030
C038
C038
C038
C030
E030
E070
78E0
3FC0
1F80
ENDCHAR
STARTCHAR 043F
ENCODING 1087
SWIDTH 420 0
DWIDTH 14 0
BBX 11 15 2 0
BITMAP
FFE0
FFE0
C060
C060
C060
C060
C060
C060
C060
C060
C060
C060
C060
C060
C060
ENDCHAR
STARTCHAR 0440
ENCODING 1088
SWIDTH 480 0
DWIDTH 16 0
BBX 13 22 2 -7
BITMAP
DF80
FFC0
F8E0
E070
E030
C030
C038
C038
C038
C030
E030
E070
F8E0
FFC0
DF80
C000
C000
C000
C000
C000
C000
4000
ENDCHAR
STARTCHAR 0441
ENCODING 1089
SWIDTH 450 0
DWIDTH 15 0
BBX 12 15 2 0
BITMAP
1F80
3FC0
78E0
6070
E060
C000
C000
C000
C000
C000
E020
E070
78E0
3FC0
1F80
ENDCHAR
STARTCHAR 0442
ENCODING 1090
SWIDTH 390 0
DWIDTH 13 0
BBX 9 15 2 0
BITMAP
FF80
FF80
1C00
1C00
1C00
1C00
1C00
1C00
1C00
1C00
1C00
1C00
1C00
1C00
1C00
ENDCHAR
STARTCHAR 0443
ENCODING 1091
SWIDTH 480 0
DWIDTH 16 0
BBX 13 22 2 -7
BITMAP
C038
E038
6030
6070
7070
3060
38E0
38C0
19C0
1DC0
1D80
0F80
0F80
0700
0700
0700
0600
0E00
0C00
7C00
7800
E000
ENDCHAR
STARTCHAR 0444
ENCODING 1092
SWIDTH 600 0
DWIDTH 20 0
BBX 17 28 2 -7
BITMAP
018000
018000
018000
018000
018000
018000
3FBC00
7FFE00
77E700
E3C700
C1C300
C1C380
C18380
C18380
C18380
C1C380
C1C300
E3C700
77E700
7FFE00
3FBC00
018000
018000
018000
018000
018000
018000
008000
ENDCHAR
STARTCHAR 0445
ENCODING 1093
SWIDTH 480 0
DWIDTH 16 0
BBX 13 15 2 0
BITMAP
E038
7070
70E0
38E0
1DC0
1F80
0F80
0700
0F80
1F80
1DC0
38E0
70E0
7070
E038
ENDCHAR
STARTCHAR 0446
ENCODING 1094
SWIDTH 510 0
DWIDTH 17 0
BBX 13 19 2 -4
BITMAP
C060
C060
C060
C060
C060
C060
C060
C060
C060
C060
C060
C060
C060
FFF8
FFF8
0018
0018
0018
0018
ENDCHAR
STARTCHAR 0447
ENCODING 1095
SWIDTH 390 0
DWIDTH 13 0
BBX 10 15 2 0
BITMAP
C0C0
C0C0
C0C0
C0C0
C0C0
E0C0
7FC0
3FC0
0FC0
00C0
00C0
00C0
00C0
00C0
00C0
ENDCHAR
STARTCHAR 0448
ENCODING 1096
SWIDTH 540 0
DWIDTH 18 0
BBX 15 15 2 0
BITMAP
C386
C386
C386
C386
C386
C386
C386
C386
C386
C386
C386
C386
C386
FFFE
FFFE
ENDCHAR
STARTCHAR 0449
ENCODING 1097
SWIDTH 630 0
DWIDTH 21 0
BBX 18 19 2 -4
BITMAP
C38600
C38600
C38600
C38600
C38600
C38600
C38600
C38600
C38600
C38600
C38600
C38600
C38600
FFFFC0
FFFFC0
0001C0
0001C0
0001C0
0001C0
ENDCHAR
STARTCHAR 044A
ENCODING 1098
SWIDTH 510 0
DWIDTH 17 0
BBX 14 15 2 0
BITMAP
FE00
FE00
0600
0600
0600
0600
07F0
07F8
061C
060C
060C
061C
063C
07F8
07F0
ENDCHAR
STARTCHAR 044B
ENCODING 1099
SWIDTH 510 0
DWIDTH 17 0
BBX 13 15 2 0
BITMAP
C018
C018
C018
C018
C018
C018
FF18
FF18
C398
C198
C198
C198
C798
FF18
FE18
ENDCHAR
STARTCHAR 044C
ENCODING 1100
SWIDTH 390 0
DWIDTH 13 0
BBX 9 15 2 0
BITMAP
C000
C000
C000
C000
C000
C000
FF00
FF00
C380
C180
C180
C180
C780
FF00
FE00
ENDCHAR
STARTCHAR 044D
ENCODING 1101
SWIDTH 450 0
DWIDTH 15 0
BBX 12 15 2 0
BITMAP
3F00
7FC0
F1C0
E0E0
4060
0070
0FF0
0FF0
0FF0
0070
4060
E0E0
F1C0
7FC0
3F00
ENDCHAR
STARTCHAR 044E
ENCODING 1102
SWIDTH 630 0
DWIDTH 21 0
BBX 18 15 2 0
BITMAP
C0FC00
C1FE00
C3CF00
C70380
C70380
C60180
FE0180
FE01C0
FE0180
C60180
C70380
C70380
C38700
C1FE00
C0FC00
ENDCHAR
STARTCHAR 044F
ENCODING 1103
SWIDTH 390 0
DWIDTH 13 0
BBX 10 15 2 0
BITMAP
0FC0
3FC0
3CC0
70C0
70C0
70C0
38C0
3FC0
1FC0
1CC0
38C0
30C0
70C0
E0C0
E0C0
ENDCHAR
STARTCHAR 0450
ENCODING 1104
SWIDTH 480 0
DWIDTH 16 0
BBX 13 21 2 0
BITMAP
1C00
0E00
0600
0300
0000
0000
1F80
3FC0
78E0
6070
E070
FFF0
FFF8
FFF8
C000
C000
E020
E070
78E0
3FC0
1F80
ENDCHAR
STARTCHAR 0451
ENCODING 1105
SWIDTH 480 0
DWIDTH 16 0
BBX 13 21 2 0
BITMAP
30C0
39E0
39E0
10C0
0000
0000
1F80
3FC0
78E0
6070
E070
FFF0
FFF8
FFF8
C000
C000
E020
E070
78E0
3FC0
1F80
ENDCHAR
STARTCHAR 0452
ENCODING 1106
SWIDTH 570 0
DWIDTH 19 0
BBX 16 28 2 -7
BITMAP
1800
1800
FF00
FF00
FF00
1800
19F8
1FFC
1F1E
1E0E
1C06
1C07
1807
1807
1807
1807
1807
1807
1807
1807
1807
0007
0007
0007
0007
007E
00FC
0078
ENDCHAR
STARTCHAR 0453
ENCODING 1107
SWIDTH 390 0
DWIDTH 13 0
BBX 9 21 2 0
BITMAP
0700
0C00
0800
1000
0000
0000
FF80
FF80
C000
C000
C000
C000
C000
C000
C000
C000
C000
C000
C000
C000
C000
ENDCHAR
STARTCHAR 0454
ENCODING 1108
SWIDTH 450 0
DWIDTH 15 0
BBX 12 15 2 0
BITMAP
1F80
3FC0
78E0
6070
E060
C000
FF00
FF00
FF00
C000
E020
E070
78E0
3FC0
1F80
ENDCHAR
STARTCHAR 0455
ENCODING 1109
SWIDTH 390 0
DWIDTH 13 0
BBX 9 15 2 0
BITMAP
3E00
7F00
E380
E180
E000
F000
7C00
1F00
0780
0180
C180
C180
E380
7F00
3E00
ENDCHAR
STARTCHAR 0456
ENCODING 1110
SWIDTH 150 0
DWIDTH 5 0
BBX 4 21 1 0
BITMAP
60
F0
F0
60
00
00
60
60
60
60
60
60
60
60
60
60
60
60
60
60
60
ENDCHAR
STARTCHAR 0457
ENCODING 1111
SWIDTH 150 0
DWIDTH 5 0
BBX 9 21 -2 0
BITMAP
6180
F380
F380
6100
0000
0000
0C00
0C00
0C00
0C00
0C00
0C00
0C00
0C00
0C00
0C00
0C00
0C00
0C00
0C00
0C00
ENDCHAR
STARTCHAR 0458
ENCODING 1112
SWIDTH 150 0
DWIDTH 5 0
BBX 8 28 -3 -7
BITMAP
06
0F
0F
06
00
00
06
06
06
06
06
06
06
06
06
06
06
06
06
06
06
06
06
06
0E
7C
FC
70
ENDCHAR
STARTCHAR 0459
ENCODING 1113
SWIDTH 690 0
DWIDTH 23 0
BBX 20 15 2 0
BITMAP
3FF800
3FF800
383800
383800
383800
383800
383FC0
383FE0
303870
303870
303870
703870
6038E0
E03FE0
C03F80
ENDCHAR
STARTCHAR 045A
ENCODING 1114
SWIDTH 630 0
DWIDTH 21 0
BBX 18 15 2 0
BITMAP
C06000
C06000
C06000
C06000
C06000
C06000
FFFF00
FFFF80
FFE1C0
C060C0
C060C0
C060C0
C063C0
C07F80
C07F00
ENDCHAR
STARTCHAR 045B
ENCODING 1115
SWIDTH 540 0
DWIDTH 18 0
BBX 15 21 2 0
BITMAP
3800
3800
FE00
FE00
3800
3800
3BF0
3FF8
3E3C
3C1C
380E
380E
3806
3806
3806
3806
3806
3806
3806
3806
3806
ENDCHAR
STARTCHAR 045C
ENCODING 1116
SWIDTH 420 0
DWIDTH 14 0
BBX 11 21 2 0
BITMAP
0700
0600
0C00
1800
0000
0000
C180
C380
C700
C600
C600
CE00
CE00
FE00
FE00
C700
C380
C380
C1C0
C0E0
C060
ENDCHAR
STARTCHAR 045D
ENCODING 1117
SWIDTH 420 0
DWIDTH 14 0
BBX 11 21 2 0
BITMAP
3800
0C00
0400
0200
0000
0000
C060
C060
C060
C0E0
C1E0
C3E0
C760
CE60
DC60
F860
F060
E060
C060
C060
C060
ENDCHAR
STARTCHAR 045E
ENCODING 1118
SWIDTH 480 0
DWIDTH 16 0
BBX 13 28 2 -7
BITMAP
3060
38C0
1FC0
0F80
0000
0000
C038
E038
6030
6070
7070
3060
38E0
38C0
19C0
1DC0
1D80
0F80
0F80
0700
0700
0700
0600
0E00
0C00
7C00
7800
E000
ENDCHAR
STARTCHAR 045F
ENCODING 1119
SWIDTH 420 0
DWIDTH 14 0
BBX 11 19 2 -4
BITMAP
C060
C060
C060
C060
C060
C060
C060
C060
C060
C060
C060
C060
C060
FFE0
FFE0
0E00
0E00
0E00
0E00
ENDCHAR
STARTCHAR 0460
ENCODING 1120
SWIDTH 900 0
DWIDTH 30 0
BBX 27 21 2 0
BITMAP
C0180060
C0180060
C0180060
C0180060
C0180060
C0180060
C0180060
C01C0060
C01C0060
C01C00E0
E01C00E0
E00C00E0
600E00C0
700E01C0
701E01C0
381F0380
383B8700
1C71CF00
0FE1FE00
07E0FC00
03803800
ENDCHAR
STARTCHAR 0461
ENCODING 1121
SWIDTH 720 0
DWIDTH 24 0
BBX 21 15 2 0
BITMAP
C0C038
C0C038
C0C038
C0C038
C0C038
C0C038
C0C038
E0E030
E0E070
607070
70F0E0
39F9C0
1F9FC0
0F8F80
060700
ENDCHAR
STARTCHAR 0462
ENCODING 1122
SWIDTH 660 0
DWIDTH 22 0
BBX 19 21 2 0
BITMAP
070000
070000
070000
FFF800
FFF800
070000
070000
070000
07F800
07FF00
07FF80
0701C0
0700E0
0700E0
0700E0
0700E0
0700E0
0701C0
0707C0
07FF80
07FE00
ENDCHAR
STARTCHAR 0463
ENCODING 1123
SWIDTH 480 0
DWIDTH 16 0
BBX 13 21 2 0
BITMAP
1C00
1C00
1C00
1C00
1C00
1C00
FF80
FF80
1C00
1C00
1C00
1C00
1FE0
1FF0
1C38
1C38
1C18
1C38
1C78
1FF0
1FE0
ENDCHAR
STARTCHAR 0464
ENCODING 1124
SWIDTH 720 0
DWIDTH 24 0
BBX 21 22 2 0
BITMAP
001E00
C07FC0
C0FFE0
C1C0F0
C38070
C30030
C70000
C60000
C60000
CE0000
FFFF00
FFFF00
CE0000
CE0000
C60000
C70000
C70030
C38038
C3C070
C1E1E0
C0FFC0
C03F80
ENDCHAR
STARTCHAR 0465
ENCODING 1125
SWIDTH 600 0
DWIDTH 20 0
BBX 17 15 2 0
BITMAP
C0FC00
C1FE00
C3CF00
C70380
C70300
C60000
FFF800
FFF800
FFF800
C60000
C70300
C70380
C38700
C1FE00
C0FC00
ENDCHAR
STARTCHAR 0466
ENCODING 1126
SWIDTH 630 0
DWIDTH 21 0
BBX 18 21 2 0
BITMAP
01C000
01E000
03E000
03F000
037000
073000
073800
063800
0E1800
0C1C00
1C1C00
1FFC00
1FFE00
38C600
38C700
30C700
70C300
70C380
60C380
E0C180
C0C1C0
ENDCHAR
STARTCHAR 0467
ENCODING 1127
SWIDTH 480 0
DWIDTH 16 0
BBX 13 15 2 0
BITMAP
0700
0700
0F80
0F80
1D80
1DC0
19C0
38C0
3FE0
3FE0
7770
7770
6730
E738
C738
ENDCHAR
STARTCHAR 0468
ENCODING 1128
SWIDTH 780 0
DWIDTH 26 0
BBX 22 21 2 0
BITMAP
C00E00
C01E00
C01F00
C01F00
C03B00
C03380
C07180
C07180
C061C0
FFE0C0
FFE0E0
C0FFE0
C1FFE0
C1CE70
C18E70
C38E30
C30E38
C70E18
C70E1C
C60E1C
CE0E0C
ENDCHAR
STARTCHAR 0469
ENCODING 1129
SWIDTH 600 0
DWIDTH 20 0
BBX 17 15 2 0
BITMAP
C0E000
C0F000
C0F000
C1F800
C1F800
C19800
FF9C00
FF9C00
FFFC00
C7FE00
C66E00
CE6600
CE6700
CC6300
DC6380
ENDCHAR
STARTCHAR 046A
ENCODING 1130
SWIDTH 570 0
DWIDTH 19 0
BBX 17 21 1 0
BITMAP
FFFF80
7FFF00
380700
1C0E00
1C1C00
0E1C00
073800
077000
03F000
03F000
0FFC00
1FFE00
38CF00
70C700
70C300
60C380
60C380
60C380
60C380
60C380
60C380
ENDCHAR
STARTCHAR 046B
ENCODING 1131
SWIDTH 480 0
DWIDTH 16 0
BBX 13 15 2 0
BITMAP
FFF8
FFF0
70E0
39C0
1DC0
1F80
0F00
3FC0
7FE0
7670
E670
C630
C638
C638
C638
ENDCHAR
STARTCHAR 046C
ENCODING 1132
SWIDTH 720 0
DWIDTH 24 0
BBX 21 21 2 0
BITMAP
CFFFF8
C7FFF0
C38070
C380E0
C1C1C0
C0E380
C07380
C07700
C03E00
FFFF00
FFFF80
C1FFE0
C39CE0
C71C70
C71C30
C61C38
C61C38
C61C38
C61C38
C61C38
C61C38
ENDCHAR
STARTCHAR 046D
ENCODING 1133
SWIDTH 630 0
DWIDTH 21 0
BBX 18 15 2 0
BITMAP
C7FF80
C7FF80
C38700
C1CE00
C1CE00
C0FC00
FFF800
FFFE00
FFFF00
C7B780
C73380
C63180
C631C0
C631C0
C631C0
ENDCHAR
STARTCHAR 046E
ENCODING 1134
SWIDTH 510 0
DWIDTH 17 0
BBX 14 32 2 -7
BITMAP
38E0
1CE0
0FC0
0F80
1FE0
3FF0
7038
6018
E018
0018
0018
0038
07F0
07E0
07F0
0038
001C
000C
000C
000C
001C
003C
01F8
1FF0
7FC0
F000
C000
C000
E018
7FF8
3FF0
0FC0
ENDCHAR
STARTCHAR 046F
ENCODING 1135
SWIDTH 390 0
DWIDTH 13 0
BBX 9 25 2 -7
BITMAP
7700
7700
3E00
3E00
7F00
7700
E380
0380
0700
0F00
0F00
0380
0180
0180
0180
0780
3F00
7E00
E000
C000
C000
E380
FF80
7F00
1C00
ENDCHAR
STARTCHAR 0470
ENCODING 1136
SWIDTH 660 0
DWIDTH 22 0
BBX 19 22 2 0
BITMAP
000060
E0C0E0
E0C1E0
60C380
70C380
70C380
30C380
38C380
18C300
1CC700
1CCE00
0FFE00
0FF800
00C000
00C000
00C000
00C000
00C000
00C000
00C000
00C000
00C000
ENDCHAR
STARTCHAR 0471
ENCODING 1137
SWIDTH 660 0
DWIDTH 22 0
BBX 19 28 2 -7
BITMAP
00C000
00C000
00C000
00C000
00C000
00C000
C0C0E0
E0C1E0
60C1C0
60C380
70C380
30C380
38C380
38C380
18C380
1CC380
1CC300
0CC700
0EDE00
07FC00
07F800
00C000
00C000
00C000
00C000
00C000
00C000
004000
ENDCHAR
STARTCHAR 0472
ENCODING 1138
SWIDTH 630 0
DWIDTH 21 0
BBX 18 22 2 0
BITMAP
03E000
0FF800
1FFC00
3C1E00
780700
700700
E00380
E00380
C00180
C00180
FFFFC0
FFFFC0
C00180
C00180
E00180
E00380
600300
700700
380E00
1E3E00
0FFC00
07F000
ENDCHAR
STARTCHAR 0473
ENCODING 1139
SWIDTH 480 0
DWIDTH 16 0
BBX 13 15 2 0
BITMAP
1F80
3FC0
78E0
6070
E070
C030
FFF8
FFF8
FFF8
C030
E030
E070
78E0
3FC0
1F80
ENDCHAR
STARTCHAR 0474
ENCODING 1140
SWIDTH 720 0
DWIDTH 24 0
BBX 23 22 2 0
BITMAP
000070
E001FC
E001FE
600388
700300
700700
300700
380600
180E00
1C0E00
1C0C00
0C1C00
0E1C00
0E1800
063800
073000
077000
037000
03E000
01E000
01E000
01C000
ENDCHAR
STARTCHAR 0475
ENCODING 1141
SWIDTH 570 0
DWIDTH 19 0
BBX 17 15 2 0
BITMAP
C01F00
E03F80
603980
607000
707000
306000
38E000
38C000
19C000
1DC000
1D8000
0F8000
0F8000
070000
070000
ENDCHAR
STARTCHAR 0476
ENCODING 1142
SWIDTH 720 0
DWIDTH 24 0
BBX 23 28 2 0
BITMAP
073000
033800
018800
008400
004000
000000
000070
E001FC
E001FE
600388
700300
700700
300700
380600
180E00
1C0E00
1C0C00
0C1C00
0E1C00
0E1800
063800
073000
077000
037000
03E000
01E000
01E000
01C000
ENDCHAR
STARTCHAR 0477
ENCODING 1143
SWIDTH 570 0
DWIDTH 19 0
BBX 17 21 2 0
BITMAP
39C000
0C6000
062000
021000
000000
000000
C01F00
E03F80
603980
607000
707000
306000
38E000
38C000
19C000
1DC000
1D8000
0F8000
0F8000
070000
070000
ENDCHAR
STARTCHAR 0478
ENCODING 1144
SWIDTH 1080 0
DWIDTH 36 0
BBX 32 29 2 -7
BITMAP
03E00000
0FF80000
1FFC0000
3C1E0000
78070000
70070000
E0038000
E0039C03
C0018C03
C0018E07
C001CE06
C001C60E
C001870E
C001830C
E001831C
E003839C
60030198
700701F8
380E01F0
1E3E00F0
0FFC00F0
07F000E0
000000E0
000000E0
000000C0
000001C0
00000780
00000F80
00000E00
ENDCHAR
STARTCHAR 0479
ENCODING 1145
SWIDTH 780 0
DWIDTH 26 0
BBX 23 22 2 -7
BITMAP
3E300E
7F380C
77381C
E3981C
C19C18
C19C38
C18C38
C18E30
C18E70
C18660
C187E0
E383E0
7703C0
7F03C0
3E01C0
000180
000380
000380
000700
001F00
001E00
003800
ENDCHAR
STARTCHAR 047A
ENCODING 1146
SWIDTH 810 0
DWIDTH 27 0
BBX 24 24 2 -1
BITMAP
003800
007E00
03FFC0
0FFFE0
1E18F8
3C003C
78001C
70000E
E00006
E00007
C00007
C00003
C00003
C00007
C00007
E00007
60000E
70000E
38001C
1E0078
0FBDF0
07FFE0
01FF80
003C00
ENDCHAR
STARTCHAR 047B
ENCODING 1147
SWIDTH 570 0
DWIDTH 19 0
BBX 16 18 2 -1
BITMAP
0100
03C0
0FE0
1FF8
7FFC
700E
E00E
C007
C007
C007
C007
C007
E006
700E
7FFC
1FF8
0FE0
03C0
ENDCHAR
STARTCHAR 047C
ENCODING 1148
SWIDTH 1080 0
DWIDTH 36 0
BBX 33 28 2 0
BITMAP
0003800000
000FE00000
001FF00000
001C7C0000
00181C0000
00018C0000
0383C0C000
0F83C0F000
1F81E0F800
3C00601C00
7800400E00
7000C00700
E001800700
E002000300
C000000380
C000000380
C000000180
C001C00180
C001C00380
C001C00380
E001C00380
E003C00300
6003E00700
7007700600
380E700E00
1E3E3C3C00
0FFC1FF800
07F007F000
ENDCHAR
STARTCHAR 047D
ENCODING 1149
SWIDTH 780 0
DWIDTH 26 0
BBX 23 25 2 0
BITMAP
007800
01FE00
01DF00
0387C0
0383C0
0038C0
007800
007C00
000C00
000C00
1C0870
3C1878
78203C
60401C
E0000E
C0000E
C00006
C00006
C03806
C0380E
E0380E
E07C1C
78EE3C
3FC7F8
1F83F0
ENDCHAR
STARTCHAR 047E
ENCODING 1150
SWIDTH 900 0
DWIDTH 30 0
BBX 27 28 2 0
BITMAP
1FFFFF00
1FFFFF00
180E0300
180E0300
180E0300
000E0000
000E0000
C00E0060
C0000060
C0000060
C0000060
C0000060
C0180060
C0180060
C01C0060
C01C0060
C01C00E0
E01C00E0
E00C00E0
600E00C0
700E01C0
701E01C0
381F0380
383B8700
1C71CF00
0FE1FE00
07E0FC00
03803800
ENDCHAR
STARTCHAR 047F
ENCODING 1151
SWIDTH 720 0
DWIDTH 24 0
BBX 21 21 2 0
BITMAP
3FFFE0
3FFFE0
3060E0
3060E0
006000
006000
C06038
C06038
C00038
C0C038
C0C038
C0C038
C0C038
E0E030
E0E070
607070
70F0E0
39F9C0
1F9FC0
0F8F80
060700
ENDCHAR
STARTCHAR 0480
ENCODING 1152
SWIDTH 570 0
DWIDTH 19 0
BBX 16 29 2 -7
BITMAP
03E0
0FF8
1FFC
3C1E
7807
7007
E000
E000
C000
C000
C000
C000
C000
C000
E000
E000
6000
7000
3800
1E00
0FC0
07C0
01C0
01C0
01C0
01C0
01C0
01C0
01C0
ENDCHAR
STARTCHAR 0481
ENCODING 1153
SWIDTH 450 0
DWIDTH 15 0
BBX 12 22 2 -7
BITMAP
1F80
3FC0
78E0
6070
E060
C000
C000
C000
C000
C000
E000
E000
7800
3E00
1E00
0600
0600
0600
0600
0600
0600
0200
ENDCHAR
STARTCHAR 0482
ENCODING 1154
SWIDTH 600 0
DWIDTH 20 0
BBX 17 22 2 -7
BITMAP
001C00
001800
003800
183000
1F7000
0FF000
03FC00
00FF00
00EF80
00C180
01C000
81C000
F18000
FF8000
3F8000
07F000
07FC00
063C00
0E0000
0E0000
0C0000
1C0000
ENDCHAR
STARTCHAR 0483
ENCODING 1155
SWIDTH 0 0
DWIDTH 0 0
BBX 10 7 -5 16
BITMAP
00C0
00C0
7FC0
FFC0
FF80
C000
C000
ENDCHAR
STARTCHAR 0484
ENCODING 1156
SWIDTH 0 0
DWIDTH 0 0
BBX 6 7 0 16
BITMAP
70
FC
1C
0C
04
04
04
ENDCHAR
STARTCHAR 0485
ENCODING 1157
SWIDTH 0 0
DWIDTH 0 0
BBX 4 7 -2 16
BITMAP
20
F0
F0
80
80
40
20
ENDCHAR
STARTCHAR 0486
ENCODING 1158
SWIDTH 0 0
DWIDTH 0 0
BBX 4 7 -2 16
BITMAP
40
F0
F0
10
10
20
40
ENDCHAR
STARTCHAR 0487
ENCODING 1159
SWIDTH 0 0
DWIDTH 0 0
BBX 12 6 -6 16
BITMAP
1C00
7F00
7FC0
E1F0
E0F0
0030
ENDCHAR
ENDFONT
